####
#
#	OBJ File Generated by LightWave3D
#	LightWave3D OBJ Export v2.3
#
####
o pipes_lod1.obj
mtllib pipes_lod1.mtl
g default
v -2.85 -8.54416e-009 0.65
v -2.85 6.97068e-009 -0.6
v -2.85 0.280074 0.54249
v -2.85 0.286891 -0.512289
v -2.85 0.560148 0.434979
v -2.85 0.573783 -0.424577
v -2.85 0.760674 -0.336865
v -2.85 0.890222 0.277469
v -2.65 -8.54416e-009 0.65
v -2.65 6.97068e-009 -0.6
v -2.65 0.280074 0.54249
v -2.65 0.286891 -0.512289
v -2.65 0.560148 0.434979
v -2.65 0.573783 -0.424577
v -2.65 0.760674 -0.336865
v -2.65 0.890222 0.277469
v -2.06148 -0.00418 -0.63745
v -2.06148 -0.00418 -0.64691
v -2.06148 0.00385 0.67276
v -2.06148 0.00407 0.66352
v -2.06148 0.03927 0.66363
v -2.06148 0.0396 0.67309
v -2.06148 0.04389 -0.63745
v -2.06148 0.04389 -0.64691
v -2.06148 0.73854 -0.39457
v -2.06148 0.74349 -0.40337
v -2.06148 0.77957 -0.37136
v -2.06148 0.78496 -0.37928
v -2.06148 0.81235 -0.33121
v -2.06148 0.81928 -0.3377
v -2.06148 0.83017 -0.28402
v -2.06148 0.83743 -0.28996
v -2.06148 0.84964 0.35244
v -2.06148 0.85635 0.35904
v -2.06148 0.8921 0.32516
v -2.06148 0.89859 0.33165
v -2.06148 0.90156 -0.00748
v -2.06148 0.91113 -0.00627
v -2.06148 0.92389 0.28479
v -2.06148 0.9317 0.28963
v -2.06148 0.93896 0.18249
v -2.06148 0.94017 0.23353
v -2.06148 0.94787 0.17941
v -2.06148 0.94919 0.23639
v -1.9363 -0.00418 -0.63745
v -1.9363 -0.00418 -0.64691
v -1.9363 0.00385 0.67276
v -1.9363 0.00407 0.66352
v -1.9363 0.03927 0.66363
v -1.9363 0.0396 0.67309
v -1.9363 0.04389 -0.63745
v -1.9363 0.04389 -0.64691
v -1.9363 0.73854 -0.39457
v -1.9363 0.74349 -0.40337
v -1.9363 0.77957 -0.37136
v -1.9363 0.78496 -0.37928
v -1.9363 0.81235 -0.33121
v -1.9363 0.81928 -0.3377
v -1.9363 0.83017 -0.28402
v -1.9363 0.83743 -0.28996
v -1.9363 0.84964 0.35244
v -1.9363 0.85635 0.35904
v -1.9363 0.8921 0.32516
v -1.9363 0.89859 0.33165
v -1.9363 0.90156 -0.00748
v -1.9363 0.91113 -0.00627
v -1.9363 0.92389 0.28479
v -1.9363 0.9317 0.28963
v -1.9363 0.93896 0.18249
v -1.9363 0.94017 0.23353
v -1.9363 0.94787 0.17941
v -1.9363 0.94919 0.23639
v 2.31256 -0.00418 -0.63745
v 2.31256 -0.00418 -0.64691
v 2.31256 0.00385 0.67276
v 2.31256 0.00407 0.66352
v 2.31256 0.03927 0.66363
v 2.31256 0.0396 0.67309
v 2.31256 0.04389 -0.63745
v 2.31256 0.04389 -0.64691
v 2.31256 0.73854 -0.39457
v 2.31256 0.74349 -0.40337
v 2.31256 0.77957 -0.37136
v 2.31256 0.78496 -0.37928
v 2.31256 0.81235 -0.33121
v 2.31256 0.81928 -0.3377
v 2.31256 0.83017 -0.28402
v 2.31256 0.83743 -0.28996
v 2.31256 0.84964 0.35244
v 2.31256 0.85635 0.35904
v 2.31256 0.8921 0.32516
v 2.31256 0.89859 0.33165
v 2.31256 0.90156 -0.00748
v 2.31256 0.91113 -0.00627
v 2.31256 0.92389 0.28479
v 2.31256 0.9317 0.28963
v 2.31256 0.93896 0.18249
v 2.31256 0.94017 0.23353
v 2.31256 0.94787 0.17941
v 2.31256 0.94919 0.23639
v 2.43775 -0.00418 -0.63745
v 2.43775 -0.00418 -0.64691
v 2.43775 0.00385 0.67276
v 2.43775 0.00407 0.66352
v 2.43775 0.03927 0.66363
v 2.43775 0.0396 0.67309
v 2.43775 0.04389 -0.63745
v 2.43775 0.04389 -0.64691
v 2.43775 0.73854 -0.39457
v 2.43775 0.74349 -0.40337
v 2.43775 0.77957 -0.37136
v 2.43775 0.78496 -0.37928
v 2.43775 0.81235 -0.33121
v 2.43775 0.81928 -0.3377
v 2.43775 0.83017 -0.28402
v 2.43775 0.83743 -0.28996
v 2.43775 0.84964 0.35244
v 2.43775 0.85635 0.35904
v 2.43775 0.8921 0.32516
v 2.43775 0.89859 0.33165
v 2.43775 0.90156 -0.00748
v 2.43775 0.91113 -0.00627
v 2.43775 0.92389 0.28479
v 2.43775 0.9317 0.28963
v 2.43775 0.93896 0.18249
v 2.43775 0.94017 0.23353
v 2.43775 0.94787 0.17941
v 2.43775 0.94919 0.23639
v 2.85 -8.54416e-009 0.65
v 2.85 6.97068e-009 -0.6
v 2.85 0.280074 0.54249
v 2.85 0.286891 -0.512289
v 2.85 0.560148 0.434979
v 2.85 0.573783 -0.424577
v 2.85 0.760674 -0.336865
v 2.85 0.890222 0.277469
v 3.15 -8.54416e-009 0.65
v 3.15 6.97068e-009 -0.6
v 3.15 0.280074 0.54249
v 3.15 0.286891 -0.512289
v 3.45 0.560148 0.434979
v 3.45 0.573783 -0.424577
v 3.45 0.760674 -0.336865
v 3.45 0.890222 0.277469
vt -0.3879 -0.972
vt -0.3879 -0.8036
vt -0.3879 0.0574
vt -0.3879 0.1163
vt -0.3879 0.122
vt -0.3879 1.0034
vt -0.3879 1.0043
vt -0.3874 0.0682
vt -0.3752 -0.972
vt -0.3752 -0.8036
vt -0.3752 0.0574
vt -0.3752 0.1158
vt -0.3752 0.122
vt -0.3752 1.0033
vt -0.3752 1.0043
vt -0.375 0.0685
vt -0.166 0.0361
vt -0.166 0.0738
vt -0.166 0.118
vt -0.166 0.1223
vt -0.166 0.1624
vt -0.166 1.0263
vt -0.166 1.027
vt -0.1656 0.0819
vt -0.1564 0.0361
vt -0.1564 0.0738
vt -0.1564 0.1177
vt -0.1564 0.1223
vt -0.1564 0.1624
vt -0.1564 1.0262
vt -0.1564 1.027
vt -0.1563 0.0821
vt -0.1413 -0.972
vt -0.1413 -0.8036
vt -0.1306 -0.972
vt -0.1306 -0.8036
vt -0.0824 -0.972
vt -0.0824 -0.8036
vt -0.0767 -0.972
vt -0.0767 -0.8036
vt -0.0644 -0.972
vt -0.0644 -0.8036
vt -0.0603 1.1523
vt -0.0484 1.1513
vt -0.0279 1.1611
vt -0.0173 -0.972
vt -0.0173 -0.8036
vt -0.0173 1.1599
vt -0.0074 -0.972
vt -0.0074 -0.8036
vt 0.000960039 0.235408
vt 0.000960039 0.329999
vt 0.000960039 0.495819
vt 0.000960039 0.548897
vt 0.000960039 0.617319
vt 0.000960039 0.657571
vt 0.000960039 0.888078
vt 0.000960039 0.925626
vt 0.019 0.0361
vt 0.019 0.1624
vt 0.0271 0.0361
vt 0.0271 0.1624
vt 0.028 1.1683
vt 0.0327029 0.235408
vt 0.0327029 0.329999
vt 0.0327029 0.495819
vt 0.0327029 0.548897
vt 0.0327029 0.617319
vt 0.0327029 0.657571
vt 0.0327029 0.888078
vt 0.0327029 0.925626
vt 0.0327029 0.996124
vt 0.0345 1.1762
vt 0.0367 -0.972
vt 0.0367 -0.8036
vt 0.0367 1.1669
vt 0.0435 1.1748
vt 0.0632 0.0361
vt 0.0632 0.1624
vt 0.0674 0.0361
vt 0.0674 0.1624
vt 0.0714 -0.972
vt 0.0714 -0.8036
vt 0.0714 1.1851
vt 0.0767 0.0361
vt 0.0767 0.1624
vt 0.0796 -0.972
vt 0.0796 -0.8036
vt 0.0798 1.138
vt 0.0802 1.1837
vt 0.0887 1.1372
vt 0.0922 1.1722
vt 0.1003 -0.972
vt 0.1003 -0.8036
vt 0.1003 1.1706
vt 0.1041 1.1445
vt 0.112 0.0361
vt 0.112 0.1624
vt 0.112 1.1437
vt 0.1194 0.0361
vt 0.1194 0.1624
vt 0.128 -0.972
vt 0.128 -0.8036
vt 0.128 1.1921
vt 0.1345 1.1904
vt 0.1354 -0.972
vt 0.1354 -0.8036
vt 0.146 1.15
vt 0.1509 1.1559
vt 0.1525 0.0361
vt 0.1525 0.1624
vt 0.1525 1.1489
vt 0.1576 1.1548
vt 0.1786 0.0361
vt 0.1786 0.1624
vt 0.1786 1.1626
vt 0.1847 0.0361
vt 0.1847 0.1624
vt 0.1851 1.1615
vt 0.1942 1.1529
vt 0.1996 -0.972
vt 0.1996 -0.8036
vt 0.1996 1.1958
vt 0.2002 0.0361
vt 0.2002 0.1624
vt 0.2002 1.1517
vt 0.2034 1.1939
vt 0.221 0.0361
vt 0.221 0.1624
vt 0.221 1.1678
vt 0.2259 1.1666
vt 0.2266 0.0361
vt 0.2266 0.1624
vt 0.2721 1.1936
vt 0.2747 0.0361
vt 0.2747 0.1624
vt 0.2747 1.1706
vt 0.2763 -0.972
vt 0.2763 -0.8036
vt 0.2763 1.1955
vt 0.2776 1.1692
vt 0.329 1.169
vt 0.3322 0.0361
vt 0.3322 0.1624
vt 0.3322 1.1704
vt 0.4723 -0.972
vt 0.4723 -0.8036
vt 0.4723 1.1857
vt 0.4739 1.1878
vt 0.4792 0.0361
vt 0.4792 0.1624
vt 0.4792 1.1631
vt 0.4804 1.1646
vt 0.5196 0.0361
vt 0.5196 0.1624
vt 0.5196 1.1646
vt 0.5208 1.1631
vt 0.5261 -0.972
vt 0.5261 -0.8036
vt 0.5261 1.1878
vt 0.5277 1.1857
vt 0.6678 1.1704
vt 0.671 0.0361
vt 0.671 0.1624
vt 0.671 1.169
vt 0.7224 0.0361
vt 0.7224 0.1624
vt 0.7224 1.1692
vt 0.7237 1.1955
vt 0.7253 1.1706
vt 0.7279 -0.972
vt 0.7279 -0.8036
vt 0.7279 1.1936
vt 0.7685 0.0361
vt 0.7685 0.1624
vt 0.7741 0.0361
vt 0.7741 0.1624
vt 0.7741 1.1666
vt 0.779 1.1678
vt 0.7966 -0.972
vt 0.7966 -0.8036
vt 0.7966 1.1939
vt 0.7998 1.1517
vt 0.8004 1.1958
vt 0.8058 0.0361
vt 0.8058 0.1624
vt 0.8058 1.1529
vt 0.8099 0.0361
vt 0.8099 0.1624
vt 0.8149 0.0361
vt 0.8149 0.1624
vt 0.8149 1.1615
vt 0.8214 1.1626
vt 0.8424 1.1548
vt 0.8475 1.1489
vt 0.8491 1.1559
vt 0.854 0.0361
vt 0.854 0.1624
vt 0.854 1.15
vt 0.858 -0.972
vt 0.858 -0.8036
vt 0.8655 -0.972
vt 0.8655 -0.8036
vt 0.8655 1.1904
vt 0.872 1.1921
vt 0.8873 0.0361
vt 0.8873 0.1624
vt 0.888 1.1437
vt 0.8959 0.0361
vt 0.8959 0.1624
vt 0.8959 1.1445
vt 0.8997 1.1706
vt 0.905631 0.235408
vt 0.905631 0.329999
vt 0.905631 0.495819
vt 0.905631 0.548897
vt 0.905631 0.617319
vt 0.905631 0.657571
vt 0.905631 0.888078
vt 0.905631 0.925626
vt 0.905631 0.996124
vt 0.9078 -0.972
vt 0.9078 -0.8036
vt 0.9078 1.1722
vt 0.9113 1.1372
vt 0.9132 -0.972
vt 0.9132 -0.8036
vt 0.9198 -0.972
vt 0.9198 -0.8036
vt 0.9198 1.1837
vt 0.9202 1.138
vt 0.9286 1.1851
vt 0.9299 0.0361
vt 0.9299 0.1624
vt 0.9326 0.0361
vt 0.9326 0.1624
vt 0.9372 0.0361
vt 0.9372 0.1624
vt 0.953246 0.617319
vt 0.953246 0.657571
vt 0.953246 0.888078
vt 0.953246 0.925626
vt 0.9565 1.1748
vt 0.9633 1.1669
vt 0.9655 1.1762
vt 0.972 -0.972
vt 0.972 -0.8036
vt 0.972 1.1683
vt 0.9727 0.0361
vt 0.9727 0.1624
vt 0.981 0.0361
vt 0.981 0.1624
vt 1.00086 0.235408
vt 1.00086 0.329999
vt 1.00086 0.495819
vt 1.00086 0.548897
vt 1.0164 -0.972
vt 1.0164 -0.8036
vt 1.0173 1.1599
vt 1.0279 -0.972
vt 1.0279 -0.8036
vt 1.0279 1.1611
vt 1.0484 1.1513
vt 1.0603 1.1523
vt 1.0732 -0.972
vt 1.0732 -0.8036
vt 1.0767 -0.972
vt 1.0767 -0.8036
vt 1.0829 -0.972
vt 1.0829 -0.8036
vt 1.1303 -0.972
vt 1.1303 -0.8036
vt 1.1413 -0.972
vt 1.1413 -0.8036
vt 1.1563 0.0361
vt 1.1563 0.0821
vt 1.1563 0.1624
vt 1.1564 0.0738
vt 1.1564 0.1177
vt 1.1564 0.1223
vt 1.1564 1.0262
vt 1.1564 1.027
vt 1.1656 0.0361
vt 1.1656 0.0819
vt 1.1656 0.1624
vt 1.166 0.0738
vt 1.166 0.118
vt 1.166 0.1223
vt 1.166 1.0263
vt 1.166 1.027
vt 1.375 -0.972
vt 1.375 -0.8036
vt 1.375 0.0342
vt 1.3752 0.0232
vt 1.3752 0.0816
vt 1.3752 0.0877
vt 1.3752 1.0033
vt 1.3752 1.0043
vt 1.3874 -0.972
vt 1.3874 -0.8036
vt 1.3874 0.0339
vt 1.3879 0.0232
vt 1.3879 0.082
vt 1.3879 0.0877
vt 1.3879 1.0034
vt 1.3879 1.0043
vn -0.89469 -0.425822 0.134927
vn -0.89469 -0.425822 0.134927
vn -0.894505 0.435814 -0.0996362
vn -0.884736 -0.251796 0.392225
vn -0.835551 -0.54389 -0.0777055
vn -0.835551 -0.54389 -0.0777055
vn -0.83322 0.23082 -0.502461
vn -0.813697 -0.405463 -0.41653
vn -0.813697 -0.405463 -0.416531
vn -0.801386 0.289907 0.523197
vn -0.714718 -0.610237 -0.341744
vn -0.712827 -0.619709 -0.328389
vn -0.712669 0.168323 0.681006
vn -0.712526 0.618298 0.331685
vn -0.712526 0.618298 0.331686
vn -0.712522 -0.484896 0.507137
vn -0.712522 -0.484896 0.507137
vn -0.712478 -0.0836547 -0.69669
vn -0.712478 -0.0836547 -0.69669
vn -0.712043 0.421488 -0.561553
vn -0.712043 0.421488 -0.561553
vn -0.711551 -0.0782827 0.69826
vn -0.711551 -0.0782827 0.69826
vn -0.711515 0.155946 -0.685148
vn -0.711515 0.155946 -0.685148
vn -0.711454 -0.442696 -0.545759
vn -0.711337 0.50149 0.49245
vn -0.711337 0.50149 0.49245
vn -0.7113 0.587338 -0.386117
vn -0.711221 -0.627216 0.317436
vn -0.711221 -0.627216 0.317436
vn -0.708271 0.699228 -0.0971201
vn -0.708271 0.699228 -0.0971201
vn -0.708251 -0.703672 0.056794
vn -0.708251 -0.703672 0.056794
vn -0.666667 -0.333333 -0.666667
vn -0.666667 -0.333333 -0.666667
vn -0.661793 -0.424627 0.617837
vn -0.618464 0.530863 0.579385
vn -0.605591 0.787179 0.116654
vn -0.60153 -0.329805 0.727592
vn -0.592089 0.541226 -0.59708
vn -0.556486 -0.349893 -0.75359
vn -0.479011 -0.754391 -0.448824
vn -0.447747 0.851882 -0.271698
vn -0.447365 -0.872104 0.198239
vn -0.447365 -0.872104 0.198239
vn -0.414429 0.449545 -0.791302
vn -0.408248 -0.816497 0.408248
vn -0.408248 -0.816497 0.408248
vn -0.402923 0.00181502 0.915232
vn -0.335514 -0.677031 0.655027
vn -0.335514 -0.677031 0.655027
vn -0.303149 0.854367 0.422086
vn -0.297621 0.769261 -0.565385
vn -0.207133 0.178018 -0.96198
vn -0.193058 0.66285 0.723435
vn 0 -0.594823 -0.803857
vn 0 -0.566406 0.824126
vn 0 -0.566406 0.824126
vn 0 -0.212172 -0.977232
vn 0 0.816796 0.576926
vn 0 0.825966 -0.56372
vn 0 0.84156 -0.540163
vn 0 0.954515 0.298162
vn 0.193058 0.66285 0.723435
vn 0.208146 0.206464 -0.956059
vn 0.297621 0.769261 -0.565385
vn 0.303149 0.854367 0.422086
vn 0.330311 -0.658372 -0.676344
vn 0.330311 -0.658372 -0.676344
vn 0.405189 0.0164741 0.914084
vn 0.408248 -0.408248 0.816497
vn 0.408248 -0.408248 0.816497
vn 0.414429 0.449545 -0.791302
vn 0.44774 -0.852396 0.270091
vn 0.44774 -0.852396 0.270091
vn 0.452156 -0.882973 -0.12615
vn 0.452156 -0.882973 -0.12615
vn 0.452735 0.785727 0.421503
vn 0.452735 0.785727 0.421503
vn 0.479011 -0.754391 -0.448824
vn 0.555966 0.828514 -0.0668338
vn 0.555966 0.828514 -0.0668338
vn 0.559271 0.738426 -0.376753
vn 0.592089 0.541226 -0.59708
vn 0.600166 0.779757 -0.178269
vn 0.601758 0.3334 -0.725763
vn 0.618464 0.530863 0.579385
vn 0.661793 -0.424627 0.617837
vn 0.666667 -0.666667 -0.333333
vn 0.666667 -0.666667 -0.333333
vn 0.708749 -0.340096 -0.61807
vn 0.708809 0.298139 0.639298
vn 0.708809 0.298139 0.639298
vn 0.711337 0.444253 0.544646
vn 0.711454 -0.500825 -0.492958
vn 0.711454 -0.500825 -0.492958
vn 0.711515 0.0779732 -0.698331
vn 0.711515 0.0779732 -0.698331
vn 0.711551 -0.156565 0.684969
vn 0.711551 -0.156565 0.684969
vn 0.712043 0.485316 -0.507407
vn 0.712478 -0.169534 -0.680907
vn 0.712522 -0.417859 0.563654
vn 0.712669 0.0808727 0.696823
vn 0.712669 0.0808727 0.696823
vn 0.714718 -0.610237 -0.341744
vn 0.800932 -0.5931 0.0821018
vn 0.803343 -0.499028 0.324978
vn 0.803343 -0.499028 0.324978
vn 0.818487 -0.412905 0.399485
vn 0.818487 -0.412905 0.399485
vn 0.832159 -0.540743 0.122917
vn 0.832159 -0.540743 0.122917
vn 0.833069 -0.228376 0.503826
vn 0.884736 -0.251796 0.392225
vn 0.894693 0.42556 -0.135728
vn 0.894693 0.425561 -0.135728
vn 0.897007 0.437242 0.064796
vn 0.8973 -0.390042 -0.206686
vn 0.8973 -0.390042 -0.206686
usemtl 01___Default
s 1
f 3/58/39 2/56/11 1/57/38
f 3/58/39 4/55/55 2/56/11
f 13/64/51 12/68/48 11/71/57
f 13/64/51 14/67/56 12/68/48
f 7/53/42 6/54/44 5/51/4
f 8/52/54 7/53/42 5/51/4
f 10/69/58 129/219/60 9/70/59
f 10/69/58 130/218/61 129/219/60
f 12/68/48 130/218/61 10/69/58
f 12/68/48 132/217/75 130/218/61
f 14/67/56 132/217/75 12/68/48
f 14/67/56 134/216/67 132/217/75
f 15/66/63 134/216/67 14/67/56
f 15/66/63 135/215/64 134/216/67
f 16/65/62 136/214/65 15/66/63
f 136/214/65 135/215/64 15/66/63
f 133/213/72 16/65/62 13/64/51
f 136/214/65 16/65/62 133/213/72
f 131/220/66 13/72/51 11/71/57
f 133/221/72 13/72/51 131/220/66
f 129/219/60 11/71/57 9/70/59
f 131/220/66 11/71/57 129/219/60
f 140/239/68 139/242/89 138/240/108
f 138/240/108 139/242/89 137/241/90
f 132/217/75 133/213/72 131/220/66
f 134/216/67 133/213/72 132/217/75
f 143/255/86 144/254/69 141/253/117
f 142/256/82 143/255/86 141/253/117
f 141/253/117 144/254/69 133/213/72
f 144/254/69 136/214/65 133/213/72
f 144/254/69 143/255/86 135/215/64
f 136/214/65 144/254/69 135/215/64
f 143/255/86 142/256/82 134/216/67
f 135/215/64 143/255/86 134/216/67
f 142/256/82 141/253/117 133/213/72
f 134/216/67 142/256/82 133/213/72
f 137/241/90 139/242/89 129/219/60
f 139/242/89 131/220/66 129/219/60
f 139/242/89 140/239/68 131/220/66
f 140/239/68 132/217/75 131/220/66
f 140/239/68 138/240/108 130/218/61
f 132/217/75 140/239/68 130/218/61
f 138/240/108 137/241/90 129/219/60
f 130/218/61 138/240/108 129/219/60
f 5/51/4 6/54/44 13/64/51
f 6/54/44 14/67/56 13/64/51
f 6/54/44 7/53/42 14/67/56
f 7/53/42 15/66/63 14/67/56
f 7/53/42 8/52/54 15/66/63
f 8/52/54 16/65/62 15/66/63
f 8/52/54 5/51/4 13/64/51
f 16/65/62 8/52/54 13/64/51
f 1/57/38 2/56/11 9/70/59
f 2/56/11 10/69/58 9/70/59
f 2/56/11 4/55/55 10/69/58
f 4/55/55 12/68/48 10/69/58
f 4/55/55 3/58/39 11/71/57
f 12/68/48 4/55/55 11/71/57
f 3/58/39 1/57/38 9/70/59
f 11/71/57 3/58/39 9/70/59
f 108/288/100 107/280/101 102/286/91
f 102/286/91 107/280/101 101/278/74
f 79/28/22 74/18/36 73/26/50
f 79/28/22 80/20/24 74/18/36
f 102/17/91 101/25/74 73/29/50
f 74/21/36 102/17/91 73/29/50
f 107/80/101 79/81/22 101/59/74
f 101/59/74 79/81/22 73/60/50
f 104/275/71 103/283/113 75/285/52
f 76/277/8 104/275/71 75/285/52
f 108/235/100 102/251/91 74/252/36
f 80/236/24 108/235/100 74/252/36
f 110/231/88 109/225/116 108/290/100
f 108/290/100 109/225/116 107/282/101
f 82/133/7 110/132/88 80/236/24
f 110/132/88 108/235/100 80/236/24
f 81/91/41 80/23/24 79/31/22
f 81/91/41 82/89/7 80/23/24
f 109/174/116 81/175/41 107/80/101
f 107/80/101 81/175/41 79/81/22
f 114/199/85 116/187/118 113/195/110
f 116/187/118 115/183/76 113/195/110
f 88/186/45 114/197/85 86/198/29
f 88/186/45 116/185/118 114/197/85
f 87/126/1 86/108/29 85/112/30
f 87/126/1 88/120/45 86/108/29
f 113/110/110 115/124/76 85/111/30
f 115/124/76 87/125/1 85/111/30
f 122/156/87 121/157/114 116/187/118
f 116/187/118 121/157/114 115/183/76
f 94/155/3 122/154/87 88/186/45
f 122/154/87 116/185/118 88/186/45
f 93/152/47 94/153/3 87/126/1
f 94/153/3 88/120/45 87/126/1
f 121/150/114 93/151/47 115/124/76
f 115/124/76 93/151/47 87/125/1
f 127/145/84 128/137/120 125/142/109
f 128/137/120 126/141/79 125/142/109
f 100/136/40 127/143/84 99/144/33
f 100/136/40 128/135/120 127/143/84
f 98/168/6 99/162/33 97/165/35
f 100/170/40 99/162/33 98/168/6
f 125/163/109 126/166/79 97/164/35
f 126/166/79 98/167/6 97/164/35
f 128/137/120 124/130/80 123/131/121
f 126/141/79 128/137/120 123/131/121
f 124/128/80 100/136/40 96/129/15
f 128/135/120 100/136/40 124/128/80
f 100/170/40 98/168/6 95/178/12
f 96/179/15 100/170/40 95/178/12
f 126/166/79 123/176/121 95/177/12
f 98/167/6 126/166/79 95/177/12
f 117/113/93 118/109/94 106/22/106
f 117/113/93 106/22/106 105/30/104
f 118/206/94 90/207/10 78/79/13
f 106/78/106 118/206/94 78/79/13
f 90/196/10 89/194/43 77/281/18
f 78/289/13 90/196/10 77/281/18
f 89/101/43 117/100/93 105/237/104
f 89/101/43 105/237/104 77/238/18
f 105/27/104 106/19/106 103/24/113
f 104/32/71 105/27/104 103/24/113
f 106/78/106 78/79/13 75/62/52
f 103/61/113 106/78/106 75/62/52
f 78/287/13 77/279/18 76/276/8
f 78/287/13 76/276/8 75/284/52
f 77/238/18 105/237/104 104/249/71
f 77/238/18 104/249/71 76/250/8
f 123/131/121 120/116/96 119/119/97
f 123/131/121 124/130/80 120/116/96
f 120/114/96 124/128/80 92/115/28
f 124/128/80 96/129/15 92/115/28
f 92/193/28 95/178/12 91/192/26
f 96/179/15 95/178/12 92/193/28
f 95/177/12 119/190/97 91/191/26
f 95/177/12 123/176/121 119/190/97
f 119/119/97 118/109/94 117/113/93
f 119/119/97 120/116/96 118/109/94
f 118/206/94 120/233/96 90/207/10
f 120/233/96 92/234/28 90/207/10
f 90/196/10 91/192/26 89/194/43
f 92/193/28 91/192/26 90/196/10
f 91/86/26 117/100/93 89/101/43
f 91/86/26 119/85/97 117/100/93
f 114/199/85 113/195/110 112/211/103
f 112/211/103 113/195/110 111/208/105
f 86/198/29 114/197/85 112/209/103
f 86/198/29 112/209/103 84/210/21
f 85/112/30 86/108/29 84/96/21
f 85/112/30 84/96/21 83/99/16
f 113/110/110 85/111/30 83/98/16
f 111/97/105 113/110/110 83/98/16
f 112/211/103 111/208/105 110/231/88
f 110/231/88 111/208/105 109/225/116
f 84/118/21 112/117/103 110/132/88
f 84/118/21 110/132/88 82/133/7
f 83/99/16 84/96/21 82/89/7
f 83/99/16 82/89/7 81/91/41
f 111/188/105 83/189/16 81/175/41
f 109/174/116 111/188/105 81/175/41
f 127/145/84 125/142/109 122/156/87
f 122/156/87 125/142/109 121/157/114
f 99/144/33 127/143/84 122/154/87
f 99/144/33 122/154/87 94/155/3
f 97/165/35 99/162/33 94/153/3
f 97/165/35 94/153/3 93/152/47
f 125/163/109 97/164/35 93/151/47
f 121/150/114 125/163/109 93/151/47
f 52/304/99 51/296/102 46/302/92
f 46/302/92 51/296/102 45/294/73
f 23/13/23 18/3/37 17/11/49
f 23/13/23 24/5/25 18/3/37
f 17/10/49 46/1/92 45/9/73
f 18/2/37 46/1/92 17/10/49
f 51/39/102 23/40/23 45/33/73
f 23/40/23 17/34/49 45/33/73
f 19/300/53 48/291/70 47/299/112
f 20/292/9 48/291/70 19/300/53
f 18/274/37 52/267/99 46/273/92
f 24/268/25 52/267/99 18/274/37
f 54/264/88 53/263/116 52/306/99
f 52/306/99 53/263/116 51/298/102
f 26/107/7 54/106/88 24/268/25
f 24/268/25 54/106/88 52/267/99
f 25/44/41 24/7/25 23/15/23
f 25/44/41 26/43/7 24/7/25
f 53/200/116 25/201/41 51/39/102
f 25/201/41 23/40/23 51/39/102
f 58/248/85 60/224/119 57/244/111
f 60/224/119 59/212/77 57/244/111
f 30/247/29 32/223/45 58/246/85
f 32/223/45 60/222/119 58/246/85
f 31/95/2 30/63/29 29/76/31
f 31/95/2 32/92/45 30/63/29
f 59/93/77 29/75/31 57/74/111
f 59/93/77 31/94/2 29/75/31
f 66/160/87 65/161/115 60/224/119
f 60/224/119 65/161/115 59/212/77
f 38/159/3 66/158/87 32/223/45
f 32/223/45 66/158/87 60/222/119
f 37/148/46 38/149/3 31/95/2
f 38/149/3 32/92/45 31/95/2
f 65/146/115 37/147/46 59/93/77
f 37/147/46 31/94/2 59/93/77
f 71/140/83 72/123/120 69/134/109
f 72/123/120 70/127/78 69/134/109
f 43/139/32 44/122/40 71/138/83
f 44/122/40 72/121/120 71/138/83
f 42/182/5 43/169/32 41/173/34
f 44/184/40 43/169/32 42/182/5
f 70/180/78 41/172/34 69/171/109
f 70/180/78 42/181/5 41/172/34
f 72/123/120 68/104/81 67/105/122
f 70/127/78 72/123/120 67/105/122
f 44/122/40 40/103/14 68/102/81
f 72/121/120 44/122/40 68/102/81
f 44/184/40 42/182/5 39/204/12
f 40/205/14 44/184/40 39/204/12
f 39/203/12 70/180/78 67/202/122
f 42/181/5 70/180/78 39/203/12
f 61/77/93 62/73/95 50/6/107
f 61/77/93 50/6/107 49/14/104
f 62/257/95 34/258/10 22/38/13
f 62/257/95 22/38/13 50/37/107
f 34/245/10 33/243/43 21/297/19
f 22/305/13 34/245/10 21/297/19
f 33/50/43 61/49/93 49/269/104
f 21/270/19 33/50/43 49/269/104
f 49/12/104 50/4/107 47/8/112
f 48/16/70 49/12/104 47/8/112
f 50/37/107 22/38/13 19/36/53
f 50/37/107 19/36/53 47/35/112
f 22/303/13 21/295/19 20/293/9
f 22/303/13 20/293/9 19/301/53
f 21/270/19 49/269/104 48/271/70
f 20/272/9 21/270/19 48/271/70
f 67/105/122 64/84/96 63/90/98
f 67/105/122 68/104/81 64/84/96
f 68/102/81 36/83/27 64/82/96
f 68/102/81 40/103/14 36/83/27
f 36/232/27 39/204/12 35/230/26
f 40/205/14 39/204/12 36/232/27
f 35/229/26 39/203/12 63/228/98
f 39/203/12 67/202/122 63/228/98
f 63/90/98 62/73/95 61/77/93
f 63/90/98 64/84/96 62/73/95
f 64/265/96 34/258/10 62/257/95
f 64/265/96 36/266/27 34/258/10
f 34/245/10 35/230/26 33/243/43
f 36/232/27 35/230/26 34/245/10
f 33/50/43 35/42/26 61/49/93
f 35/42/26 63/41/98 61/49/93
f 58/248/85 57/244/111 56/262/103
f 56/262/103 57/244/111 55/259/105
f 30/247/29 58/246/85 56/260/103
f 28/261/20 30/247/29 56/260/103
f 29/76/31 30/63/29 28/45/20
f 29/76/31 28/45/20 27/48/17
f 57/74/111 29/75/31 27/47/17
f 57/74/111 27/47/17 55/46/105
f 56/262/103 55/259/105 54/264/88
f 54/264/88 55/259/105 53/263/116
f 28/88/20 56/87/103 54/106/88
f 26/107/7 28/88/20 54/106/88
f 27/48/17 28/45/20 26/43/7
f 27/48/17 26/43/7 25/44/41
f 55/226/105 27/227/17 25/201/41
f 55/226/105 25/201/41 53/200/116
f 71/140/83 69/134/109 66/160/87
f 66/160/87 69/134/109 65/161/115
f 43/139/32 71/138/83 66/158/87
f 38/159/3 43/139/32 66/158/87
f 41/173/34 43/169/32 38/149/3
f 41/173/34 38/149/3 37/148/46
f 69/171/109 41/172/34 37/147/46
f 69/171/109 37/147/46 65/146/115
