####
#
#	OBJ File Generated by LightWave3D
#	LightWave3D OBJ Export v2.3
#
####
o pipe_9_lod1.obj
mtllib pipe_9_lod1.mtl
g default
v -1.09 -1.0541 0.0002
v -1.09 -0.8986 0.0002
v -1.0282 -1.0541 0.271
v -1.0282 -1.0541 -0.2705
v -1.0282 -0.8986 0.271
v -1.0282 -0.8986 -0.2705
v -0.9604 -0.9262 0.1101
v -0.9604 -0.9262 0.0004
v -0.9604 -0.9262 -0.1093
v -0.8963 -0.4397 0.1101
v -0.8963 -0.4397 0.0004
v -0.8963 -0.4397 -0.1093
v -0.865 -0.9262 0.3082
v -0.865 -0.9262 -0.3074
v -0.855 -1.0541 0.4881
v -0.855 -1.0541 -0.4877
v -0.855 -0.8986 0.4881
v -0.855 -0.8986 -0.4877
v -0.8042 -0.4644 0.3082
v -0.8042 -0.4644 -0.3074
v -0.7085 0.0137 0.1101
v -0.7085 0.0137 0.0004
v -0.7085 0.0137 -0.1093
v -0.6931 -0.9262 0.4452
v -0.6931 -0.9262 -0.4445
v -0.6381 -0.5088 0.4452
v -0.6381 -0.5088 -0.4445
v -0.6259 -0.034 0.3082
v -0.6259 -0.034 -0.3074
v -0.6048 -1.0541 0.6086
v -0.6048 -1.0541 -0.6082
v -0.6048 -0.8986 0.6086
v -0.6048 -0.8986 -0.6082
v -0.4787 -0.9262 0.4942
v -0.4787 -0.9262 -0.4934
v -0.4771 -0.1199 0.4452
v -0.4771 -0.1199 -0.4445
v -0.4311 -0.5643 0.4942
v -0.4311 -0.5643 -0.4934
v -0.4098 0.403 0.1101
v -0.4098 0.403 0.0004
v -0.4098 0.403 -0.1093
v -0.3423 0.3355 0.3082
v -0.3423 0.3355 -0.3074
v -0.3271 -1.0541 0.6086
v -0.3271 -1.0541 -0.6082
v -0.3271 -0.8986 0.6086
v -0.3271 -0.8986 -0.6082
v -0.2914 -0.2271 0.4942
v -0.2914 -0.2271 -0.4934
v -0.2644 -0.9262 0.4452
v -0.2644 -0.9262 -0.4445
v -0.2241 -0.6198 0.4452
v -0.2241 -0.6198 -0.4445
v -0.2208 0.214 0.4452
v -0.2208 0.214 -0.4445
v -0.1058 -0.3343 0.4452
v -0.1058 -0.3343 -0.4445
v -0.0925 -0.9262 0.3082
v -0.0925 -0.9262 -0.3074
v -0.0769 -1.0541 0.4881
v -0.0769 -1.0541 -0.4877
v -0.0769 -0.8986 0.4881
v -0.0769 -0.8986 -0.4877
v -0.0692 0.0624 0.4942
v -0.0692 0.0624 -0.4934
v -0.058 -0.6643 0.3082
v -0.058 -0.6643 -0.3074
v -0.0205 0.7017 0.1101
v -0.0205 0.7017 0.0004
v -0.0205 0.7017 -0.1093
v 0.0029 -0.9262 0.1101
v 0.0029 -0.9262 0.0004
v 0.0029 -0.9262 -0.1093
v 0.0272 0.6191 0.3082
v 0.0272 0.6191 -0.3074
v 0.0341 -0.689 0.1101
v 0.0341 -0.689 0.0004
v 0.0341 -0.689 -0.1093
v 0.0431 -0.4202 0.3082
v 0.0431 -0.4202 -0.3074
v 0.0823 -0.0891 0.4452
v 0.0823 -0.0891 -0.4445
v 0.0962 -1.0541 0.271
v 0.0962 -1.0541 -0.2705
v 0.0962 -0.8986 0.271
v 0.0962 -0.8986 -0.2705
v 0.1131 0.4703 0.4452
v 0.1131 0.4703 -0.4445
v 0.1257 -0.4679 0.1101
v 0.1257 -0.4679 0.0004
v 0.1257 -0.4679 -0.1093
v 0.158 -1.0541 0.0002
v 0.158 -0.8986 0.0002
v 0.2039 -0.2107 0.3082
v 0.2039 -0.2107 -0.3074
v 0.2203 0.2846 0.4942
v 0.2203 0.2846 -0.4934
v 0.2713 -0.2781 0.1101
v 0.2713 -0.2781 0.0004
v 0.2713 -0.2781 -0.1093
v 0.3275 0.099 0.4452
v 0.3275 0.099 -0.4445
v 0.4134 -0.0499 0.3082
v 0.4134 -0.0499 -0.3074
v 0.4329 0.8895 0.1101
v 0.4329 0.8895 0.0004
v 0.4329 0.8895 -0.1093
v 0.4576 0.7974 0.3082
v 0.4576 0.7974 -0.3074
v 0.4611 -0.1325 0.1101
v 0.4611 -0.1325 0.0004
v 0.4611 -0.1325 -0.1093
v 0.502 0.6313 0.4452
v 0.502 0.6313 -0.4445
v 0.5575 0.4243 0.4942
v 0.5575 0.4243 -0.4934
v 0.613 0.2173 0.4452
v 0.613 0.2173 -0.4445
v 0.6575 0.0512 0.3082
v 0.6575 0.0512 -0.3074
v 0.6822 -0.0409 0.1101
v 0.6822 -0.0409 0.0004
v 0.6822 -0.0409 -0.1093
v 0.898 -0.1611 -0.0002
v 0.898 -0.0993 0.2705
v 0.898 -0.0993 -0.271
v 0.898 0.0738 0.4877
v 0.898 0.0738 -0.4881
v 0.898 0.324 0.6082
v 0.898 0.324 -0.6086
v 0.898 0.6018 0.6082
v 0.898 0.6018 -0.6086
v 0.898 0.852 0.4877
v 0.898 0.852 -0.4881
v 0.898 1.0251 0.2705
v 0.898 1.0251 -0.271
v 0.898 1.0869 -0.0002
v 0.9194 -0.0097 0.1101
v 0.9194 -0.0097 0.0004
v 0.9194 -0.0097 -0.1093
v 0.9194 0.0857 0.3082
v 0.9194 0.0857 -0.3074
v 0.9194 0.2576 0.4452
v 0.9194 0.2576 -0.4445
v 0.9194 0.4719 0.4942
v 0.9194 0.4719 -0.4934
v 0.9194 0.6863 0.4452
v 0.9194 0.6863 -0.4445
v 0.9194 0.8582 0.3082
v 0.9194 0.8582 -0.3074
v 0.9194 0.9536 0.1101
v 0.9194 0.9536 0.0004
v 0.9194 0.9536 -0.1093
v 1.0534 -0.1611 -0.0002
v 1.0534 -0.0993 0.2705
v 1.0534 -0.0993 -0.271
v 1.0534 0.0738 0.4877
v 1.0534 0.0738 -0.4881
v 1.0534 0.324 0.6082
v 1.0534 0.324 -0.6086
v 1.0534 0.6018 0.6082
v 1.0534 0.6018 -0.6086
v 1.0534 0.852 0.4877
v 1.0534 0.852 -0.4881
v 1.0534 1.0251 0.2705
v 1.0534 1.0251 -0.271
v 1.0534 1.0869 -0.0002
vt 0.1144 0.7
vt 0.1144 0.8183
vt 0.1776 0.7
vt 0.1776 0.8183
vt 0.2189 -0.0004
vt 0.2189 0.071
vt 0.2189 0.2138
vt 0.2189 0.3567
vt 0.2189 0.4996
vt 0.2189 0.6424
vt 0.2189 0.7853
vt 0.2189 0.9281
vt 0.2189 0.9995
vt 0.2401 0.7
vt 0.2401 0.8183
vt 0.3014 0.7
vt 0.3014 0.8183
vt 0.3126 -0.0004
vt 0.3126 0.071
vt 0.3126 0.2138
vt 0.3126 0.3567
vt 0.3126 0.4996
vt 0.3126 0.6424
vt 0.3126 0.7853
vt 0.3126 0.9281
vt 0.3126 0.9995
vt 0.3617 0.7
vt 0.3617 0.8183
vt 0.3628 0.4365
vt 0.3628 0.6006
vt 0.3997 0.2888
vt 0.3997 0.7484
vt 0.4062 -0.0004
vt 0.4062 0.071
vt 0.4062 0.2138
vt 0.4062 0.3567
vt 0.4062 0.4996
vt 0.4062 0.6424
vt 0.4062 0.7853
vt 0.4062 0.9281
vt 0.4062 0.9995
vt 0.422 0.7
vt 0.422 0.8183
vt 0.4662 0.1865
vt 0.4662 0.8507
vt 0.4833 0.7
vt 0.4833 0.8183
vt 0.4999 -0.0004
vt 0.4999 0.071
vt 0.4999 0.2138
vt 0.4999 0.3567
vt 0.4999 0.4996
vt 0.4999 0.6424
vt 0.4999 0.7853
vt 0.4999 0.9281
vt 0.4999 0.9995
vt 0.5459 0.7
vt 0.5459 0.8183
vt 0.5491 0.15
vt 0.5491 0.8872
vt 0.5935 -0.0004
vt 0.5935 0.071
vt 0.5935 0.2138
vt 0.5935 0.3567
vt 0.5935 0.4996
vt 0.5935 0.6424
vt 0.5935 0.7853
vt 0.5935 0.9281
vt 0.5935 0.9995
vt 0.6091 0.7
vt 0.6091 0.8183
vt 0.6321 0.1865
vt 0.6321 0.8507
vt 0.6717 0.7
vt 0.6717 0.8183
vt 0.6872 -0.0004
vt 0.6872 0.071
vt 0.6872 0.2138
vt 0.6872 0.3567
vt 0.6872 0.4996
vt 0.6872 0.6424
vt 0.6872 0.7853
vt 0.6872 0.9281
vt 0.6872 0.9995
vt 0.6986 0.2888
vt 0.6986 0.7484
vt 0.733 0.7
vt 0.733 0.8183
vt 0.7355 0.4365
vt 0.7355 0.6006
vt 0.7808 -0.0004
vt 0.7808 0.071
vt 0.7808 0.2138
vt 0.7808 0.3567
vt 0.7808 0.4996
vt 0.7808 0.6424
vt 0.7808 0.7853
vt 0.7808 0.9281
vt 0.7808 0.9995
vt 0.7933 0.7
vt 0.7933 0.8183
vt 0.8536 0.7
vt 0.8536 0.8183
vt 0.9149 0.7
vt 0.9149 0.8183
vt 0.9775 0.7
vt 0.9775 0.8183
vn -0.991431 0.130628 -0
vn -0.97633 0.216287 -0
vn -0.966956 0.127381 0.220841
vn -0.966956 0.127381 -0.220841
vn -0.943776 0.322684 -0.0718452
vn -0.929751 0.293414 0.222423
vn -0.929751 0.293414 -0.222423
vn -0.898384 -0.409043 0.15997
vn -0.887121 0.461536 -0
vn -0.881463 -0.322681 -0.344819
vn -0.862533 -0.0748529 -0.500434
vn -0.862533 0.504542 0.0384084
vn -0.822132 0.524011 0.222513
vn -0.822132 0.524011 -0.222513
vn -0.819102 -0.32269 0.474281
vn -0.806422 0.33262 0.488925
vn -0.756582 0.19634 -0.623726
vn -0.756476 0.196305 0.623866
vn -0.737435 0.675418 -0
vn -0.728646 0.0959558 -0.678135
vn -0.728485 0.0959345 0.678312
vn -0.71502 0.476129 -0.511906
vn -0.715019 -0.206838 0.667807
vn -0.715016 -0.605072 -0.350199
vn -0.680012 0.38554 -0.623653
vn -0.679919 0.385478 0.623792
vn -0.658493 0.718924 0.222567
vn -0.658493 0.718924 -0.222567
vn -0.65105 0.715026 0.254698
vn -0.644494 0.322677 0.693186
vn -0.557061 0.548291 -0.623747
vn -0.556986 0.548208 0.623886
vn -0.537467 0.843285 -0
vn -0.532324 0.322683 -0.782628
vn -0.504545 -0.862533 0.0383679
vn -0.47611 -0.715018 -0.511926
vn -0.449979 0.864891 0.222446
vn -0.449979 0.864891 -0.222446
vn -0.437927 0.86253 -0.253498
vn -0.421113 0.103528 0.901081
vn -0.421078 0.103502 -0.9011
vn -0.396172 0.673793 -0.62374
vn -0.396122 0.673693 0.623879
vn -0.380006 0.209032 0.901055
vn -0.37998 0.208997 -0.901075
vn -0.363706 0.0479066 0.930281
vn -0.363535 0.0478842 -0.930349
vn -0.33255 -0.806408 0.488996
vn -0.322692 -0.644727 0.692963
vn -0.322685 -0.532338 -0.782618
vn -0.322684 0.140017 0.936093
vn -0.322684 0.280034 -0.904133
vn -0.322684 -0.943782 -0.0717696
vn -0.322682 0.881488 -0.344755
vn -0.322673 0.819257 0.474026
vn -0.312994 0.300294 0.901032
vn -0.312978 0.300253 -0.901051
vn -0.300946 0.953641 -0
vn -0.280034 -0.322684 -0.904133
vn -0.224624 0.371063 0.901031
vn -0.224618 0.37102 -0.90105
vn -0.210855 0.951874 0.222434
vn -0.210855 0.951874 -0.222434
vn -0.20829 0.753361 -0.623748
vn -0.208267 0.753252 0.623888
vn -0.149706 0.862533 0.483348
vn -0.140017 -0.322684 0.936093
vn -0.130628 0.991431 -0
vn -0.127402 0.966943 0.220885
vn -0.127402 0.966943 -0.220885
vn -0.120901 0.416457 -0.901081
vn -0.120896 0.4165 0.901061
vn -0.108235 0.821861 -0.559312
vn -0.108227 0.821797 0.559408
vn -0.0874785 0.806415 -0.584844
vn -0.0658062 0.499585 -0.863762
vn -0.0657955 0.499504 0.86381
vn -0.010009 0.0759588 0.997061
vn -0.00998865 0.0758047 -0.997073
vn -0.00968106 -0.00261483 0.99995
vn -0.0096613 -0.00260949 -0.99995
vn -0.0086665 -0.00505506 0.99995
vn -0.0086488 -0.00504476 -0.99995
vn -0.00704808 -0.00713459 0.99995
vn -0.00703368 -0.00712006 -0.99995
vn -0.0049854 -0.00871084 0.99995
vn -0.00497522 -0.00869308 -0.99995
vn -0.00258424 -0.00969236 0.99995
vn -0.00257897 -0.00967259 -0.99995
vn 0.04782 -0.363574 -0.930337
vn 0.0478425 -0.363745 0.930269
vn 0.0748529 -0.862533 -0.500434
vn 0.0758716 -0.00997919 -0.997068
vn 0.0760258 -0.00999948 0.997056
vn 0.0959189 -0.728474 0.678325
vn 0.0959401 -0.728636 -0.678148
vn 0.103517 -0.421057 -0.901108
vn 0.103544 -0.421092 0.901088
vn 0.127235 -0.966976 0.220838
vn 0.127235 -0.966976 -0.220838
vn 0.130411 -0.99146 -0
vn 0.140017 0.322684 0.936093
vn 0.196287 -0.756438 0.623917
vn 0.196322 -0.756544 -0.623778
vn 0.206838 -0.715019 0.667807
vn 0.208981 -0.379951 -0.90109
vn 0.209016 -0.379978 0.901071
vn 0.216168 -0.976356 -0
vn 0.280034 0.322684 -0.904132
vn 0.29337 -0.929764 0.222426
vn 0.29337 -0.929764 -0.222426
vn 0.300183 -0.312896 -0.901103
vn 0.300223 -0.312913 0.901083
vn 0.322673 -0.819257 0.474026
vn 0.322682 -0.881488 -0.344755
vn 0.322684 0.943782 -0.0717696
vn 0.322684 -0.280034 -0.904133
vn 0.322684 -0.140017 0.936093
vn 0.322685 0.532338 -0.782618
vn 0.322692 0.644727 0.692963
vn 0.370936 -0.224567 -0.901097
vn 0.370979 -0.224573 0.901078
vn 0.385393 -0.679859 0.62391
vn 0.385454 -0.679952 -0.623771
vn 0.393193 0.71502 0.578053
vn 0.40903 -0.898389 0.159974
vn 0.416405 -0.120882 -0.901107
vn 0.416448 -0.120876 0.901088
vn 0.437933 0.89839 0.0333025
vn 0.461553 -0.887113 -0
vn 0.476201 0.715028 -0.511828
vn 0.499532 -0.065745 0.863797
vn 0.499613 -0.0657557 -0.863749
vn 0.524008 -0.82216 0.222417
vn 0.524008 -0.82216 -0.222417
vn 0.532394 -0.322692 -0.782577
vn 0.548226 -0.556987 0.62387
vn 0.548309 -0.557061 -0.62373
vn 0.605126 -0.715005 -0.350129
vn 0.644624 -0.322685 0.693062
vn 0.673684 -0.396129 0.623884
vn 0.673784 -0.396179 -0.623745
vn 0.675394 -0.737457 -0
vn 0.715005 0.651098 0.254634
vn 0.71502 -0.476129 -0.511906
vn 0.715028 -0.39323 0.578018
vn 0.718962 -0.658514 0.22238
vn 0.718962 -0.658513 -0.22238
vn 0.753244 -0.208247 0.623904
vn 0.753353 -0.208269 -0.623765
vn 0.806415 0.0874785 -0.584844
vn 0.819195 0.322682 0.474127
vn 0.821799 -0.108196 0.559411
vn 0.821863 -0.108204 -0.559314
vn 0.843306 -0.537434 -0
vn 0.862531 0.437943 -0.253469
vn 0.862533 0.149706 0.483348
vn 0.864894 -0.449975 0.222444
vn 0.864894 -0.449975 -0.222444
vn 0.881497 0.322673 -0.344739
vn 0.898391 -0.437931 0.0333376
vn 0.943776 -0.322684 -0.0718452
vn 0.951889 -0.210782 0.222438
vn 0.951889 -0.210782 -0.222438
vn 0.953648 -0.300925 -0
vn 0.966969 -0.12719 0.220891
vn 0.966969 -0.12719 -0.220891
vn 0.99146 -0.130411 -0
usemtl 01___Default
s 1
f 115/23/71 149/10/76 147/9/79
f 147/9/79 117/22/81 115/23/71
f 110/24/64 151/11/73 149/10/76
f 149/10/76 115/23/71 110/24/64
f 108/25/63 154/12/70 151/11/73
f 151/11/73 110/24/64 108/25/63
f 108/25/63 107/26/58 153/13/68
f 153/13/68 154/12/70 108/25/63
f 121/20/104 143/7/96 141/6/100
f 141/6/100 124/19/111 121/20/104
f 119/21/97 145/8/90 143/7/96
f 143/7/96 121/20/104 119/21/97
f 117/22/81 147/9/79 145/8/90
f 145/8/90 119/21/97 117/22/81
f 89/38/61 115/23/71 117/22/81
f 117/22/81 98/37/83 89/38/61
f 76/39/42 110/24/64 115/23/71
f 115/23/71 89/38/61 76/39/42
f 71/40/38 108/25/63 110/24/64
f 110/24/64 76/39/42 71/40/38
f 71/40/38 70/41/33 107/26/58
f 107/26/58 108/25/63 71/40/38
f 105/35/124 121/20/104 124/19/111
f 124/19/111 113/34/135 105/35/124
f 103/36/106 119/21/97 121/20/104
f 121/20/104 105/35/124 103/36/106
f 98/37/83 117/22/81 119/21/97
f 119/21/97 103/36/106 98/37/83
f 56/53/57 89/38/61 98/37/83
f 98/37/83 66/52/85 56/53/57
f 44/54/31 76/39/42 89/38/61
f 89/38/61 56/53/57 44/54/31
f 42/55/28 71/40/38 76/39/42
f 76/39/42 44/54/31 42/55/28
f 42/55/28 41/56/19 70/41/33
f 70/41/33 71/40/38 42/55/28
f 96/50/138 105/35/124 113/34/135
f 113/34/135 101/49/148 96/50/138
f 83/51/112 103/36/106 105/35/124
f 105/35/124 96/50/138 83/51/112
f 66/52/85 98/37/83 103/36/106
f 103/36/106 83/51/112 66/52/85
f 37/66/45 56/53/57 66/52/85
f 66/52/85 50/65/87 37/66/45
f 29/67/25 44/54/31 56/53/57
f 56/53/57 37/66/45 29/67/25
f 23/68/14 42/55/28 44/54/31
f 44/54/31 29/67/25 23/68/14
f 23/68/14 22/69/9 41/56/19
f 41/56/19 42/55/28 23/68/14
f 81/63/142 96/50/138 101/49/148
f 101/49/148 92/62/159 81/63/142
f 58/64/121 83/51/112 96/50/138
f 96/50/138 81/63/142 58/64/121
f 50/65/87 66/52/85 83/51/112
f 83/51/112 58/64/121 50/65/87
f 27/81/41 37/66/45 50/65/87
f 50/65/87 39/80/89 27/81/41
f 20/82/17 29/67/25 37/66/45
f 37/66/45 27/81/41 20/82/17
f 12/83/7 23/68/14 29/67/25
f 29/67/25 20/82/17 12/83/7
f 12/83/7 11/84/2 22/69/9
f 22/69/9 23/68/14 12/83/7
f 68/78/150 81/63/142 92/62/159
f 92/62/159 79/77/164 68/78/150
f 54/79/127 58/64/121 81/63/142
f 81/63/142 68/78/150 54/79/127
f 39/80/89 50/65/87 58/64/121
f 58/64/121 54/79/127 39/80/89
f 25/96/47 27/81/41 39/80/89
f 39/80/89 35/95/93 25/96/47
f 14/97/20 20/82/17 27/81/41
f 27/81/41 25/96/47 14/97/20
f 9/98/4 12/83/7 20/82/17
f 20/82/17 14/97/20 9/98/4
f 9/98/4 8/99/1 11/84/2
f 11/84/2 12/83/7 9/98/4
f 60/93/154 68/78/150 79/77/164
f 79/77/164 74/92/167 60/93/154
f 52/94/133 54/79/127 68/78/150
f 68/78/150 60/93/154 52/94/133
f 35/95/93 39/80/89 54/79/127
f 54/79/127 52/94/133 35/95/93
f 123/18/108 124/19/111 141/6/100
f 141/6/100 140/5/101 123/18/108
f 112/33/130 113/34/135 124/19/111
f 124/19/111 123/18/108 112/33/130
f 100/48/143 101/49/148 113/34/135
f 113/34/135 112/33/130 100/48/143
f 91/61/155 92/62/159 101/49/148
f 101/49/148 100/48/143 91/61/155
f 78/76/165 79/77/164 92/62/159
f 92/62/159 91/61/155 78/76/165
f 73/91/168 74/92/167 79/77/164
f 79/77/164 78/76/165 73/91/168
f 114/23/72 116/22/80 146/9/78
f 146/9/78 148/10/77 114/23/72
f 109/24/65 114/23/72 148/10/77
f 148/10/77 150/11/74 109/24/65
f 106/25/62 109/24/65 150/11/74
f 150/11/74 152/12/69 106/25/62
f 106/25/62 152/12/69 153/13/68
f 153/13/68 107/26/58 106/25/62
f 120/20/103 122/19/110 139/6/99
f 139/6/99 142/7/95 120/20/103
f 118/21/98 120/20/103 142/7/95
f 142/7/95 144/8/91 118/21/98
f 116/22/80 118/21/98 144/8/91
f 144/8/91 146/9/78 116/22/80
f 88/38/60 97/37/82 116/22/80
f 116/22/80 114/23/72 88/38/60
f 75/39/43 88/38/60 114/23/72
f 114/23/72 109/24/65 75/39/43
f 69/40/37 75/39/43 109/24/65
f 109/24/65 106/25/62 69/40/37
f 69/40/37 106/25/62 107/26/58
f 107/26/58 70/41/33 69/40/37
f 104/35/123 111/34/134 122/19/110
f 122/19/110 120/20/103 104/35/123
f 102/36/107 104/35/123 120/20/103
f 120/20/103 118/21/98 102/36/107
f 97/37/82 102/36/107 118/21/98
f 118/21/98 116/22/80 97/37/82
f 55/53/56 65/52/84 97/37/82
f 97/37/82 88/38/60 55/53/56
f 43/54/32 55/53/56 88/38/60
f 88/38/60 75/39/43 43/54/32
f 40/55/27 43/54/32 75/39/43
f 75/39/43 69/40/37 40/55/27
f 40/55/27 69/40/37 70/41/33
f 70/41/33 41/56/19 40/55/27
f 95/50/137 99/49/147 111/34/134
f 111/34/134 104/35/123 95/50/137
f 82/51/113 95/50/137 104/35/123
f 104/35/123 102/36/107 82/51/113
f 65/52/84 82/51/113 102/36/107
f 102/36/107 97/37/82 65/52/84
f 36/66/44 49/65/86 65/52/84
f 65/52/84 55/53/56 36/66/44
f 28/67/26 36/66/44 55/53/56
f 55/53/56 43/54/32 28/67/26
f 21/68/13 28/67/26 43/54/32
f 43/54/32 40/55/27 21/68/13
f 21/68/13 40/55/27 41/56/19
f 41/56/19 22/69/9 21/68/13
f 80/63/141 90/62/158 99/49/147
f 99/49/147 95/50/137 80/63/141
f 57/64/122 80/63/141 95/50/137
f 95/50/137 82/51/113 57/64/122
f 49/65/86 57/64/122 82/51/113
f 82/51/113 65/52/84 49/65/86
f 26/81/40 38/80/88 49/65/86
f 49/65/86 36/66/44 26/81/40
f 19/82/18 26/81/40 36/66/44
f 36/66/44 28/67/26 19/82/18
f 10/83/6 19/82/18 28/67/26
f 28/67/26 21/68/13 10/83/6
f 10/83/6 21/68/13 22/69/9
f 22/69/9 11/84/2 10/83/6
f 67/78/149 77/77/163 90/62/158
f 90/62/158 80/63/141 67/78/149
f 53/79/128 67/78/149 80/63/141
f 80/63/141 57/64/122 53/79/128
f 38/80/88 53/79/128 57/64/122
f 57/64/122 49/65/86 38/80/88
f 24/96/46 34/95/94 38/80/88
f 38/80/88 26/81/40 24/96/46
f 13/97/21 24/96/46 26/81/40
f 26/81/40 19/82/18 13/97/21
f 7/98/3 13/97/21 19/82/18
f 19/82/18 10/83/6 7/98/3
f 7/98/3 10/83/6 11/84/2
f 11/84/2 8/99/1 7/98/3
f 59/93/153 72/92/166 77/77/163
f 77/77/163 67/78/149 59/93/153
f 51/94/132 59/93/153 67/78/149
f 67/78/149 53/79/128 51/94/132
f 34/95/94 51/94/132 53/79/128
f 53/79/128 38/80/88 34/95/94
f 123/18/108 140/5/101 139/6/99
f 139/6/99 122/19/110 123/18/108
f 112/33/130 123/18/108 122/19/110
f 122/19/110 111/34/134 112/33/130
f 100/48/143 112/33/130 111/34/134
f 111/34/134 99/49/147 100/48/143
f 91/61/155 100/48/143 99/49/147
f 99/49/147 90/62/158 91/61/155
f 78/76/165 91/61/155 90/62/158
f 90/62/158 77/77/163 78/76/165
f 73/91/168 78/76/165 77/77/163
f 77/77/163 72/92/166 73/91/168
f 137/16/54 138/27/12 168/28/116
f 168/28/116 167/17/156 137/16/54
f 135/14/22 137/16/54 167/17/156
f 167/17/156 165/15/119 135/14/22
f 133/3/52 135/14/22 165/15/119
f 165/15/119 163/4/151 133/3/52
f 131/1/11 133/3/52 163/4/151
f 163/4/151 161/2/117 131/1/11
f 129/104/50 131/106/11 161/107/117
f 161/107/117 159/105/145 129/104/50
f 127/102/24 129/104/50 159/105/145
f 159/105/145 157/103/115 127/102/24
f 125/100/53 127/102/24 157/103/115
f 157/103/115 155/101/161 125/100/53
f 126/87/8 125/100/53 155/101/161
f 155/101/161 156/88/114 126/87/8
f 128/74/49 126/87/8 156/88/114
f 156/88/114 158/75/146 128/74/49
f 130/70/23 128/74/49 158/75/146
f 158/75/146 160/71/118 130/70/23
f 132/57/51 130/70/23 160/71/118
f 160/71/118 162/58/157 132/57/51
f 134/46/16 132/57/51 162/58/157
f 162/58/157 164/47/120 134/46/16
f 136/42/55 134/46/16 164/47/120
f 164/47/120 166/43/144 136/42/55
f 138/27/12 136/42/55 166/43/144
f 166/43/144 168/28/116 138/27/12
f 166/72/144 167/44/156 168/59/116
f 135/31/22 138/59/12 137/44/54
f 164/85/120 162/89/157 166/72/144
f 160/90/118 158/86/146 162/89/157
f 156/73/114 155/60/161 158/86/146
f 158/86/146 155/60/161 162/89/157
f 157/45/115 159/32/145 155/60/161
f 161/30/117 163/29/151 159/32/145
f 159/32/145 163/29/151 155/60/161
f 165/31/119 167/44/156 163/29/151
f 163/29/151 167/44/156 155/60/161
f 155/60/161 167/44/156 162/89/157
f 162/89/157 167/44/156 166/72/144
f 133/29/52 131/30/11 135/31/22
f 129/32/50 127/45/24 131/30/11
f 125/60/53 126/73/8 127/45/24
f 127/45/24 126/73/8 131/30/11
f 128/86/49 130/90/23 126/73/8
f 132/89/51 134/85/16 130/90/23
f 130/90/23 134/85/16 126/73/8
f 136/72/55 138/59/12 134/85/16
f 134/85/16 138/59/12 126/73/8
f 126/73/8 138/59/12 131/30/11
f 131/30/11 138/59/12 135/31/22
f 4/16/10 1/27/35 2/28/5
f 2/28/5 6/17/39 4/16/10
f 16/14/36 4/16/10 6/17/39
f 6/17/39 18/15/34 16/14/36
f 31/3/59 16/14/36 18/15/34
f 18/15/34 33/4/75 31/3/59
f 46/1/92 31/3/59 33/4/75
f 33/4/75 48/2/109 46/1/92
f 62/104/136 46/106/92 48/107/109
f 48/107/109 64/105/131 62/104/136
f 85/102/139 62/104/136 64/105/131
f 64/105/131 87/103/160 85/102/139
f 93/100/162 85/102/139 87/103/160
f 87/103/160 94/101/129 93/100/162
f 84/87/126 93/100/162 94/101/129
f 94/101/129 86/88/152 84/87/126
f 61/74/140 84/87/126 86/88/152
f 86/88/152 63/75/125 61/74/140
f 45/70/105 61/74/140 63/75/125
f 63/75/125 47/71/102 45/70/105
f 30/57/67 45/70/105 47/71/102
f 47/71/102 32/58/66 30/57/67
f 15/46/48 30/57/67 32/58/66
f 32/58/66 17/47/30 15/46/48
f 3/42/15 15/46/48 17/47/30
f 17/47/30 5/43/29 3/42/15
f 1/27/35 3/42/15 5/43/29
f 5/43/29 2/28/5 1/27/35
f 5/72/29 6/44/39 2/59/5
f 16/31/36 1/59/35 4/44/10
f 17/85/30 32/89/66 5/72/29
f 47/90/102 63/86/125 32/89/66
f 86/73/152 94/60/129 63/86/125
f 63/86/125 94/60/129 32/89/66
f 87/45/160 64/32/131 94/60/129
f 48/30/109 33/29/75 64/32/131
f 64/32/131 33/29/75 94/60/129
f 18/31/34 6/44/39 33/29/75
f 33/29/75 6/44/39 94/60/129
f 94/60/129 6/44/39 32/89/66
f 32/89/66 6/44/39 5/72/29
f 31/29/59 46/30/92 16/31/36
f 62/32/136 85/45/139 46/30/92
f 93/60/162 84/73/126 85/45/139
f 85/45/139 84/73/126 46/30/92
f 61/86/140 45/90/105 84/73/126
f 30/89/67 15/85/48 45/90/105
f 45/90/105 15/85/48 84/73/126
f 3/72/15 1/59/35 15/85/48
f 15/85/48 1/59/35 84/73/126
f 84/73/126 1/59/35 46/30/92
f 46/30/92 1/59/35 16/31/36
