####
#
#	OBJ File Generated by LightWave3D
#	LightWave3D OBJ Export v2.3
#
####
o pipe_2_lod1.obj
mtllib pipe_2_lod1.mtl
g default
v -3.4389 -0.624 0
v -3.4389 -0.5622 0.2708
v -3.4389 -0.5622 -0.2707
v -3.4389 -0.3891 0.4879
v -3.4389 -0.3891 -0.4879
v -3.4389 -0.1389 0.6084
v -3.4389 -0.1389 -0.6084
v -3.4389 0.1388 0.6084
v -3.4389 0.1388 -0.6084
v -3.4389 0.3891 0.4879
v -3.4389 0.3891 -0.4879
v -3.4389 0.5622 0.2708
v -3.4389 0.5622 -0.2707
v -3.4389 0.624 0
v -3.3054 -0.4994 -0.0007
v -3.3054 -0.4331 -0.2486
v -3.3054 -0.433 0.2472
v -3.3054 -0.2519 0.4284
v -3.3054 -0.2519 -0.4298
v -3.3054 -0.0044 0.4947
v -3.3054 -0.0044 -0.4961
v -3.3054 0.2431 -0.4298
v -3.3054 0.2432 0.4284
v -3.3054 0.4243 0.2472
v -3.3054 0.4243 -0.2486
v -3.3054 0.4907 -0.0007
v -3.2834 -0.624 0
v -3.2834 -0.5622 0.2708
v -3.2834 -0.5622 -0.2707
v -3.2834 -0.3891 0.4879
v -3.2834 -0.3891 -0.4879
v -3.2834 -0.1389 0.6084
v -3.2834 -0.1389 -0.6084
v -3.2834 0.1388 0.6084
v -3.2834 0.1388 -0.6084
v -3.2834 0.3891 0.4879
v -3.2834 0.3891 -0.4879
v -3.2834 0.5622 0.2708
v -3.2834 0.5622 -0.2707
v -3.2834 0.624 0
v 3.4717 -0.4994 -0.0007
v 3.4717 -0.4331 -0.2486
v 3.4717 -0.433 0.2472
v 3.4717 -0.2519 0.4284
v 3.4717 -0.2519 -0.4298
v 3.4717 -0.0044 -0.4961
v 3.4717 -0.0043 0.4947
v 3.4717 0.2431 -0.4298
v 3.4717 0.2432 0.4284
v 3.4717 0.4243 0.2472
v 3.4717 0.4243 -0.2486
v 3.4717 0.4907 -0.0007
vn -0.898389 -0.40903 0.159974
vn -0.862533 -0.0748529 -0.500434
vn -0.862533 0.504545 0.0383679
vn -0.80642 0.332534 0.488986
vn -0.715034 0.476171 -0.511848
vn -0.715019 -0.206838 0.667807
vn -0.715005 -0.605126 -0.350129
vn -0.322692 -0.532394 -0.782577
vn -0.322685 -0.644624 0.693062
vn -0.322684 -0.943776 -0.0718452
vn -0.322682 0.819195 0.474127
vn -0.32268 0.13997 0.936102
vn -0.32268 0.279939 -0.904164
vn -0.322673 0.881497 -0.344739
vn -1.31193e-006 0.420983 0.907068
vn 0 -0.99606 -0.0886756
vn 0 -0.996027 0.0890506
vn 0 -0.907206 -0.420686
vn 0 -0.907137 0.420836
vn 0 -0.818235 0.574884
vn 0 -0.818198 -0.574937
vn 0 -0.575197 0.818015
vn 0 -0.575044 -0.818123
vn 0 -0.420934 -0.907091
vn 0 -0.0889391 -0.996037
vn 0 0.0889391 -0.996037
vn 0 0.420934 -0.907091
vn 0 0.575044 -0.818123
vn 0 0.575197 0.818015
vn 0 0.818128 -0.575037
vn 0 0.818235 0.574884
vn 0 0.907099 -0.420917
vn 0 0.907137 0.420836
vn 0 0.996038 0.0889296
vn 0 0.996038 -0.0889296
vn 1.56302e-013 -0.0889375 0.996037
vn 1.56302e-013 0.0889375 0.996037
vn 1.31193e-006 -0.420983 0.907068
vn 0.322673 -0.881497 -0.344739
vn 0.322682 -0.819195 0.474127
vn 0.322684 0.943776 -0.0718452
vn 0.322684 -0.280034 -0.904133
vn 0.322684 -0.140017 0.936093
vn 0.32269 0.644587 0.693093
vn 0.322696 0.53231 -0.782632
vn 0.715016 0.651083 0.254642
vn 0.71502 -0.393193 0.578053
vn 0.715028 -0.476201 -0.511828
vn 0.806411 0.0874497 -0.584854
vn 0.862524 0.437985 -0.25342
vn 0.86253 0.149657 0.483369
vn 0.89839 -0.437933 0.0333025
usemtl 01___Default
s 1
f 48//27 46//25 21//26
f 21//26 22//28 48//27
f 51//30 48//27 22//28
f 22//28 25//32 51//30
f 52//35 51//30 25//32
f 25//32 26//34 52//35
f 42//18 41//17 15//16
f 15//16 16//21 42//18
f 45//23 42//18 16//21
f 16//21 19//24 45//23
f 46//25 45//23 19//24
f 19//24 21//26 46//25
f 23//15 20//36 47//37
f 47//37 49//29 23//15
f 24//31 23//15 49//29
f 49//29 50//33 24//31
f 26//34 24//31 50//33
f 50//33 52//35 26//34
f 17//19 15//16 41//17
f 41//17 43//20 17//19
f 18//22 17//19 43//20
f 43//20 44//38 18//22
f 20//36 18//22 44//38
f 44//38 47//37 20//36
f 40//41 39//50 13//14
f 13//14 14//3 40//41
f 39//50 37//45 11//5
f 11//5 13//14 39//50
f 37//45 35//49 9//13
f 9//13 11//5 37//45
f 35//49 33//42 7//2
f 7//2 9//13 35//49
f 33//42 31//48 5//8
f 5//8 7//2 33//42
f 31//48 29//39 3//7
f 3//7 5//8 31//48
f 29//39 27//52 1//10
f 1//10 3//7 29//39
f 27//52 28//40 2//1
f 2//1 1//10 27//52
f 28//40 30//47 4//9
f 4//9 2//1 28//40
f 30//47 32//43 6//6
f 6//6 4//9 30//47
f 32//43 34//51 8//12
f 8//12 6//6 32//43
f 34//51 36//44 10//4
f 10//4 8//12 34//51
f 36//44 38//46 12//11
f 12//11 10//4 36//44
f 38//46 40//41 14//3
f 14//3 12//11 38//46
f 40//41 38//46 39//50
f 13//14 11//5 14//3
f 38//46 36//44 34//51
f 34//51 32//43 30//47
f 30//47 28//40 27//52
f 34//51 30//47 27//52
f 27//52 29//39 31//48
f 31//48 33//42 35//49
f 27//52 31//48 35//49
f 35//49 37//45 39//50
f 27//52 35//49 39//50
f 34//51 27//52 39//50
f 38//46 34//51 39//50
f 11//5 9//13 7//2
f 7//2 5//8 3//7
f 3//7 1//10 2//1
f 7//2 3//7 2//1
f 2//1 4//9 6//6
f 6//6 8//12 10//4
f 2//1 6//6 10//4
f 10//4 12//11 14//3
f 2//1 10//4 14//3
f 7//2 2//1 14//3
f 11//5 7//2 14//3
