####
#
#	OBJ File Generated by LightWave3D
#	LightWave3D OBJ Export v2.3
#
####
o pipe_7.obj
mtllib pipe_7.mtl
g default
v -0.624 0.6914 0
v -0.624 0.8468 0
v -0.612 0.6586 0.0238
v -0.612 0.6586 -0.0222
v -0.612 0.8834 0.0238
v -0.612 0.8834 -0.0222
v -0.5722 0.6586 0.0468
v -0.5722 0.8834 0.0468
v -0.5721 0.6586 -0.0451
v -0.5721 0.8834 -0.0451
v -0.5622 0.6914 0.2708
v -0.5622 0.6914 -0.2707
v -0.5622 0.8468 0.2708
v -0.5622 0.8468 -0.2707
v -0.5429 0.6586 -0.2822
v -0.5429 0.8834 -0.2822
v -0.5364 0.6586 0.2915
v -0.5364 0.8834 0.2915
v -0.5323 0.6586 0.0238
v -0.5323 0.6586 -0.0221
v -0.5323 0.8834 0.0238
v -0.5323 0.8834 -0.0221
v -0.5253 0.6586 -0.2397
v -0.5253 0.8834 -0.2397
v -0.5191 0.6586 0.2489
v -0.5191 0.8834 0.2489
v -0.5149 0.6586 -0.3187
v -0.5149 0.8834 -0.3187
v -0.5082 0.6586 0.3278
v -0.5082 0.8834 0.3278
v -0.4797 0.6586 -0.2337
v -0.4797 0.8834 -0.2337
v -0.4736 0.6586 0.2426
v -0.4736 0.8834 0.2426
v -0.4693 0.6586 -0.3127
v -0.4693 0.8834 -0.3127
v -0.4626 0.6586 0.3215
v -0.4626 0.8834 0.3215
v -0.4517 0.6586 -0.2702
v -0.4517 0.8834 -0.2702
v -0.4453 0.6586 0.2789
v -0.4453 0.8834 0.2789
v -0.4452 -0.8834 0.0073
v -0.4452 0.8025 0.0073
v -0.3891 0.6914 0.4879
v -0.3891 0.6914 -0.4879
v -0.3891 0.8468 0.4879
v -0.3891 0.8468 -0.4879
v -0.3866 -0.8834 0.2262
v -0.3866 -0.8834 -0.2115
v -0.3866 0.8025 0.2262
v -0.3866 0.8025 -0.2115
v -0.342 0.6586 0.4547
v -0.342 0.8834 0.4547
v -0.3389 0.6586 0.5006
v -0.3389 0.8834 0.5006
v -0.3362 0.6586 -0.4609
v -0.3362 0.8834 -0.4609
v -0.3327 0.6586 -0.5068
v -0.3327 0.8834 -0.5068
v -0.3038 0.6586 0.4291
v -0.3038 0.8834 0.4291
v -0.2982 0.6586 -0.435
v -0.2982 0.8834 -0.435
v -0.2976 0.6586 0.5209
v -0.2976 0.8834 0.5209
v -0.2912 0.6586 -0.5267
v -0.2912 0.8834 -0.5267
v -0.2625 0.6586 0.4494
v -0.2625 0.8834 0.4494
v -0.2595 0.6586 0.4952
v -0.2595 0.8834 0.4952
v -0.2568 0.6586 -0.4548
v -0.2568 0.8834 -0.4548
v -0.2532 0.6586 -0.5007
v -0.2532 0.8834 -0.5007
v -0.2263 -0.8834 0.3865
v -0.2263 -0.8834 -0.3718
v -0.2263 0.8025 0.3865
v -0.2263 0.8025 -0.3718
v -0.1389 0.6914 0.6084
v -0.1389 0.6914 -0.6084
v -0.1389 0.8468 0.6084
v -0.1389 0.8468 -0.6084
v -0.048 0.6586 0.5601
v -0.048 0.6586 -0.5606
v -0.048 0.8834 0.5601
v -0.048 0.8834 -0.5606
v -0.025 0.6586 0.6
v -0.025 0.6586 0.5203
v -0.025 0.6586 -0.5208
v -0.025 0.6586 -0.6004
v -0.025 0.8834 0.6
v -0.025 0.8834 0.5203
v -0.025 0.8834 -0.5208
v -0.025 0.8834 -0.6004
v -0.0074 -0.8834 0.4451
v -0.0074 -0.8834 -0.4304
v -0.0074 0.8025 0.4451
v -0.0074 0.8025 -0.4304
v 0.021 0.6586 0.6
v 0.021 0.6586 0.5203
v 0.021 0.6586 -0.5208
v 0.021 0.6586 -0.6004
v 0.021 0.8834 0.6
v 0.021 0.8834 0.5203
v 0.021 0.8834 -0.5208
v 0.021 0.8834 -0.6004
v 0.044 0.6586 0.5601
v 0.044 0.6586 -0.5606
v 0.044 0.8834 0.5601
v 0.044 0.8834 -0.5606
v 0.1389 0.6914 0.6084
v 0.1389 0.6914 -0.6084
v 0.1389 0.8468 0.6084
v 0.1389 0.8468 -0.6084
v 0.2114 -0.8834 0.3865
v 0.2114 -0.8834 -0.3718
v 0.2114 0.8025 0.3865
v 0.2114 0.8025 -0.3718
v 0.2531 0.6586 -0.5007
v 0.2531 0.8834 -0.5007
v 0.2566 0.6586 -0.4548
v 0.2566 0.8834 -0.4548
v 0.2593 0.6586 0.4952
v 0.2593 0.8834 0.4952
v 0.2624 0.6586 0.4494
v 0.2624 0.8834 0.4494
v 0.291 0.6586 -0.5267
v 0.291 0.8834 -0.5267
v 0.2975 0.6586 0.5209
v 0.2975 0.8834 0.5209
v 0.2981 0.6586 -0.435
v 0.2981 0.8834 -0.435
v 0.3036 0.6586 0.4291
v 0.3036 0.8834 0.4291
v 0.3325 0.6586 -0.5068
v 0.3325 0.8834 -0.5068
v 0.336 0.6586 -0.4609
v 0.336 0.8834 -0.4609
v 0.3387 0.6586 0.5006
v 0.3387 0.8834 0.5006
v 0.3418 0.6586 0.4547
v 0.3418 0.8834 0.4547
v 0.3717 -0.8834 0.2262
v 0.3717 -0.8834 -0.2115
v 0.3717 0.8025 0.2262
v 0.3717 0.8025 -0.2115
v 0.3891 0.6914 0.4879
v 0.3891 0.6914 -0.4879
v 0.3891 0.8468 0.4879
v 0.3891 0.8468 -0.4879
v 0.4303 -0.8834 0.0073
v 0.4303 0.8025 0.0073
v 0.4451 0.6586 0.2789
v 0.4451 0.8834 0.2789
v 0.4515 0.6586 -0.2702
v 0.4515 0.8834 -0.2702
v 0.4625 0.6586 0.3215
v 0.4625 0.8834 0.3215
v 0.4691 0.6586 -0.3127
v 0.4691 0.8834 -0.3127
v 0.4734 0.6586 0.2426
v 0.4734 0.8834 0.2426
v 0.4795 0.6586 -0.2337
v 0.4795 0.8834 -0.2337
v 0.508 0.6586 0.3278
v 0.508 0.8834 0.3278
v 0.5147 0.6586 -0.3187
v 0.5147 0.8834 -0.3187
v 0.5189 0.6586 0.2489
v 0.5189 0.8834 0.2489
v 0.5251 0.6586 -0.2397
v 0.5251 0.8834 -0.2397
v 0.5321 0.6586 -0.0221
v 0.5321 0.8834 -0.0221
v 0.5322 0.6586 0.0238
v 0.5322 0.8834 0.0238
v 0.5362 0.6586 0.2915
v 0.5362 0.8834 0.2915
v 0.5427 0.6586 -0.2822
v 0.5427 0.8834 -0.2822
v 0.5622 0.6914 0.2708
v 0.5622 0.6914 -0.2707
v 0.5622 0.8468 0.2708
v 0.5622 0.8468 -0.2707
v 0.5719 0.6586 -0.0451
v 0.5719 0.8834 -0.0451
v 0.572 0.6586 0.0468
v 0.572 0.8834 0.0468
v 0.6118 0.6586 0.0238
v 0.6118 0.6586 -0.0222
v 0.6118 0.8834 0.0238
v 0.6118 0.8834 -0.0222
v 0.624 0.6914 0
v 0.624 0.8468 0
vn -0.996046 0 0.0888442
vn -0.996035 0 -0.0889579
vn -0.943776 0.322684 -0.0718452
vn -0.933996 -0.353765 0.050025
vn -0.933782 0.353537 0.0553482
vn -0.907138 0 0.420832
vn -0.907106 0 -0.420902
vn -0.904756 -0.353433 -0.237701
vn -0.902446 0.353601 -0.246085
vn -0.887652 -0.353537 -0.295102
vn -0.885493 0.353765 -0.301252
vn -0.884345 -0.353689 -0.304692
vn -0.883589 0.35375 -0.306809
vn -0.881497 -0.322673 -0.344739
vn -0.861423 -0.353417 -0.364757
vn -0.857997 0.353581 -0.372588
vn -0.819195 -0.322682 0.474127
vn -0.818153 0 0.575
vn -0.818132 0 -0.57503
vn -0.752282 0.353433 -0.556018
vn -0.7465 -0.353601 -0.563652
vn -0.707625 0.353689 -0.611694
vn -0.705927 -0.35375 -0.613619
vn -0.703674 0.353573 -0.616303
vn -0.699449 -0.353565 -0.621097
vn -0.665016 0.353417 -0.657913
vn -0.660613 -0.749921 -0.0347543
vn -0.660298 0.749983 -0.0391382
vn -0.65832 -0.353581 -0.664526
vn -0.651083 0.715016 0.254642
vn -0.64962 -0.749977 0.124613
vn -0.649484 0.749977 -0.125319
vn -0.649424 -0.750066 0.125099
vn -0.649424 0.750066 -0.125099
vn -0.644624 0.322685 0.693062
vn -0.639454 -0.750118 0.16859
vn -0.638338 0.749916 0.173641
vn -0.627679 -0.749983 0.208673
vn -0.626414 0.749921 0.212657
vn -0.62506 -0.749967 0.216446
vn -0.624912 0.749791 0.217484
vn -0.612704 0.353606 0.706793
vn -0.612176 -0.353522 -0.707292
vn -0.612176 -0.353522 -0.707292
vn -0.612176 0.353522 0.707292
vn -0.609098 -0.749945 0.258035
vn -0.606358 0.750189 0.263717
vn -0.575 0 0.818153
vn -0.575 0 -0.818153
vn -0.532394 0.322692 -0.782577
vn -0.530961 0.750118 0.394213
vn -0.528472 -0.749916 0.397924
vn -0.514924 0.353558 0.780929
vn -0.510064 -0.353585 0.7841
vn -0.504545 -0.862533 0.0383679
vn -0.500153 0.749967 0.432893
vn -0.500035 -0.749791 0.433335
vn -0.497071 0.749857 0.436617
vn -0.494577 -0.750013 0.439175
vn -0.476201 -0.715028 -0.511828
vn -0.469957 0.749945 0.465536
vn -0.464698 -0.750189 0.470396
vn -0.437985 0.862524 -0.25342
vn -0.424577 -0.353573 -0.833499
vn -0.420832 0 0.907138
vn -0.420832 0 -0.907138
vn -0.418911 0.353565 -0.836364
vn -0.364104 0.750005 -0.552197
vn -0.359998 -0.749919 -0.554999
vn -0.332589 -0.806416 0.488956
vn -0.306352 -0.353606 0.883805
vn -0.306088 0.353522 -0.88393
vn -0.306088 -0.353522 0.88393
vn -0.306088 0.353522 -0.88393
vn -0.299958 -0.749857 0.589694
vn -0.29621 0.750013 0.591389
vn -0.280034 -0.322684 -0.904133
vn -0.245551 -0.353337 0.902695
vn -0.238592 0.35377 0.90439
vn -0.188277 -0.353558 0.916269
vn -0.182445 0.353585 0.917437
vn -0.177223 -0.353532 0.918481
vn -0.176931 0.353615 0.918505
vn -0.174777 -0.750098 -0.637813
vn -0.168074 0.750005 -0.639721
vn -0.149706 0.862533 0.483348
vn -0.140017 -0.322684 0.936093
vn -0.133132 -0.750005 -0.647896
vn -0.128572 0.749919 -0.648915
vn -0.125702 -0.749825 -0.649586
vn -0.123772 0.749825 -0.649956
vn -0.114284 -0.35379 0.928317
vn -0.104948 0.353359 0.929582
vn -0.0888442 0 0.996046
vn -0.0888442 0 -0.996046
vn -0.0874785 0.806415 -0.584844
vn -0.0818229 -0.750083 -0.656262
vn -0.075018 0.749999 -0.657172
vn 0.0747745 0.750098 -0.657085
vn 0.0748529 -0.862533 -0.500434
vn 0.0813836 -0.750005 -0.656406
vn 0.0889579 0 0.996035
vn 0.0889579 0 -0.996035
vn 0.105898 0.353337 0.929483
vn 0.115244 -0.35377 0.928206
vn 0.123772 0.749825 -0.649956
vn 0.125702 -0.749825 -0.649586
vn 0.128572 0.749919 -0.648915
vn 0.133132 -0.750004 -0.647896
vn 0.140017 0.322684 0.936093
vn 0.167876 0.750083 -0.639682
vn 0.174247 -0.749998 -0.638075
vn 0.176224 0.353532 0.918673
vn 0.176932 -0.353615 0.918505
vn 0.182249 0.353608 0.917467
vn 0.188277 -0.353558 0.916269
vn 0.206838 -0.715019 0.667807
vn 0.216446 -0.749967 -0.62506
vn 0.216446 0.749967 0.62506
vn 0.216446 -0.749967 -0.62506
vn 0.216608 0.750055 0.624898
vn 0.239623 0.35379 0.904109
vn 0.246581 -0.353359 0.902405
vn 0.280034 0.322684 -0.904133
vn 0.29621 0.750013 0.591389
vn 0.300076 -0.750045 0.589396
vn 0.359998 -0.749919 -0.554999
vn 0.364104 0.750004 -0.552197
vn 0.393193 0.71502 0.578053
vn 0.40903 -0.898389 0.159974
vn 0.418911 0.353565 -0.836364
vn 0.420902 0 0.907106
vn 0.420902 0 -0.907106
vn 0.424578 -0.353573 -0.833499
vn 0.432893 -0.749967 0.500153
vn 0.432893 0.749967 -0.500153
vn 0.432893 0.749967 -0.500153
vn 0.433215 -0.750055 0.499741
vn 0.437933 0.89839 0.0333025
vn 0.464923 -0.749937 0.470575
vn 0.470339 0.749867 0.465276
vn 0.476201 0.715028 -0.511828
vn 0.494577 -0.750013 0.439175
vn 0.497501 0.750045 0.435804
vn 0.499741 -0.750055 0.433215
vn 0.500153 0.749967 0.432893
vn 0.509993 -0.353608 0.784135
vn 0.514924 0.353558 0.780929
vn 0.528818 -0.749641 0.397982
vn 0.531397 0.750018 0.393815
vn 0.532394 -0.322692 -0.782577
vn 0.57503 0 0.818132
vn 0.57503 0 -0.818132
vn 0.605126 -0.715005 -0.350129
vn 0.606282 0.749937 0.264607
vn 0.609251 -0.749867 0.257903
vn 0.624898 0.750055 0.216608
vn 0.62506 -0.749967 0.216446
vn 0.626415 0.749921 0.212657
vn 0.627679 -0.749983 0.208673
vn 0.638428 0.749641 0.174492
vn 0.639622 -0.750018 0.168395
vn 0.644624 -0.322685 0.693062
vn 0.65832 -0.353581 -0.664526
vn 0.660298 0.749983 -0.0391382
vn 0.660614 -0.749921 -0.0347545
vn 0.664909 0.353656 -0.657893
vn 0.699449 -0.353565 -0.621097
vn 0.703674 0.353573 -0.616303
vn 0.705927 -0.35375 -0.613619
vn 0.707292 0.353522 -0.612176
vn 0.7465 -0.353601 -0.563652
vn 0.752059 0.353693 -0.556155
vn 0.818132 0 -0.57503
vn 0.818153 0 0.575
vn 0.819195 0.322682 0.474127
vn 0.857997 0.353581 -0.372588
vn 0.861805 -0.353656 -0.36362
vn 0.881497 0.322673 -0.344739
vn 0.883589 0.35375 -0.306809
vn 0.88393 -0.353522 -0.306088
vn 0.885375 0.35361 -0.30178
vn 0.887652 -0.353537 -0.295102
vn 0.902446 0.353601 -0.246085
vn 0.904945 -0.353693 -0.236594
vn 0.907106 0 -0.420902
vn 0.907138 0 0.420832
vn 0.918481 -0.353532 -0.177222
vn 0.918505 -0.353615 -0.176932
vn 0.918505 0.353615 0.176932
vn 0.918673 0.353532 0.176225
vn 0.933782 0.353537 0.0553482
vn 0.934125 -0.35361 0.0486842
vn 0.943776 -0.322684 -0.0718452
vn 0.996035 0 -0.0889579
vn 0.996046 0 0.0888442
usemtl 01___Default
s 1
f 153//195 146//174 148//186
f 148//186 154//196 153//195
f 146//174 118//133 120//153
f 120//153 148//186 146//174
f 118//133 98//95 100//103
f 100//103 120//153 118//133
f 98//95 78//49 80//66
f 80//66 100//103 98//95
f 78//49 50//7 52//19
f 52//19 80//66 78//49
f 50//7 43//1 44//2
f 44//2 52//19 50//7
f 43//1 49//18 51//6
f 51//6 44//2 43//1
f 49//18 77//65 79//48
f 79//48 51//6 49//18
f 77//65 97//102 99//94
f 99//94 79//48 77//65
f 97//102 117//152 119//132
f 119//132 99//94 97//102
f 117//152 145//187 147//175
f 147//175 119//132 117//152
f 145//187 153//195 154//196
f 154//196 147//175 145//187
f 108//136 96//74 88//34
f 107//119 112//190 108//136
f 107//119 108//136 88//34
f 107//119 88//34 95//45
f 92//44 86//33 88//34
f 88//34 96//74 92//44
f 104//118 92//44 96//74
f 96//74 108//136 104//118
f 110//189 104//118 108//136
f 108//136 112//190 110//189
f 103//135 110//189 112//190
f 112//190 107//119 103//135
f 91//73 103//135 107//119
f 107//119 95//45 91//73
f 86//33 91//73 95//45
f 95//45 88//34 86//33
f 104//118 110//189 103//135
f 86//33 92//44 104//118
f 86//33 104//118 103//135
f 86//33 103//135 91//73
f 68//98 60//16 58//51
f 74//155 76//173 68//98
f 74//155 68//98 58//51
f 74//155 58//51 64//104
f 75//185 76//173 74//155
f 74//155 73//140 75//185
f 67//112 68//98 76//173
f 76//173 75//185 67//112
f 59//29 60//16 68//98
f 68//98 67//112 59//29
f 57//36 58//51 60//16
f 60//16 59//29 57//36
f 63//78 64//104 58//51
f 58//51 57//36 63//78
f 73//140 74//155 64//104
f 64//104 63//78 73//140
f 67//112 75//185 73//140
f 57//36 59//29 67//112
f 57//36 67//112 73//140
f 57//36 73//140 63//78
f 28//68 16//5 24//76
f 40//165 36//131 28//68
f 40//165 28//68 24//76
f 40//165 24//76 32//148
f 35//168 36//131 40//165
f 40//165 39//160 35//168
f 27//88 28//68 36//131
f 36//131 35//168 27//88
f 15//10 16//5 28//68
f 28//68 27//88 15//10
f 23//59 24//76 16//5
f 16//5 15//10 23//59
f 31//116 32//148 24//76
f 24//76 23//59 31//116
f 39//160 40//165 32//148
f 32//148 31//116 39//160
f 27//88 35//168 39//160
f 23//59 15//10 27//88
f 23//59 27//88 39//160
f 23//59 39//160 31//116
f 10//91 6//13 5//56
f 21//157 22//171 10//91
f 21//157 10//91 5//56
f 21//157 5//56 8//113
f 20//181 22//171 21//157
f 21//157 19//145 20//181
f 9//107 10//91 22//171
f 22//171 20//181 9//107
f 4//23 6//13 10//91
f 10//91 9//107 4//23
f 3//40 5//56 6//13
f 6//13 4//23 3//40
f 7//82 8//113 5//56
f 5//56 3//40 7//82
f 19//145 21//157 8//113
f 8//113 7//82 19//145
f 9//107 20//181 19//145
f 3//40 4//23 9//107
f 3//40 9//107 19//145
f 3//40 19//145 7//82
f 34//108 26//24 18//39
f 38//144 42//182 34//108
f 38//144 34//108 18//39
f 38//144 18//39 30//81
f 41//193 42//182 38//144
f 38//144 37//126 41//193
f 33//127 34//108 42//182
f 42//182 41//193 33//127
f 25//64 26//24 34//108
f 34//108 33//127 25//64
f 17//27 18//39 26//24
f 26//24 25//64 17//27
f 29//54 30//81 18//39
f 18//39 17//27 29//54
f 37//126 38//144 30//81
f 30//81 29//54 37//126
f 33//127 41//193 37//126
f 17//27 25//64 33//127
f 17//27 33//127 37//126
f 17//27 37//126 29//54
f 72//161 70//167 62//85
f 56//61 66//122 72//161
f 56//61 72//161 62//85
f 56//61 62//85 54//9
f 65//92 66//122 56//61
f 56//61 55//46 65//92
f 71//149 72//161 66//122
f 66//122 65//92 71//149
f 69//178 70//167 72//161
f 72//161 71//149 69//178
f 61//101 62//85 70//167
f 70//167 69//178 61//101
f 53//21 54//9 62//85
f 62//85 61//101 53//21
f 55//46 56//61 54//9
f 54//9 53//21 55//46
f 71//149 65//92 55//46
f 61//101 69//178 71//149
f 61//101 71//149 55//46
f 61//101 55//46 53//21
f 130//99 122//20 124//47
f 140//150 138//177 130//99
f 140//150 130//99 124//47
f 140//150 124//47 134//93
f 121//8 123//62 124//47
f 124//47 122//20 121//8
f 129//84 121//8 122//20
f 122//20 130//99 129//84
f 137//164 129//84 130//99
f 130//99 138//177 137//164
f 139//162 137//164 138//177
f 138//177 140//150 139//162
f 133//123 139//162 140//150
f 140//150 134//93 133//123
f 123//62 133//123 134//93
f 134//93 124//47 123//62
f 129//84 137//164 139//162
f 123//62 121//8 129//84
f 123//62 129//84 139//162
f 123//62 139//162 133//123
f 170//128 162//67 158//28
f 174//125 182//192 170//128
f 174//125 170//128 158//28
f 174//125 158//28 166//53
f 161//25 157//38 158//28
f 158//28 162//67 161//25
f 169//109 161//25 162//67
f 162//67 170//128 169//109
f 181//183 169//109 170//128
f 170//128 182//192 181//183
f 173//143 181//183 182//192
f 182//192 174//125 173//143
f 165//80 173//143 174//125
f 174//125 166//53 165//80
f 157//38 165//80 166//53
f 166//53 158//28 157//38
f 169//109 181//183 173//143
f 157//38 161//25 169//109
f 157//38 169//109 173//143
f 157//38 173//143 165//80
f 188//106 176//22 178//41
f 193//146 194//180 188//106
f 193//146 188//106 178//41
f 193//146 178//41 190//83
f 175//12 177//57 178//41
f 178//41 176//22 175//12
f 187//90 175//12 176//22
f 176//22 188//106 187//90
f 192//170 187//90 188//106
f 188//106 194//180 192//170
f 191//158 192//170 194//180
f 194//180 193//146 191//158
f 189//114 191//158 193//146
f 193//146 190//83 189//114
f 177//57 189//114 190//83
f 190//83 178//41 177//57
f 187//90 192//170 191//158
f 177//57 175//12 187//90
f 177//57 187//90 191//158
f 177//57 191//158 189//114
f 164//89 156//11 160//58
f 180//159 172//169 164//89
f 180//159 164//89 160//58
f 180//159 160//58 168//115
f 155//4 159//75 160//58
f 160//58 156//11 155//4
f 163//69 155//4 156//11
f 156//11 164//89 163//69
f 171//134 163//69 164//89
f 164//89 172//169 171//134
f 179//166 171//134 172//169
f 172//169 180//159 179//166
f 167//147 179//166 180//159
f 180//159 168//115 167//147
f 159//75 167//147 168//115
f 168//115 160//58 159//75
f 163//69 171//134 179//166
f 159//75 155//4 163//69
f 159//75 163//69 179//166
f 159//75 179//166 167//147
f 126//37 132//79 142//141
f 136//111 128//26 126//37
f 136//111 126//37 142//141
f 136//111 142//141 144//184
f 131//105 141//156 142//141
f 142//141 132//79 131//105
f 125//52 131//105 132//79
f 132//79 126//37 125//52
f 127//15 125//52 126//37
f 126//37 128//26 127//15
f 135//97 127//15 128//26
f 128//26 136//111 135//97
f 143//172 135//97 136//111
f 136//111 144//184 143//172
f 141//156 143//172 144//184
f 144//184 142//141 141//156
f 125//52 127//15 135//97
f 141//156 131//105 125//52
f 141//156 125//52 135//97
f 141//156 135//97 143//172
f 106//137 94//72 87//32
f 105//121 111//191 106//137
f 105//121 106//137 87//32
f 105//121 87//32 93//42
f 90//43 85//31 87//32
f 87//32 94//72 90//43
f 102//120 90//43 94//72
f 94//72 106//137 102//120
f 109//188 102//120 106//137
f 106//137 111//191 109//188
f 101//138 109//188 111//191
f 111//191 105//121 101//138
f 89//71 101//138 105//121
f 105//121 93//42 89//71
f 85//31 89//71 93//42
f 93//42 87//32 85//31
f 102//120 109//188 101//138
f 85//31 90//43 102//120
f 85//31 102//120 101//138
f 85//31 101//138 89//71
f 12//14 1//55 2//3
f 2//3 14//63 12//14
f 46//60 12//14 14//63
f 14//63 48//50 46//60
f 82//77 46//60 48//50
f 48//50 84//96 82//77
f 114//100 82//77 84//96
f 84//96 116//124 114//100
f 150//151 114//100 116//124
f 116//124 152//142 150//151
f 184//154 150//151 152//142
f 152//142 186//179 184//154
f 195//194 184//154 186//179
f 186//179 196//139 195//194
f 183//130 195//194 196//139
f 196//139 185//176 183//130
f 149//163 183//130 185//176
f 185//176 151//129 149//163
f 113//117 149//163 151//129
f 151//129 115//110 113//117
f 81//87 113//117 115//110
f 115//110 83//86 81//87
f 45//70 81//87 83//86
f 83//86 47//35 45//70
f 11//17 45//70 47//35
f 47//35 13//30 11//17
f 1//55 11//17 13//30
f 13//30 2//3 1//55
f 13//30 14//63 2//3
f 46//60 1//55 12//14
f 47//35 83//86 13//30
f 115//110 151//129 83//86
f 185//176 196//139 151//129
f 151//129 196//139 83//86
f 186//179 152//142 196//139
f 116//124 84//96 152//142
f 152//142 84//96 196//139
f 48//50 14//63 84//96
f 84//96 14//63 196//139
f 196//139 14//63 83//86
f 83//86 14//63 13//30
f 82//77 114//100 46//60
f 150//151 184//154 114//100
f 195//194 183//130 184//154
f 184//154 183//130 114//100
f 149//163 113//117 183//130
f 81//87 45//70 113//117
f 113//117 45//70 183//130
f 11//17 1//55 45//70
f 45//70 1//55 183//130
f 183//130 1//55 114//100
f 114//100 1//55 46//60
