####
#
#	OBJ File Generated by LightWave3D
#	LightWave3D OBJ Export v2.3
#
####
o pipe_3.obj
mtllib pipe_3.mtl
g default
v -13.1869 -0.6118 0.0238
v -13.1869 -0.6118 -0.0222
v -13.1869 -0.572 0.0468
v -13.1869 -0.572 -0.0451
v -13.1869 -0.5427 -0.2822
v -13.1869 -0.5362 0.2915
v -13.1869 -0.5322 0.0238
v -13.1869 -0.5321 -0.0221
v -13.1869 -0.5251 -0.2397
v -13.1869 -0.5189 0.2489
v -13.1869 -0.5147 -0.3187
v -13.1869 -0.508 0.3278
v -13.1869 -0.4795 -0.2337
v -13.1869 -0.4734 0.2426
v -13.1869 -0.4691 -0.3127
v -13.1869 -0.4625 0.3215
v -13.1869 -0.4515 -0.2702
v -13.1869 -0.4451 0.2789
v -13.1869 -0.3418 0.4547
v -13.1869 -0.3387 0.5006
v -13.1869 -0.336 -0.4609
v -13.1869 -0.3325 -0.5068
v -13.1869 -0.3036 0.4291
v -13.1869 -0.2981 -0.435
v -13.1869 -0.2975 0.5209
v -13.1869 -0.291 -0.5267
v -13.1869 -0.2624 0.4494
v -13.1869 -0.2593 0.4952
v -13.1869 -0.2566 -0.4548
v -13.1869 -0.2531 -0.5007
v -13.1869 -0.044 0.5601
v -13.1869 -0.044 -0.5606
v -13.1869 -0.021 0.6
v -13.1869 -0.021 0.5203
v -13.1869 -0.021 -0.5208
v -13.1869 -0.021 -0.6004
v -13.1869 0.025 0.6
v -13.1869 0.025 0.5203
v -13.1869 0.025 -0.5208
v -13.1869 0.025 -0.6004
v -13.1869 0.048 0.5601
v -13.1869 0.048 -0.5606
v -13.1869 0.2532 -0.5007
v -13.1869 0.2568 -0.4548
v -13.1869 0.2594 0.4952
v -13.1869 0.2625 0.4494
v -13.1869 0.2912 -0.5267
v -13.1869 0.2976 0.5209
v -13.1869 0.2982 -0.435
v -13.1869 0.3038 0.4291
v -13.1869 0.3326 -0.5068
v -13.1869 0.3362 -0.4609
v -13.1869 0.3389 0.5006
v -13.1869 0.342 0.4547
v -13.1869 0.4453 0.2789
v -13.1869 0.4517 -0.2702
v -13.1869 0.4626 0.3215
v -13.1869 0.4693 -0.3127
v -13.1869 0.4735 0.2426
v -13.1869 0.4797 -0.2337
v -13.1869 0.5082 0.3278
v -13.1869 0.5149 -0.3187
v -13.1869 0.5191 0.2489
v -13.1869 0.5252 -0.2397
v -13.1869 0.5323 0.0238
v -13.1869 0.5323 -0.0221
v -13.1869 0.5364 0.2915
v -13.1869 0.5429 -0.2822
v -13.1869 0.5721 -0.0451
v -13.1869 0.5722 0.0468
v -13.1869 0.612 0.0238
v -13.1869 0.612 -0.0222
v -13.1541 -0.624 0
v -13.1541 -0.5622 0.2708
v -13.1541 -0.5622 -0.2707
v -13.1541 -0.3891 0.4879
v -13.1541 -0.3891 -0.4879
v -13.1541 -0.1389 0.6084
v -13.1541 -0.1389 -0.6084
v -13.1541 0.1389 0.6084
v -13.1541 0.1389 -0.6084
v -13.1541 0.3891 0.4879
v -13.1541 0.3891 -0.4879
v -13.1541 0.5622 0.2708
v -13.1541 0.5622 -0.2707
v -13.1541 0.624 0
v -13.031 -0.4994 -0.0005
v -13.031 -0.433 0.2474
v -13.031 -0.433 -0.2485
v -13.031 -0.2519 0.4286
v -13.031 -0.2519 -0.4296
v -13.031 -0.0044 0.4949
v -13.031 -0.0044 -0.496
v -13.031 0.2432 0.4286
v -13.031 0.2432 -0.4296
v -13.031 0.4243 0.2474
v -13.031 0.4243 -0.2485
v -13.031 0.4907 -0.0005
v -12.9986 -0.624 0
v -12.9986 -0.5622 0.2708
v -12.9986 -0.5622 -0.2707
v -12.9986 -0.3891 0.4879
v -12.9986 -0.3891 -0.4879
v -12.9986 -0.1389 0.6084
v -12.9986 -0.1389 -0.6084
v -12.9986 0.1389 0.6084
v -12.9986 0.1389 -0.6084
v -12.9986 0.3891 0.4879
v -12.9986 0.3891 -0.4879
v -12.9986 0.5622 0.2708
v -12.9986 0.5622 -0.2707
v -12.9986 0.624 0
v -12.9621 -0.6118 0.0238
v -12.9621 -0.6118 -0.0222
v -12.9621 -0.572 0.0468
v -12.9621 -0.572 -0.0451
v -12.9621 -0.5427 -0.2822
v -12.9621 -0.5362 0.2915
v -12.9621 -0.5322 0.0238
v -12.9621 -0.5321 -0.0221
v -12.9621 -0.5251 -0.2397
v -12.9621 -0.5189 0.2489
v -12.9621 -0.5147 -0.3187
v -12.9621 -0.508 0.3278
v -12.9621 -0.4795 -0.2337
v -12.9621 -0.4734 0.2426
v -12.9621 -0.4691 -0.3127
v -12.9621 -0.4625 0.3215
v -12.9621 -0.4515 -0.2702
v -12.9621 -0.4451 0.2789
v -12.9621 -0.3418 0.4547
v -12.9621 -0.3387 0.5006
v -12.9621 -0.336 -0.4609
v -12.9621 -0.3325 -0.5068
v -12.9621 -0.3036 0.4291
v -12.9621 -0.2981 -0.435
v -12.9621 -0.2975 0.5209
v -12.9621 -0.291 -0.5267
v -12.9621 -0.2624 0.4494
v -12.9621 -0.2593 0.4952
v -12.9621 -0.2566 -0.4548
v -12.9621 -0.2531 -0.5007
v -12.9621 -0.044 0.5601
v -12.9621 -0.044 -0.5606
v -12.9621 -0.021 0.6
v -12.9621 -0.021 0.5203
v -12.9621 -0.021 -0.5208
v -12.9621 -0.021 -0.6004
v -12.9621 0.025 0.6
v -12.9621 0.025 0.5203
v -12.9621 0.025 -0.5208
v -12.9621 0.025 -0.6004
v -12.9621 0.048 0.5601
v -12.9621 0.048 -0.5606
v -12.9621 0.2532 -0.5007
v -12.9621 0.2568 -0.4548
v -12.9621 0.2594 0.4952
v -12.9621 0.2625 0.4494
v -12.9621 0.2912 -0.5267
v -12.9621 0.2976 0.5209
v -12.9621 0.2982 -0.435
v -12.9621 0.3038 0.4291
v -12.9621 0.3326 -0.5068
v -12.9621 0.3362 -0.4609
v -12.9621 0.3389 0.5006
v -12.9621 0.342 0.4547
v -12.9621 0.4453 0.2789
v -12.9621 0.4517 -0.2702
v -12.9621 0.4626 0.3215
v -12.9621 0.4693 -0.3127
v -12.9621 0.4735 0.2426
v -12.9621 0.4797 -0.2337
v -12.9621 0.5082 0.3278
v -12.9621 0.5149 -0.3187
v -12.9621 0.5191 0.2489
v -12.9621 0.5252 -0.2397
v -12.9621 0.5323 0.0238
v -12.9621 0.5323 -0.0221
v -12.9621 0.5364 0.2915
v -12.9621 0.5429 -0.2822
v -12.9621 0.5721 -0.0451
v -12.9621 0.5722 0.0468
v -12.9621 0.612 0.0238
v -12.9621 0.612 -0.0222
v 13.1869 -0.4994 -0.0005
v 13.1869 -0.433 0.2474
v 13.1869 -0.433 -0.2484
v 13.1869 -0.2519 -0.4296
v 13.1869 -0.2518 0.4286
v 13.1869 -0.0044 -0.496
v 13.1869 -0.0043 0.4949
v 13.1869 0.2432 0.4286
v 13.1869 0.2432 -0.4296
v 13.1869 0.4243 -0.2484
v 13.1869 0.4244 0.2474
v 13.1869 0.4907 -0.0005
vt -0.6424 0.0003
vt -0.6424 0.1652
vt -0.6424 0.3302
vt -0.6424 0.4952
vt -0.6424 0.6601
vt -0.6424 0.8251
vt -0.6424 0.9901
vt 0.1144 0.7
vt 0.1144 0.8183
vt 0.1776 0.7
vt 0.1776 0.8183
vt 0.2401 0.7
vt 0.2401 0.8183
vt 0.3014 0.7
vt 0.3014 0.8183
vt 0.3617 0.7
vt 0.3617 0.8183
vt 0.3628 0.4365
vt 0.3628 0.6006
vt 0.3997 0.2888
vt 0.3997 0.7484
vt 0.422 0.7
vt 0.422 0.8183
vt 0.4662 0.1865
vt 0.4662 0.8507
vt 0.4833 0.7
vt 0.4833 0.8183
vt 0.5459 0.7
vt 0.5459 0.8183
vt 0.5491 0.15
vt 0.5491 0.8872
vt 0.6091 0.7
vt 0.6091 0.8183
vt 0.6321 0.1865
vt 0.6321 0.8507
vt 0.6717 0.7
vt 0.6717 0.8183
vt 0.6986 0.2888
vt 0.6986 0.7484
vt 0.733 0.7
vt 0.733 0.8183
vt 0.7355 0.4365
vt 0.7355 0.6006
vt 0.7933 0.7
vt 0.7933 0.8183
vt 0.8088 0.8963
vt 0.8296 0.8197
vt 0.8296 0.973
vt 0.8536 0.7
vt 0.8536 0.8183
vt 0.8711 0.8197
vt 0.8711 0.973
vt 0.8919 0.8963
vt 0.9149 0.7
vt 0.9149 0.8183
vt 0.9775 0.7
vt 0.9775 0.8183
vt 1.6451 0.0003
vt 1.6451 0.1652
vt 1.6451 0.3302
vt 1.6451 0.4952
vt 1.6451 0.6601
vt 1.6451 0.8251
vt 1.6451 0.9901
vt 1.8671 0.7445
vt 1.8671 0.99
vt 1.884 0.7445
vt 1.884 0.99
vt 1.901 0.7445
vt 1.901 0.99
vt 1.9179 0.7445
vt 1.9179 0.99
vt 1.9349 0.7445
vt 1.9349 0.99
vt 1.9519 0.7445
vt 1.9519 0.99
vt 1.9688 0.7445
vt 1.9688 0.99
vn -0.898389 -0.40903 0.159974
vn -0.862533 -0.0748529 -0.500434
vn -0.862533 0.504545 0.0383679
vn -0.806416 0.332589 0.488956
vn -0.750294 0.63952 0.16755
vn -0.750189 0.464698 0.470396
vn -0.750098 0.174777 -0.637813
vn -0.750083 0.0818229 -0.656262
vn -0.750075 -0.174053 -0.638039
vn -0.750066 0.649424 0.125099
vn -0.750055 -0.499741 0.433215
vn -0.750055 -0.433215 0.499741
vn -0.750045 -0.300076 0.589396
vn -0.750034 -0.360654 -0.554417
vn -0.750018 -0.639622 0.168395
vn -0.750013 -0.494577 0.439175
vn -0.750005 -0.0813836 -0.656406
vn -0.750004 -0.133132 -0.647896
vn -0.750004 0.133132 -0.647896
vn -0.749983 -0.627679 0.208673
vn -0.749983 0.627679 0.208673
vn -0.749977 0.64962 0.124613
vn -0.749967 -0.216446 -0.62506
vn -0.749967 -0.62506 0.216446
vn -0.749967 -0.432893 0.500153
vn -0.749967 -0.216446 -0.62506
vn -0.749967 0.62506 0.216446
vn -0.749945 0.609098 0.258035
vn -0.749937 -0.464923 0.470575
vn -0.749921 0.660613 -0.0347543
vn -0.749921 -0.660614 -0.0347545
vn -0.749919 0.359998 -0.554999
vn -0.749916 0.528472 0.397924
vn -0.749916 -0.528472 0.397924
vn -0.749867 -0.609251 0.257903
vn -0.749857 0.299958 0.589694
vn -0.749827 0.49414 0.439983
vn -0.749825 -0.125702 -0.649586
vn -0.749825 0.124996 -0.649722
vn -0.749791 0.500035 0.433335
vn -0.715028 0.476201 -0.511828
vn -0.715019 -0.206838 0.667807
vn -0.715005 -0.605126 -0.350129
vn -0.353773 0.884221 -0.304956
vn -0.35377 -0.115244 0.928206
vn -0.353765 0.933996 0.050025
vn -0.35375 0.705927 -0.613619
vn -0.353697 0.11461 0.928312
vn -0.353693 -0.904945 -0.236594
vn -0.353691 0.887766 -0.294575
vn -0.353667 -0.706426 -0.613092
vn -0.353615 -0.918505 -0.176932
vn -0.353615 -0.176932 0.918505
vn -0.353608 -0.509993 0.784135
vn -0.353606 0.306352 0.883805
vn -0.353601 0.7465 -0.563652
vn -0.353601 -0.7465 -0.563652
vn -0.353596 0.424396 -0.833581
vn -0.353585 0.510064 0.7841
vn -0.353581 -0.65832 -0.664527
vn -0.353579 -0.18809 0.916299
vn -0.353573 -0.424578 -0.833499
vn -0.353565 -0.699449 -0.621097
vn -0.353565 0.699449 -0.621097
vn -0.353558 0.188277 0.916269
vn -0.353537 -0.887652 -0.295102
vn -0.353532 0.177223 0.918481
vn -0.353532 -0.918481 -0.177222
vn -0.353522 0.612176 -0.707292
vn -0.353522 -0.88393 -0.306088
vn -0.353522 0.306088 0.88393
vn -0.353522 0.612176 -0.707292
vn -0.35349 -0.861297 -0.364982
vn -0.353479 -0.934151 0.0491446
vn -0.353433 0.904756 -0.237701
vn -0.353417 0.861423 -0.364757
vn -0.353359 -0.246581 0.902405
vn -0.353344 0.658418 -0.664555
vn -0.353337 0.245551 0.902695
vn -0.322692 -0.532394 -0.782577
vn -0.322685 -0.644624 0.693062
vn -0.322684 0.140017 0.936093
vn -0.322684 0.280034 -0.904133
vn -0.322684 -0.943776 -0.0718452
vn -0.322682 0.819195 0.474127
vn -0.322673 0.881497 -0.344739
vn -2.19386e-006 0.907153 0.420801
vn -2.19377e-006 0.818181 0.57496
vn -1.26653e-006 0.996046 0.088835
vn -9.27212e-007 0.57512 0.818069
vn -3.39123e-007 0.420983 0.907068
vn 0 -0.996038 0.0889295
vn 0 -0.907137 0.420836
vn 0 -0.421165 -0.906984
vn 0 -0.0891046 -0.996022
vn 0 0.089004 -0.996031
vn 0 0.421184 -0.906975
vn 1.27818e-010 0.088905 0.99604
vn 3.3907e-007 -0.996041 -0.0888956
vn 3.39183e-007 0.99603 -0.0890167
vn 3.39309e-007 -0.0889715 0.996034
vn 9.26777e-007 -0.57522 -0.817999
vn 9.26909e-007 -0.818181 0.57496
vn 9.27044e-007 0.575193 -0.818018
vn 1.26586e-006 -0.907151 -0.420805
vn 1.26588e-006 -0.8182 -0.574934
vn 1.26613e-006 -0.57512 0.818069
vn 1.26625e-006 0.818181 -0.57496
vn 1.26628e-006 0.907113 -0.420886
vn 1.60535e-006 -0.420934 0.907091
vn 0.322673 -0.881497 -0.344739
vn 0.322682 -0.819195 0.474127
vn 0.322684 0.943776 -0.0718452
vn 0.322684 -0.280034 -0.904133
vn 0.322684 -0.140017 0.936093
vn 0.322685 0.644624 0.693062
vn 0.322692 0.532394 -0.782577
vn 0.353337 -0.105898 0.929483
vn 0.353344 0.857602 -0.37372
vn 0.353359 0.104948 0.929582
vn 0.353417 0.665016 -0.657913
vn 0.353433 0.752282 -0.556018
vn 0.353479 -0.885791 -0.300711
vn 0.35349 -0.664545 -0.65835
vn 0.353522 -0.707292 -0.612176
vn 0.353522 0.306088 -0.88393
vn 0.353522 0.612176 0.707292
vn 0.353522 0.306088 -0.88393
vn 0.353532 -0.918673 0.176225
vn 0.353532 -0.176224 0.918673
vn 0.353537 -0.933782 0.0553482
vn 0.353558 0.514924 0.780929
vn 0.353565 0.418911 -0.836364
vn 0.353565 -0.418911 -0.836364
vn 0.353573 -0.703674 -0.616303
vn 0.353579 -0.514856 0.780964
vn 0.353581 -0.857997 -0.372588
vn 0.353585 0.182446 0.917437
vn 0.353596 0.703615 -0.616357
vn 0.353601 -0.902446 -0.246085
vn 0.353601 0.902446 -0.246085
vn 0.353606 0.612704 0.706793
vn 0.353608 -0.182249 0.917467
vn 0.353615 0.176931 0.918505
vn 0.353615 -0.918505 0.176932
vn 0.353667 -0.883713 -0.306546
vn 0.353691 0.933643 0.0566836
vn 0.353693 -0.752059 -0.556155
vn 0.353697 -0.238847 0.904351
vn 0.35375 0.883589 -0.306809
vn 0.353765 0.885493 -0.301252
vn 0.35377 0.238592 0.90439
vn 0.353773 0.707126 -0.612223
vn 0.715016 0.651083 0.254642
vn 0.71502 -0.393193 0.578053
vn 0.715028 -0.476201 -0.511828
vn 0.749791 0.624912 0.217484
vn 0.749825 -0.124477 -0.649822
vn 0.749825 0.123772 -0.649956
vn 0.749827 0.296085 0.591687
vn 0.749857 0.497071 0.436617
vn 0.749867 -0.470339 0.465276
vn 0.749916 -0.638338 0.173641
vn 0.749916 0.638338 0.173641
vn 0.749919 0.128572 -0.648915
vn 0.749921 -0.626415 0.212657
vn 0.749921 0.626414 0.212657
vn 0.749937 -0.606282 0.264607
vn 0.749945 0.469957 0.465536
vn 0.749967 -0.500153 0.432893
vn 0.749967 -0.432893 -0.500153
vn 0.749967 -0.216446 0.62506
vn 0.749967 0.500153 0.432893
vn 0.749967 -0.432893 -0.500153
vn 0.749977 0.649484 -0.125319
vn 0.749983 -0.660298 -0.0391381
vn 0.749983 0.660298 -0.0391381
vn 0.750004 -0.364104 -0.552197
vn 0.750004 0.364104 -0.552197
vn 0.750005 0.168074 -0.639722
vn 0.750013 -0.29621 0.591389
vn 0.750018 -0.531397 0.393815
vn 0.750034 -0.129003 -0.648697
vn 0.750045 -0.497501 0.435804
vn 0.750055 -0.624898 0.216608
vn 0.750055 -0.216608 0.624898
vn 0.750066 0.649424 -0.125099
vn 0.750075 0.07545 -0.657035
vn 0.750083 -0.167876 -0.639682
vn 0.750098 -0.0747745 -0.657085
vn 0.750189 0.606358 0.263717
vn 0.750294 0.531044 0.393766
vn 0.806415 0.0874785 -0.584844
vn 0.862524 0.437985 -0.25342
vn 0.862533 0.149706 0.483348
vn 0.89839 -0.437933 0.0333025
usemtl 01___Default
s 1
f 93/61/96 95/62/104 193/5/97
f 193/5/97 190/4/95 93/61/96
f 95/62/104 97/63/109 194/6/108
f 194/6/108 193/5/97 95/62/104
f 97/63/109 98/64/89 196/7/100
f 196/7/100 194/6/108 97/63/109
f 87/58/99 89/59/106 187/2/105
f 187/2/105 185/1/92 87/58/99
f 89/59/106 91/60/94 188/3/102
f 188/3/102 187/2/105 89/59/106
f 91/60/94 93/61/96 190/4/95
f 190/4/95 188/3/102 91/60/94
f 191/4/98 192/5/90 94/62/91
f 94/62/91 92/61/101 191/4/98
f 192/5/90 195/6/87 96/63/88
f 96/63/88 94/62/91 192/5/90
f 195/6/87 196/7/100 98/64/89
f 98/64/89 96/63/88 195/6/87
f 185/1/92 186/2/103 88/59/93
f 88/59/93 87/58/99 185/1/92
f 186/2/103 189/3/110 90/60/107
f 90/60/107 88/59/93 186/2/103
f 189/3/110 191/4/98 92/61/101
f 92/61/101 90/60/107 189/3/110
f 147/51/172 144/53/145 148/52/171
f 148/52/171 152/48/126 154/46/187
f 147/51/172 148/52/171 154/46/187
f 151/47/127 147/51/172 154/46/187
f 154/75/187 152/77/126 40/78/72
f 40/78/72 42/76/10 154/75/187
f 152/65/126 148/67/171 36/68/26
f 36/68/26 40/66/72 152/65/126
f 148/67/171 144/69/145 32/70/52
f 32/70/52 36/68/26 148/67/171
f 144/69/145 147/71/172 35/72/25
f 35/72/25 32/70/52 144/69/145
f 147/71/172 151/73/127 39/74/71
f 39/74/71 35/72/25 147/71/172
f 151/73/127 154/75/187 42/76/10
f 42/76/10 39/74/71 151/73/127
f 42/53/10 40/52/72 36/48/26
f 36/48/26 32/46/52 35/47/25
f 42/53/10 36/48/26 35/47/25
f 39/51/71 42/53/10 35/47/25
f 156/46/168 155/48/148 159/52/188
f 159/52/188 163/53/119 164/51/192
f 156/46/168 159/52/188 164/51/192
f 161/47/118 156/46/168 164/51/192
f 156/75/168 44/76/29 43/78/49
f 43/78/49 155/77/148 156/75/168
f 155/65/148 43/66/49 47/68/9
f 47/68/9 159/67/188 155/65/148
f 159/67/188 47/68/9 51/70/78
f 51/70/78 163/69/119 159/67/188
f 163/69/119 51/70/78 52/72/5
f 52/72/5 164/71/192 163/69/119
f 164/71/192 52/72/5 49/74/79
f 49/74/79 161/73/118 164/71/192
f 161/73/118 49/74/79 44/76/29
f 44/76/29 156/75/168 161/73/118
f 52/47/5 51/46/78 47/48/9
f 47/48/9 43/52/49 44/53/29
f 52/47/5 47/48/9 44/53/29
f 49/51/79 52/47/5 44/53/29
f 168/46/176 170/48/134 174/52/179
f 174/52/179 180/53/147 176/51/160
f 168/46/176 174/52/179 176/51/160
f 172/47/136 168/46/176 176/51/160
f 168/75/176 56/76/20 58/78/63
f 58/78/63 170/77/134 168/75/176
f 170/65/134 58/66/63 62/68/19
f 62/68/19 174/67/179 170/65/134
f 174/67/179 62/68/19 68/70/50
f 68/70/50 180/69/147 174/67/179
f 180/69/147 68/70/50 64/72/37
f 64/72/37 176/71/160 180/69/147
f 176/71/160 64/72/37 60/74/61
f 60/74/61 172/73/136 176/71/160
f 172/73/136 60/74/61 56/76/20
f 56/76/20 168/75/176 172/73/136
f 64/47/37 68/46/50 62/48/19
f 62/48/19 58/52/63 56/53/20
f 64/47/37 62/48/19 56/53/20
f 60/51/61 64/47/37 56/53/20
f 177/46/185 178/48/125 181/52/159
f 181/52/159 184/53/150 183/51/173
f 177/46/185 181/52/159 183/51/173
f 182/47/130 177/46/185 183/51/173
f 177/75/185 65/76/11 66/78/70
f 66/78/70 178/77/125 177/75/185
f 178/65/125 66/66/70 69/68/38
f 69/68/38 181/67/159 178/65/125
f 181/67/159 69/68/38 72/70/47
f 72/70/47 184/69/150 181/67/159
f 184/69/150 72/70/47 71/72/27
f 71/72/27 183/71/173 184/69/150
f 183/71/173 71/72/27 70/74/67
f 70/74/67 182/73/130 183/71/173
f 182/73/130 70/74/67 65/76/11
f 65/76/11 177/75/185 182/73/130
f 71/47/27 72/46/47 69/48/38
f 69/48/38 66/52/70 65/53/11
f 71/47/27 69/48/38 65/53/11
f 70/51/67 71/47/27 65/53/11
f 169/46/184 167/48/123 171/52/183
f 171/52/183 175/53/139 179/51/167
f 169/46/184 171/52/183 179/51/167
f 173/47/138 169/46/184 179/51/167
f 169/75/184 57/76/13 55/78/74
f 55/78/74 167/77/123 169/75/184
f 167/65/123 55/66/74 59/68/14
f 59/68/14 171/67/183 167/65/123
f 171/67/183 59/68/14 63/70/58
f 63/70/58 175/69/139 171/67/183
f 175/69/139 63/70/58 67/72/30
f 67/72/30 179/71/167 175/69/139
f 179/71/167 67/72/30 61/74/59
f 61/74/59 173/73/138 179/71/167
f 173/73/138 61/74/59 57/76/13
f 57/76/13 169/75/184 173/73/138
f 67/47/30 63/46/58 59/48/14
f 59/48/14 55/52/74 57/53/13
f 67/47/30 59/48/14 57/53/13
f 61/51/59 67/47/30 57/53/13
f 165/46/169 160/48/149 157/52/163
f 157/52/163 158/53/124 162/51/180
f 165/46/169 157/52/163 162/51/180
f 166/47/141 165/46/169 162/51/180
f 165/75/169 53/76/28 48/78/48
f 48/78/48 160/77/149 165/75/169
f 160/65/149 48/66/48 45/68/34
f 45/68/34 157/67/163 160/65/149
f 157/67/163 45/68/34 46/70/73
f 46/70/73 158/69/124 157/67/163
f 158/69/124 46/70/73 50/72/17
f 50/72/17 162/71/180 158/69/124
f 162/71/180 50/72/17 54/74/56
f 54/74/56 166/73/141 162/71/180
f 166/73/141 54/74/56 53/76/28
f 53/76/28 165/75/169 166/73/141
f 50/47/17 46/46/73 45/48/34
f 45/48/34 48/52/48 53/53/28
f 50/47/17 45/48/34 53/53/28
f 54/51/56 50/47/17 53/53/28
f 133/51/182 134/53/137 138/52/190
f 138/52/190 142/48/122 141/46/191
f 133/51/182 138/52/190 141/46/191
f 136/47/120 133/51/182 141/46/191
f 141/75/191 142/77/122 30/78/75
f 30/78/75 29/76/6 141/75/191
f 142/65/122 138/67/190 26/68/7
f 26/68/7 30/66/75 142/65/122
f 138/67/190 134/69/137 22/70/60
f 22/70/60 26/68/7 138/67/190
f 134/69/137 133/71/182 21/72/15
f 21/72/15 22/70/60 134/69/137
f 133/71/182 136/73/120 24/74/77
f 24/74/77 21/72/15 133/71/182
f 136/73/120 141/75/191 29/76/6
f 29/76/6 24/74/77 136/73/120
f 29/53/6 30/52/75 26/48/7
f 26/48/7 22/46/60 21/47/15
f 29/53/6 26/48/7 21/47/15
f 24/51/77 29/53/6 21/47/15
f 121/51/181 117/53/131 123/52/178
f 123/52/178 127/48/133 129/46/177
f 121/51/181 123/52/178 129/46/177
f 125/47/132 121/51/181 129/46/177
f 129/75/177 127/77/133 15/78/64
f 15/78/64 17/76/21 129/75/177
f 127/65/133 123/67/178 11/68/18
f 11/68/18 15/66/64 127/65/133
f 123/67/178 117/69/131 5/70/66
f 5/70/66 11/68/18 123/67/178
f 117/69/131 121/71/181 9/72/16
f 9/72/16 5/70/66 117/69/131
f 121/71/181 125/73/132 13/74/65
f 13/74/65 9/72/16 121/71/181
f 125/73/132 129/75/177 17/76/21
f 17/76/21 13/74/65 125/73/132
f 17/53/21 15/52/64 11/48/18
f 11/48/18 5/46/66 9/47/16
f 17/53/21 11/48/18 9/47/16
f 13/51/65 17/53/21 9/47/16
f 113/51/170 114/53/146 116/52/158
f 116/52/158 120/48/153 119/46/157
f 113/51/170 116/52/158 119/46/157
f 115/47/144 113/51/170 119/46/157
f 119/75/157 120/77/153 8/78/44
f 8/78/44 7/76/40 119/75/157
f 120/65/153 116/67/158 4/68/39
f 4/68/39 8/66/44 120/65/153
f 116/67/158 114/69/146 2/70/51
f 2/70/51 4/68/39 116/67/158
f 114/69/146 113/71/170 1/72/24
f 1/72/24 2/70/51 114/69/146
f 113/71/170 115/73/144 3/74/53
f 3/74/53 1/72/24 113/71/170
f 115/73/144 119/75/157 7/76/40
f 7/76/40 3/74/53 115/73/144
f 7/53/40 8/52/44 4/48/39
f 4/48/39 2/46/51 1/47/24
f 7/53/40 4/48/39 1/47/24
f 3/51/53 7/53/40 1/47/24
f 118/51/166 122/53/135 126/52/165
f 126/52/165 130/48/151 128/46/161
f 118/51/166 126/52/165 128/46/161
f 124/47/143 118/51/166 128/46/161
f 128/75/161 130/77/151 18/78/46
f 18/78/46 16/76/36 128/75/161
f 130/65/151 126/67/165 14/68/32
f 14/68/32 18/66/46 130/65/151
f 126/67/165 122/69/135 10/70/62
f 10/70/62 14/68/32 126/67/165
f 122/69/135 118/71/166 6/72/31
f 6/72/31 10/70/62 122/69/135
f 118/71/166 124/73/143 12/74/54
f 12/74/54 6/72/31 118/71/166
f 124/73/143 128/75/161 16/76/36
f 16/76/36 12/74/54 124/73/143
f 16/53/36 18/52/46 14/48/32
f 14/48/32 10/46/62 6/47/31
f 16/53/36 14/48/32 6/47/31
f 12/51/54 16/53/36 6/47/31
f 135/51/189 139/53/121 140/52/164
f 140/52/164 137/48/152 132/46/162
f 135/51/189 140/52/164 132/46/162
f 131/47/140 135/51/189 132/46/162
f 132/75/162 137/77/152 25/78/45
f 25/78/45 20/76/35 132/75/162
f 137/65/152 140/67/164 28/68/33
f 28/68/33 25/66/45 137/65/152
f 140/67/164 139/69/121 27/70/76
f 27/70/76 28/68/33 140/67/164
f 139/69/121 135/71/189 23/72/8
f 23/72/8 27/70/76 139/69/121
f 135/71/189 131/73/140 19/74/57
f 19/74/57 23/72/8 135/71/189
f 131/73/140 132/75/162 20/76/35
f 20/76/35 19/74/57 131/73/140
f 20/53/35 25/52/45 28/48/33
f 28/48/33 27/46/76 23/47/8
f 20/53/35 28/48/33 23/47/8
f 19/51/57 20/53/35 23/47/8
f 145/51/186 143/53/129 146/52/174
f 146/52/174 150/48/128 153/46/175
f 145/51/186 146/52/174 153/46/175
f 149/47/142 145/51/186 153/46/175
f 153/75/175 150/77/128 38/78/69
f 38/78/69 41/76/22 153/75/175
f 150/65/128 146/67/174 34/68/23
f 34/68/23 38/66/69 150/65/128
f 146/67/174 143/69/129 31/70/68
f 31/70/68 34/68/23 146/67/174
f 143/69/129 145/71/186 33/72/12
f 33/72/12 31/70/68 143/69/129
f 145/71/186 149/73/142 37/74/55
f 37/74/55 33/72/12 145/71/186
f 149/73/142 153/75/175 41/76/22
f 41/76/22 37/74/55 149/73/142
f 41/53/22 38/52/69 34/48/23
f 34/48/23 31/46/68 33/47/12
f 41/53/22 34/48/23 33/47/12
f 37/51/55 41/53/22 33/47/12
f 112/17/113 111/15/194 85/14/86
f 85/14/86 86/16/3 112/17/113
f 111/15/194 109/13/117 83/12/41
f 83/12/41 85/14/86 111/15/194
f 109/13/117 107/11/193 81/10/83
f 81/10/83 83/12/41 109/13/117
f 107/11/193 105/9/114 79/8/2
f 79/8/2 81/10/83 107/11/193
f 105/57/114 103/55/156 77/54/80
f 77/54/80 79/56/2 105/57/114
f 103/55/156 101/50/111 75/49/43
f 75/49/43 77/54/80 103/55/156
f 101/50/111 99/45/196 73/44/84
f 73/44/84 75/49/43 101/50/111
f 99/45/196 100/41/112 74/40/1
f 74/40/1 73/44/84 99/45/196
f 100/41/112 102/37/155 76/36/81
f 76/36/81 74/40/1 100/41/112
f 102/37/155 104/33/115 78/32/42
f 78/32/42 76/36/81 102/37/155
f 104/33/115 106/29/195 80/28/82
f 80/28/82 78/32/42 104/33/115
f 106/29/195 108/27/116 82/26/4
f 82/26/4 80/28/82 106/29/195
f 108/27/116 110/23/154 84/22/85
f 84/22/85 82/26/4 108/27/116
f 110/23/154 112/17/113 86/16/3
f 86/16/3 84/22/85 110/23/154
f 112/30/113 110/34/154 111/24/194
f 85/24/86 83/20/41 86/30/3
f 110/34/154 108/38/116 106/42/195
f 106/42/195 104/43/115 102/39/155
f 102/39/155 100/35/112 99/31/196
f 106/42/195 102/39/155 99/31/196
f 99/31/196 101/25/111 103/21/156
f 103/21/156 105/19/114 107/18/193
f 99/31/196 103/21/156 107/18/193
f 107/18/193 109/20/117 111/24/194
f 99/31/196 107/18/193 111/24/194
f 106/42/195 99/31/196 111/24/194
f 110/34/154 106/42/195 111/24/194
f 83/20/41 81/18/83 79/19/2
f 79/19/2 77/21/80 75/25/43
f 75/25/43 73/31/84 74/35/1
f 79/19/2 75/25/43 74/35/1
f 74/35/1 76/39/81 78/43/42
f 78/43/42 80/42/82 82/38/4
f 74/35/1 78/43/42 82/38/4
f 82/38/4 84/34/85 86/30/3
f 74/35/1 82/38/4 86/30/3
f 79/19/2 74/35/1 86/30/3
f 83/20/41 79/19/2 86/30/3
