####
#
#	OBJ File Generated by LightWave3D
#	LightWave3D OBJ Export v2.3
#
####
o pipe_3_lod1.obj
mtllib pipe_3_lod1.mtl
g default
v -13.1541 -0.624 0
v -13.1541 -0.5622 0.2708
v -13.1541 -0.5622 -0.2707
v -13.1541 -0.3891 0.4879
v -13.1541 -0.3891 -0.4879
v -13.1541 -0.1389 0.6084
v -13.1541 -0.1389 -0.6084
v -13.1541 0.1389 0.6084
v -13.1541 0.1389 -0.6084
v -13.1541 0.3891 0.4879
v -13.1541 0.3891 -0.4879
v -13.1541 0.5622 0.2708
v -13.1541 0.5622 -0.2707
v -13.1541 0.624 0
v -13.031 -0.4994 -0.0005
v -13.031 -0.433 0.2474
v -13.031 -0.433 -0.2485
v -13.031 -0.2519 0.4286
v -13.031 -0.2519 -0.4296
v -13.031 -0.0044 0.4949
v -13.031 -0.0044 -0.496
v -13.031 0.2432 0.4286
v -13.031 0.2432 -0.4296
v -13.031 0.4243 0.2474
v -13.031 0.4243 -0.2485
v -13.031 0.4907 -0.0005
v -12.9986 -0.624 0
v -12.9986 -0.5622 0.2708
v -12.9986 -0.5622 -0.2707
v -12.9986 -0.3891 0.4879
v -12.9986 -0.3891 -0.4879
v -12.9986 -0.1389 0.6084
v -12.9986 -0.1389 -0.6084
v -12.9986 0.1389 0.6084
v -12.9986 0.1389 -0.6084
v -12.9986 0.3891 0.4879
v -12.9986 0.3891 -0.4879
v -12.9986 0.5622 0.2708
v -12.9986 0.5622 -0.2707
v -12.9986 0.624 0
v 13.1869 -0.4994 -0.0005
v 13.1869 -0.433 0.2474
v 13.1869 -0.433 -0.2484
v 13.1869 -0.2519 -0.4296
v 13.1869 -0.2518 0.4286
v 13.1869 -0.0044 -0.496
v 13.1869 -0.0043 0.4949
v 13.1869 0.2432 0.4286
v 13.1869 0.2432 -0.4296
v 13.1869 0.4243 -0.2484
v 13.1869 0.4244 0.2474
v 13.1869 0.4907 -0.0005
vn -0.898389 -0.40903 0.159974
vn -0.862533 -0.0748529 -0.500434
vn -0.862533 0.504545 0.0383679
vn -0.806416 0.332589 0.488956
vn -0.715028 0.476201 -0.511828
vn -0.715019 -0.206838 0.667807
vn -0.715005 -0.605126 -0.350129
vn -0.322692 -0.532394 -0.782577
vn -0.322685 -0.644624 0.693062
vn -0.322684 0.140017 0.936093
vn -0.322684 0.280034 -0.904133
vn -0.322684 -0.943776 -0.0718452
vn -0.322682 0.819195 0.474127
vn -0.322673 0.881497 -0.344739
vn -2.19386e-006 0.907153 0.420801
vn -2.19377e-006 0.818181 0.57496
vn -1.26653e-006 0.996046 0.088835
vn -9.27212e-007 0.57512 0.818069
vn -3.39123e-007 0.420983 0.907068
vn 0 -0.996038 0.0889295
vn 0 -0.907137 0.420836
vn 0 -0.421165 -0.906984
vn 0 -0.0891046 -0.996022
vn 0 0.089004 -0.996031
vn 0 0.421184 -0.906975
vn 1.27818e-010 0.088905 0.99604
vn 3.3907e-007 -0.996041 -0.0888956
vn 3.39183e-007 0.99603 -0.0890167
vn 3.39309e-007 -0.0889715 0.996034
vn 9.26777e-007 -0.57522 -0.817999
vn 9.26909e-007 -0.818181 0.57496
vn 9.27044e-007 0.575193 -0.818018
vn 1.26586e-006 -0.907151 -0.420805
vn 1.26588e-006 -0.8182 -0.574934
vn 1.26613e-006 -0.57512 0.818069
vn 1.26625e-006 0.818181 -0.57496
vn 1.26628e-006 0.907113 -0.420886
vn 1.60535e-006 -0.420934 0.907091
vn 0.322673 -0.881497 -0.344739
vn 0.322682 -0.819195 0.474127
vn 0.322684 0.943776 -0.0718452
vn 0.322684 -0.280034 -0.904133
vn 0.322684 -0.140017 0.936093
vn 0.322685 0.644624 0.693062
vn 0.322692 0.532394 -0.782577
vn 0.715016 0.651083 0.254642
vn 0.71502 -0.393193 0.578053
vn 0.715028 -0.476201 -0.511828
vn 0.806415 0.0874785 -0.584844
vn 0.862524 0.437985 -0.25342
vn 0.862533 0.149706 0.483348
vn 0.89839 -0.437933 0.0333025
usemtl 01___Default
s 1
f 21//24 23//32 49//25
f 49//25 46//23 21//24
f 23//32 25//37 50//36
f 50//36 49//25 23//32
f 25//37 26//17 52//28
f 52//28 50//36 25//37
f 15//27 17//34 43//33
f 43//33 41//20 15//27
f 17//34 19//22 44//30
f 44//30 43//33 17//34
f 19//22 21//24 46//23
f 46//23 44//30 19//22
f 47//26 48//18 22//19
f 22//19 20//29 47//26
f 48//18 51//15 24//16
f 24//16 22//19 48//18
f 51//15 52//28 26//17
f 26//17 24//16 51//15
f 41//20 42//31 16//21
f 16//21 15//27 41//20
f 42//31 45//38 18//35
f 18//35 16//21 42//31
f 45//38 47//26 20//29
f 20//29 18//35 45//38
f 40//41 39//50 13//14
f 13//14 14//3 40//41
f 39//50 37//45 11//5
f 11//5 13//14 39//50
f 37//45 35//49 9//11
f 9//11 11//5 37//45
f 35//49 33//42 7//2
f 7//2 9//11 35//49
f 33//42 31//48 5//8
f 5//8 7//2 33//42
f 31//48 29//39 3//7
f 3//7 5//8 31//48
f 29//39 27//52 1//12
f 1//12 3//7 29//39
f 27//52 28//40 2//1
f 2//1 1//12 27//52
f 28//40 30//47 4//9
f 4//9 2//1 28//40
f 30//47 32//43 6//6
f 6//6 4//9 30//47
f 32//43 34//51 8//10
f 8//10 6//6 32//43
f 34//51 36//44 10//4
f 10//4 8//10 34//51
f 36//44 38//46 12//13
f 12//13 10//4 36//44
f 38//46 40//41 14//3
f 14//3 12//13 38//46
f 40//41 38//46 39//50
f 13//14 11//5 14//3
f 38//46 36//44 34//51
f 34//51 32//43 30//47
f 30//47 28//40 27//52
f 34//51 30//47 27//52
f 27//52 29//39 31//48
f 31//48 33//42 35//49
f 27//52 31//48 35//49
f 35//49 37//45 39//50
f 27//52 35//49 39//50
f 34//51 27//52 39//50
f 38//46 34//51 39//50
f 11//5 9//11 7//2
f 7//2 5//8 3//7
f 3//7 1//12 2//1
f 7//2 3//7 2//1
f 2//1 4//9 6//6
f 6//6 8//10 10//4
f 2//1 6//6 10//4
f 10//4 12//13 14//3
f 2//1 10//4 14//3
f 7//2 2//1 14//3
f 11//5 7//2 14//3
