####
#
#	OBJ File Generated by LightWave3D
#	LightWave3D OBJ Export v2.3
#
####
o pipe_8_lod1.obj
mtllib pipe_8_lod1.mtl
g default
v -0.9604 -0.9262 0.1101
v -0.9604 -0.9262 0.0004
v -0.9604 -0.9262 -0.1093
v -0.8963 -0.4397 0.1101
v -0.8963 -0.4397 0.0004
v -0.8963 -0.4397 -0.1093
v -0.865 -0.9262 0.3082
v -0.865 -0.9262 -0.3074
v -0.8042 -0.4644 0.3082
v -0.8042 -0.4644 -0.3074
v -0.7085 0.0137 0.1101
v -0.7085 0.0137 0.0004
v -0.7085 0.0137 -0.1093
v -0.6931 -0.9262 0.4452
v -0.6931 -0.9262 -0.4445
v -0.6381 -0.5088 0.4452
v -0.6381 -0.5088 -0.4445
v -0.6259 -0.034 0.3082
v -0.6259 -0.034 -0.3074
v -0.4787 -0.9262 0.4942
v -0.4787 -0.9262 -0.4934
v -0.4771 -0.1199 0.4452
v -0.4771 -0.1199 -0.4445
v -0.4311 -0.5643 0.4942
v -0.4311 -0.5643 -0.4934
v -0.4098 0.403 0.1101
v -0.4098 0.403 0.0004
v -0.4098 0.403 -0.1093
v -0.3423 0.3355 0.3082
v -0.3423 0.3355 -0.3074
v -0.2914 -0.2271 0.4942
v -0.2914 -0.2271 -0.4934
v -0.2644 -0.9262 0.4452
v -0.2644 -0.9262 -0.4445
v -0.2241 -0.6198 0.4452
v -0.2241 -0.6198 -0.4445
v -0.2208 0.214 0.4452
v -0.2208 0.214 -0.4445
v -0.1058 -0.3343 0.4452
v -0.1058 -0.3343 -0.4445
v -0.0925 -0.9262 0.3082
v -0.0925 -0.9262 -0.3074
v -0.0692 0.0624 0.4942
v -0.0692 0.0624 -0.4934
v -0.058 -0.6643 0.3082
v -0.058 -0.6643 -0.3074
v -0.0205 0.7017 0.1101
v -0.0205 0.7017 0.0004
v -0.0205 0.7017 -0.1093
v 0.0029 -0.9262 0.1101
v 0.0029 -0.9262 0.0004
v 0.0029 -0.9262 -0.1093
v 0.0272 0.6191 0.3082
v 0.0272 0.6191 -0.3074
v 0.0341 -0.689 0.1101
v 0.0341 -0.689 0.0004
v 0.0341 -0.689 -0.1093
v 0.0431 -0.4202 0.3082
v 0.0431 -0.4202 -0.3074
v 0.0823 -0.0891 0.4452
v 0.0823 -0.0891 -0.4445
v 0.1131 0.4703 0.4452
v 0.1131 0.4703 -0.4445
v 0.1257 -0.4679 0.1101
v 0.1257 -0.4679 0.0004
v 0.1257 -0.4679 -0.1093
v 0.2039 -0.2107 0.3082
v 0.2039 -0.2107 -0.3074
v 0.2203 0.2846 0.4942
v 0.2203 0.2846 -0.4934
v 0.2713 -0.2781 0.1101
v 0.2713 -0.2781 0.0004
v 0.2713 -0.2781 -0.1093
v 0.3275 0.099 0.4452
v 0.3275 0.099 -0.4445
v 0.4134 -0.0499 0.3082
v 0.4134 -0.0499 -0.3074
v 0.4329 0.8895 0.1101
v 0.4329 0.8895 0.0004
v 0.4329 0.8895 -0.1093
v 0.4576 0.7974 0.3082
v 0.4576 0.7974 -0.3074
v 0.4611 -0.1325 0.1101
v 0.4611 -0.1325 0.0004
v 0.4611 -0.1325 -0.1093
v 0.502 0.6313 0.4452
v 0.502 0.6313 -0.4445
v 0.5575 0.4243 0.4942
v 0.5575 0.4243 -0.4934
v 0.613 0.2173 0.4452
v 0.613 0.2173 -0.4445
v 0.6575 0.0512 0.3082
v 0.6575 0.0512 -0.3074
v 0.6822 -0.0409 0.1101
v 0.6822 -0.0409 0.0004
v 0.6822 -0.0409 -0.1093
v 0.898 -0.1611 -0.0002
v 0.898 -0.0993 0.2705
v 0.898 -0.0993 -0.271
v 0.898 0.0738 0.4877
v 0.898 0.0738 -0.4881
v 0.898 0.324 0.6082
v 0.898 0.324 -0.6086
v 0.898 0.6018 0.6082
v 0.898 0.6018 -0.6086
v 0.898 0.852 0.4877
v 0.898 0.852 -0.4881
v 0.898 1.0251 0.2705
v 0.898 1.0251 -0.271
v 0.898 1.0869 -0.0002
v 0.9194 -0.0097 0.1101
v 0.9194 -0.0097 0.0004
v 0.9194 -0.0097 -0.1093
v 0.9194 0.0857 0.3082
v 0.9194 0.0857 -0.3074
v 0.9194 0.2576 0.4452
v 0.9194 0.2576 -0.4445
v 0.9194 0.4719 0.4942
v 0.9194 0.4719 -0.4934
v 0.9194 0.6863 0.4452
v 0.9194 0.6863 -0.4445
v 0.9194 0.8582 0.3082
v 0.9194 0.8582 -0.3074
v 0.9194 0.9536 0.1101
v 0.9194 0.9536 0.0004
v 0.9194 0.9536 -0.1093
v 1.0534 -0.1611 -0.0002
v 1.0534 -0.0993 0.2705
v 1.0534 -0.0993 -0.271
v 1.0534 0.0738 0.4877
v 1.0534 0.0738 -0.4881
v 1.0534 0.324 0.6082
v 1.0534 0.324 -0.6086
v 1.0534 0.6018 0.6082
v 1.0534 0.6018 -0.6086
v 1.0534 0.852 0.4877
v 1.0534 0.852 -0.4881
v 1.0534 1.0251 0.2705
v 1.0534 1.0251 -0.271
v 1.0534 1.0869 -0.0002
vt 0.1144 0.7
vt 0.1144 0.8183
vt 0.1776 0.7
vt 0.1776 0.8183
vt 0.2189 -0.0004
vt 0.2189 0.071
vt 0.2189 0.2138
vt 0.2189 0.3567
vt 0.2189 0.4996
vt 0.2189 0.6424
vt 0.2189 0.7853
vt 0.2189 0.9281
vt 0.2189 0.9995
vt 0.2401 0.7
vt 0.2401 0.8183
vt 0.3014 0.7
vt 0.3014 0.8183
vt 0.3126 -0.0004
vt 0.3126 0.071
vt 0.3126 0.2138
vt 0.3126 0.3567
vt 0.3126 0.4996
vt 0.3126 0.6424
vt 0.3126 0.7853
vt 0.3126 0.9281
vt 0.3126 0.9995
vt 0.3617 0.7
vt 0.3617 0.8183
vt 0.3628 0.4365
vt 0.3628 0.6006
vt 0.3997 0.2888
vt 0.3997 0.7484
vt 0.4062 -0.0004
vt 0.4062 0.071
vt 0.4062 0.2138
vt 0.4062 0.3567
vt 0.4062 0.4996
vt 0.4062 0.6424
vt 0.4062 0.7853
vt 0.4062 0.9281
vt 0.4062 0.9995
vt 0.422 0.7
vt 0.422 0.8183
vt 0.4662 0.1865
vt 0.4662 0.8507
vt 0.4833 0.7
vt 0.4833 0.8183
vt 0.4999 -0.0004
vt 0.4999 0.071
vt 0.4999 0.2138
vt 0.4999 0.3567
vt 0.4999 0.4996
vt 0.4999 0.6424
vt 0.4999 0.7853
vt 0.4999 0.9281
vt 0.4999 0.9995
vt 0.5459 0.7
vt 0.5459 0.8183
vt 0.5491 0.15
vt 0.5491 0.8872
vt 0.5935 -0.0004
vt 0.5935 0.071
vt 0.5935 0.2138
vt 0.5935 0.3567
vt 0.5935 0.4996
vt 0.5935 0.6424
vt 0.5935 0.7853
vt 0.5935 0.9281
vt 0.5935 0.9995
vt 0.6091 0.7
vt 0.6091 0.8183
vt 0.6321 0.1865
vt 0.6321 0.8507
vt 0.6717 0.7
vt 0.6717 0.8183
vt 0.6872 -0.0004
vt 0.6872 0.071
vt 0.6872 0.2138
vt 0.6872 0.3567
vt 0.6872 0.4996
vt 0.6872 0.6424
vt 0.6872 0.7853
vt 0.6872 0.9281
vt 0.6872 0.9995
vt 0.6986 0.2888
vt 0.6986 0.7484
vt 0.733 0.7
vt 0.733 0.8183
vt 0.7355 0.4365
vt 0.7355 0.6006
vt 0.7808 -0.0004
vt 0.7808 0.071
vt 0.7808 0.2138
vt 0.7808 0.3567
vt 0.7808 0.4996
vt 0.7808 0.6424
vt 0.7808 0.7853
vt 0.7808 0.9281
vt 0.7808 0.9995
vt 0.7933 0.7
vt 0.7933 0.8183
vt 0.8536 0.7
vt 0.8536 0.8183
vt 0.9149 0.7
vt 0.9149 0.8183
vt 0.9775 0.7
vt 0.9775 0.8183
vn -0.991431 0.130628 -0
vn -0.97633 0.216287 -0
vn -0.966956 0.127381 0.220841
vn -0.966956 0.127381 -0.220841
vn -0.929751 0.293414 0.222423
vn -0.929751 0.293414 -0.222423
vn -0.898384 -0.409043 0.15997
vn -0.887121 0.461536 -0
vn -0.862533 -0.0748529 -0.500434
vn -0.862533 0.504542 0.0384084
vn -0.822132 0.524011 0.222513
vn -0.822132 0.524011 -0.222513
vn -0.806422 0.33262 0.488925
vn -0.756582 0.19634 -0.623726
vn -0.756476 0.196305 0.623866
vn -0.737435 0.675418 -0
vn -0.728646 0.0959558 -0.678135
vn -0.728485 0.0959345 0.678312
vn -0.71502 0.476129 -0.511906
vn -0.715019 -0.206838 0.667807
vn -0.715016 -0.605072 -0.350199
vn -0.680012 0.38554 -0.623653
vn -0.679919 0.385478 0.623792
vn -0.658493 0.718924 0.222567
vn -0.658493 0.718924 -0.222567
vn -0.557061 0.548291 -0.623747
vn -0.556986 0.548208 0.623886
vn -0.537467 0.843285 -0
vn -0.449979 0.864891 0.222446
vn -0.449979 0.864891 -0.222446
vn -0.421113 0.103528 0.901081
vn -0.421078 0.103502 -0.9011
vn -0.396172 0.673793 -0.62374
vn -0.396122 0.673693 0.623879
vn -0.380006 0.209032 0.901055
vn -0.37998 0.208997 -0.901075
vn -0.363706 0.0479066 0.930281
vn -0.363535 0.0478842 -0.930349
vn -0.322692 -0.644727 0.692963
vn -0.322685 -0.532338 -0.782618
vn -0.322684 0.140017 0.936093
vn -0.322684 0.280034 -0.904133
vn -0.322684 -0.943782 -0.0717696
vn -0.322682 0.881488 -0.344755
vn -0.322673 0.819257 0.474026
vn -0.312994 0.300294 0.901032
vn -0.312978 0.300253 -0.901051
vn -0.300946 0.953641 -0
vn -0.224624 0.371063 0.901031
vn -0.224618 0.37102 -0.90105
vn -0.210855 0.951874 0.222434
vn -0.210855 0.951874 -0.222434
vn -0.20829 0.753361 -0.623748
vn -0.208267 0.753252 0.623888
vn -0.130628 0.991431 -0
vn -0.127402 0.966943 0.220885
vn -0.127402 0.966943 -0.220885
vn -0.120901 0.416457 -0.901081
vn -0.120896 0.4165 0.901061
vn -0.108235 0.821861 -0.559312
vn -0.108227 0.821797 0.559408
vn -0.0658062 0.499585 -0.863762
vn -0.0657955 0.499504 0.86381
vn -0.010009 0.0759588 0.997061
vn -0.00998865 0.0758047 -0.997073
vn -0.00968106 -0.00261483 0.99995
vn -0.0096613 -0.00260949 -0.99995
vn -0.0086665 -0.00505506 0.99995
vn -0.0086488 -0.00504476 -0.99995
vn -0.00704808 -0.00713459 0.99995
vn -0.00703368 -0.00712006 -0.99995
vn -0.0049854 -0.00871084 0.99995
vn -0.00497522 -0.00869308 -0.99995
vn -0.00258424 -0.00969236 0.99995
vn -0.00257897 -0.00967259 -0.99995
vn 0.04782 -0.363574 -0.930337
vn 0.0478425 -0.363745 0.930269
vn 0.0758716 -0.00997919 -0.997068
vn 0.0760258 -0.00999948 0.997056
vn 0.0959189 -0.728474 0.678325
vn 0.0959401 -0.728636 -0.678148
vn 0.103517 -0.421057 -0.901108
vn 0.103544 -0.421092 0.901088
vn 0.127235 -0.966976 0.220838
vn 0.127235 -0.966976 -0.220838
vn 0.130411 -0.99146 -0
vn 0.196287 -0.756438 0.623917
vn 0.196322 -0.756544 -0.623778
vn 0.208981 -0.379951 -0.90109
vn 0.209016 -0.379978 0.901071
vn 0.216168 -0.976356 -0
vn 0.29337 -0.929764 0.222426
vn 0.29337 -0.929764 -0.222426
vn 0.300183 -0.312896 -0.901103
vn 0.300223 -0.312913 0.901083
vn 0.322673 -0.819257 0.474026
vn 0.322682 -0.881488 -0.344755
vn 0.322684 0.943782 -0.0717696
vn 0.322684 -0.280034 -0.904133
vn 0.322684 -0.140017 0.936093
vn 0.322685 0.532338 -0.782618
vn 0.322692 0.644727 0.692963
vn 0.370936 -0.224567 -0.901097
vn 0.370979 -0.224573 0.901078
vn 0.385393 -0.679859 0.62391
vn 0.385454 -0.679952 -0.623771
vn 0.416405 -0.120882 -0.901107
vn 0.416448 -0.120876 0.901088
vn 0.461553 -0.887113 -0
vn 0.499532 -0.065745 0.863797
vn 0.499613 -0.0657557 -0.863749
vn 0.524008 -0.82216 0.222417
vn 0.524008 -0.82216 -0.222417
vn 0.548226 -0.556987 0.62387
vn 0.548309 -0.557061 -0.62373
vn 0.673684 -0.396129 0.623884
vn 0.673784 -0.396179 -0.623745
vn 0.675394 -0.737457 -0
vn 0.715005 0.651098 0.254634
vn 0.71502 -0.476129 -0.511906
vn 0.715028 -0.39323 0.578018
vn 0.718962 -0.658514 0.22238
vn 0.718962 -0.658513 -0.22238
vn 0.753244 -0.208247 0.623904
vn 0.753353 -0.208269 -0.623765
vn 0.806415 0.0874785 -0.584844
vn 0.821799 -0.108196 0.559411
vn 0.821863 -0.108204 -0.559314
vn 0.843306 -0.537434 -0
vn 0.862531 0.437943 -0.253469
vn 0.862533 0.149706 0.483348
vn 0.864894 -0.449975 0.222444
vn 0.864894 -0.449975 -0.222444
vn 0.898391 -0.437931 0.0333376
vn 0.951889 -0.210782 0.222438
vn 0.951889 -0.210782 -0.222438
vn 0.953648 -0.300925 -0
vn 0.966969 -0.12719 0.220891
vn 0.966969 -0.12719 -0.220891
vn 0.99146 -0.130411 -0
usemtl 01___Default
s 1
f 87/23/58 121/10/62 119/9/65
f 119/9/65 89/22/67 87/23/58
f 82/24/53 123/11/60 121/10/62
f 121/10/62 87/23/58 82/24/53
f 80/25/52 126/12/57 123/11/60
f 123/11/60 82/24/53 80/25/52
f 80/25/52 79/26/48 125/13/55
f 125/13/55 126/12/57 80/25/52
f 93/20/88 115/7/81 113/6/85
f 113/6/85 96/19/93 93/20/88
f 91/21/82 117/8/76 115/7/81
f 115/7/81 93/20/88 91/21/82
f 89/22/67 119/9/65 117/8/76
f 117/8/76 91/21/82 89/22/67
f 63/38/50 87/23/58 89/22/67
f 89/22/67 70/37/69 63/38/50
f 54/39/33 82/24/53 87/23/58
f 87/23/58 63/38/50 54/39/33
f 49/40/30 80/25/52 82/24/53
f 82/24/53 54/39/33 49/40/30
f 49/40/30 48/41/28 79/26/48
f 79/26/48 80/25/52 49/40/30
f 77/35/106 93/20/88 96/19/93
f 96/19/93 85/34/113 77/35/106
f 75/36/89 91/21/82 93/20/88
f 93/20/88 77/35/106 75/36/89
f 70/37/69 89/22/67 91/21/82
f 91/21/82 75/36/89 70/37/69
f 38/53/47 63/38/50 70/37/69
f 70/37/69 44/52/71 38/53/47
f 30/54/26 54/39/33 63/38/50
f 63/38/50 38/53/47 30/54/26
f 28/55/25 49/40/30 54/39/33
f 54/39/33 30/54/26 28/55/25
f 28/55/25 27/56/16 48/41/28
f 48/41/28 49/40/30 28/55/25
f 68/50/115 77/35/106 85/34/113
f 85/34/113 73/49/123 68/50/115
f 61/51/94 75/36/89 77/35/106
f 77/35/106 68/50/115 61/51/94
f 44/52/71 70/37/69 75/36/89
f 75/36/89 61/51/94 44/52/71
f 23/66/36 38/53/47 44/52/71
f 44/52/71 32/65/73 23/66/36
f 19/67/22 30/54/26 38/53/47
f 38/53/47 23/66/36 19/67/22
f 13/68/12 28/55/25 30/54/26
f 30/54/26 19/67/22 13/68/12
f 13/68/12 12/69/8 27/56/16
f 27/56/16 28/55/25 13/68/12
f 59/63/117 68/50/115 73/49/123
f 73/49/123 66/62/133 59/63/117
f 40/64/103 61/51/94 68/50/115
f 68/50/115 59/63/117 40/64/103
f 32/65/73 44/52/71 61/51/94
f 61/51/94 40/64/103 32/65/73
f 17/81/32 23/66/36 32/65/73
f 32/65/73 25/80/75 17/81/32
f 10/82/14 19/67/22 23/66/36
f 23/66/36 17/81/32 10/82/14
f 6/83/6 13/68/12 19/67/22
f 19/67/22 10/82/14 6/83/6
f 6/83/6 5/84/2 12/69/8
f 12/69/8 13/68/12 6/83/6
f 46/78/125 59/63/117 66/62/133
f 66/62/133 57/77/136 46/78/125
f 36/79/107 40/64/103 59/63/117
f 59/63/117 46/78/125 36/79/107
f 25/80/75 32/65/73 40/64/103
f 40/64/103 36/79/107 25/80/75
f 15/96/38 17/81/32 25/80/75
f 25/80/75 21/95/78 15/96/38
f 8/97/17 10/82/14 17/81/32
f 17/81/32 15/96/38 8/97/17
f 3/98/4 6/83/6 10/82/14
f 10/82/14 8/97/17 3/98/4
f 3/98/4 2/99/1 5/84/2
f 5/84/2 6/83/6 3/98/4
f 42/93/128 46/78/125 57/77/136
f 57/77/136 52/92/139 42/93/128
f 34/94/111 36/79/107 46/78/125
f 46/78/125 42/93/128 34/94/111
f 21/95/78 25/80/75 36/79/107
f 36/79/107 34/94/111 21/95/78
f 95/18/91 96/19/93 113/6/85
f 113/6/85 112/5/86 95/18/91
f 84/33/109 85/34/113 96/19/93
f 96/19/93 95/18/91 84/33/109
f 72/48/118 73/49/123 85/34/113
f 85/34/113 84/33/109 72/48/118
f 65/61/129 66/62/133 73/49/123
f 73/49/123 72/48/118 65/61/129
f 56/76/137 57/77/136 66/62/133
f 66/62/133 65/61/129 56/76/137
f 51/91/140 52/92/139 57/77/136
f 57/77/136 56/76/137 51/91/140
f 86/23/59 88/22/66 118/9/64
f 118/9/64 120/10/63 86/23/59
f 81/24/54 86/23/59 120/10/63
f 120/10/63 122/11/61 81/24/54
f 78/25/51 81/24/54 122/11/61
f 122/11/61 124/12/56 78/25/51
f 78/25/51 124/12/56 125/13/55
f 125/13/55 79/26/48 78/25/51
f 92/20/87 94/19/92 111/6/84
f 111/6/84 114/7/80 92/20/87
f 90/21/83 92/20/87 114/7/80
f 114/7/80 116/8/77 90/21/83
f 88/22/66 90/21/83 116/8/77
f 116/8/77 118/9/64 88/22/66
f 62/38/49 69/37/68 88/22/66
f 88/22/66 86/23/59 62/38/49
f 53/39/34 62/38/49 86/23/59
f 86/23/59 81/24/54 53/39/34
f 47/40/29 53/39/34 81/24/54
f 81/24/54 78/25/51 47/40/29
f 47/40/29 78/25/51 79/26/48
f 79/26/48 48/41/28 47/40/29
f 76/35/105 83/34/112 94/19/92
f 94/19/92 92/20/87 76/35/105
f 74/36/90 76/35/105 92/20/87
f 92/20/87 90/21/83 74/36/90
f 69/37/68 74/36/90 90/21/83
f 90/21/83 88/22/66 69/37/68
f 37/53/46 43/52/70 69/37/68
f 69/37/68 62/38/49 37/53/46
f 29/54/27 37/53/46 62/38/49
f 62/38/49 53/39/34 29/54/27
f 26/55/24 29/54/27 53/39/34
f 53/39/34 47/40/29 26/55/24
f 26/55/24 47/40/29 48/41/28
f 48/41/28 27/56/16 26/55/24
f 67/50/114 71/49/122 83/34/112
f 83/34/112 76/35/105 67/50/114
f 60/51/95 67/50/114 76/35/105
f 76/35/105 74/36/90 60/51/95
f 43/52/70 60/51/95 74/36/90
f 74/36/90 69/37/68 43/52/70
f 22/66/35 31/65/72 43/52/70
f 43/52/70 37/53/46 22/66/35
f 18/67/23 22/66/35 37/53/46
f 37/53/46 29/54/27 18/67/23
f 11/68/11 18/67/23 29/54/27
f 29/54/27 26/55/24 11/68/11
f 11/68/11 26/55/24 27/56/16
f 27/56/16 12/69/8 11/68/11
f 58/63/116 64/62/132 71/49/122
f 71/49/122 67/50/114 58/63/116
f 39/64/104 58/63/116 67/50/114
f 67/50/114 60/51/95 39/64/104
f 31/65/72 39/64/104 60/51/95
f 60/51/95 43/52/70 31/65/72
f 16/81/31 24/80/74 31/65/72
f 31/65/72 22/66/35 16/81/31
f 9/82/15 16/81/31 22/66/35
f 22/66/35 18/67/23 9/82/15
f 4/83/5 9/82/15 18/67/23
f 18/67/23 11/68/11 4/83/5
f 4/83/5 11/68/11 12/69/8
f 12/69/8 5/84/2 4/83/5
f 45/78/124 55/77/135 64/62/132
f 64/62/132 58/63/116 45/78/124
f 35/79/108 45/78/124 58/63/116
f 58/63/116 39/64/104 35/79/108
f 24/80/74 35/79/108 39/64/104
f 39/64/104 31/65/72 24/80/74
f 14/96/37 20/95/79 24/80/74
f 24/80/74 16/81/31 14/96/37
f 7/97/18 14/96/37 16/81/31
f 16/81/31 9/82/15 7/97/18
f 1/98/3 7/97/18 9/82/15
f 9/82/15 4/83/5 1/98/3
f 1/98/3 4/83/5 5/84/2
f 5/84/2 2/99/1 1/98/3
f 41/93/127 50/92/138 55/77/135
f 55/77/135 45/78/124 41/93/127
f 33/94/110 41/93/127 45/78/124
f 45/78/124 35/79/108 33/94/110
f 20/95/79 33/94/110 35/79/108
f 35/79/108 24/80/74 20/95/79
f 95/18/91 112/5/86 111/6/84
f 111/6/84 94/19/92 95/18/91
f 84/33/109 95/18/91 94/19/92
f 94/19/92 83/34/112 84/33/109
f 72/48/118 84/33/109 83/34/112
f 83/34/112 71/49/122 72/48/118
f 65/61/129 72/48/118 71/49/122
f 71/49/122 64/62/132 65/61/129
f 56/76/137 65/61/129 64/62/132
f 64/62/132 55/77/135 56/76/137
f 51/91/140 56/76/137 55/77/135
f 55/77/135 50/92/138 51/91/140
f 109/16/44 110/27/10 140/28/98
f 140/28/98 139/17/130 109/16/44
f 107/14/19 109/16/44 139/17/130
f 139/17/130 137/15/101 107/14/19
f 105/3/42 107/14/19 137/15/101
f 137/15/101 135/4/126 105/3/42
f 103/1/9 105/3/42 135/4/126
f 135/4/126 133/2/99 103/1/9
f 101/104/40 103/106/9 133/107/99
f 133/107/99 131/105/120 101/104/40
f 99/102/21 101/104/40 131/105/120
f 131/105/120 129/103/97 99/102/21
f 97/100/43 99/102/21 129/103/97
f 129/103/97 127/101/134 97/100/43
f 98/87/7 97/100/43 127/101/134
f 127/101/134 128/88/96 98/87/7
f 100/74/39 98/87/7 128/88/96
f 128/88/96 130/75/121 100/74/39
f 102/70/20 100/74/39 130/75/121
f 130/75/121 132/71/100 102/70/20
f 104/57/41 102/70/20 132/71/100
f 132/71/100 134/58/131 104/57/41
f 106/46/13 104/57/41 134/58/131
f 134/58/131 136/47/102 106/46/13
f 108/42/45 106/46/13 136/47/102
f 136/47/102 138/43/119 108/42/45
f 110/27/10 108/42/45 138/43/119
f 138/43/119 140/28/98 110/27/10
f 138/72/119 139/44/130 140/59/98
f 107/31/19 110/59/10 109/44/44
f 136/85/102 134/89/131 138/72/119
f 132/90/100 130/86/121 134/89/131
f 128/73/96 127/60/134 130/86/121
f 130/86/121 127/60/134 134/89/131
f 129/45/97 131/32/120 127/60/134
f 133/30/99 135/29/126 131/32/120
f 131/32/120 135/29/126 127/60/134
f 137/31/101 139/44/130 135/29/126
f 135/29/126 139/44/130 127/60/134
f 127/60/134 139/44/130 134/89/131
f 134/89/131 139/44/130 138/72/119
f 105/29/42 103/30/9 107/31/19
f 101/32/40 99/45/21 103/30/9
f 97/60/43 98/73/7 99/45/21
f 99/45/21 98/73/7 103/30/9
f 100/86/39 102/90/20 98/73/7
f 104/89/41 106/85/13 102/90/20
f 102/90/20 106/85/13 98/73/7
f 108/72/45 110/59/10 106/85/13
f 106/85/13 110/59/10 98/73/7
f 98/73/7 110/59/10 103/30/9
f 103/30/9 110/59/10 107/31/19
