####
#
#	OBJ File Generated by LightWave3D
#	LightWave3D OBJ Export v2.3
#
####
o pipe_2.obj
mtllib pipe_2.mtl
g default
v -3.4717 -0.6118 0.0238
v -3.4717 -0.6118 -0.0222
v -3.4717 -0.572 0.0468
v -3.4717 -0.572 -0.0452
v -3.4717 -0.5427 -0.2822
v -3.4717 -0.5362 0.2915
v -3.4717 -0.5322 0.0238
v -3.4717 -0.5322 -0.0221
v -3.4717 -0.5251 -0.2397
v -3.4717 -0.5189 0.2489
v -3.4717 -0.5147 -0.3187
v -3.4717 -0.508 0.3278
v -3.4717 -0.4795 -0.2337
v -3.4717 -0.4734 0.2426
v -3.4717 -0.4691 -0.3127
v -3.4717 -0.4625 0.3215
v -3.4717 -0.4515 -0.2702
v -3.4717 -0.4452 0.2789
v -3.4717 -0.3418 0.4547
v -3.4717 -0.3388 0.5006
v -3.4717 -0.336 -0.4609
v -3.4717 -0.3325 -0.5068
v -3.4717 -0.3037 0.4291
v -3.4717 -0.2981 -0.435
v -3.4717 -0.2975 0.5209
v -3.4717 -0.291 -0.5267
v -3.4717 -0.2624 0.4494
v -3.4717 -0.2593 0.4952
v -3.4717 -0.2566 -0.4548
v -3.4717 -0.2531 -0.5007
v -3.4717 -0.044 0.5601
v -3.4717 -0.044 -0.5606
v -3.4717 -0.021 0.5999
v -3.4717 -0.021 0.5203
v -3.4717 -0.021 -0.5208
v -3.4717 -0.021 -0.6004
v -3.4717 0.025 0.5999
v -3.4717 0.025 0.5203
v -3.4717 0.025 -0.5208
v -3.4717 0.025 -0.6004
v -3.4717 0.048 0.5601
v -3.4717 0.048 -0.5606
v -3.4717 0.2532 -0.5007
v -3.4717 0.2568 -0.4548
v -3.4717 0.2594 0.4952
v -3.4717 0.2625 0.4494
v -3.4717 0.2912 -0.5267
v -3.4717 0.2976 0.5208
v -3.4717 0.2982 -0.435
v -3.4717 0.3038 0.4291
v -3.4717 0.3326 -0.5068
v -3.4717 0.3362 -0.4609
v -3.4717 0.3389 0.5006
v -3.4717 0.342 0.4547
v -3.4717 0.4453 0.2789
v -3.4717 0.4517 -0.2702
v -3.4717 0.4626 0.3215
v -3.4717 0.4693 -0.3127
v -3.4717 0.4735 0.2426
v -3.4717 0.4797 -0.2337
v -3.4717 0.5082 0.3278
v -3.4717 0.5149 -0.3187
v -3.4717 0.5191 0.2489
v -3.4717 0.5252 -0.2397
v -3.4717 0.5323 0.0238
v -3.4717 0.5323 -0.0221
v -3.4717 0.5364 0.2915
v -3.4717 0.5428 -0.2822
v -3.4717 0.5721 -0.0452
v -3.4717 0.5722 0.0468
v -3.4717 0.6119 -0.0222
v -3.4717 0.612 0.0238
v -3.4389 -0.624 0
v -3.4389 -0.5622 0.2708
v -3.4389 -0.5622 -0.2707
v -3.4389 -0.3891 0.4879
v -3.4389 -0.3891 -0.4879
v -3.4389 -0.1389 0.6084
v -3.4389 -0.1389 -0.6084
v -3.4389 0.1388 0.6084
v -3.4389 0.1388 -0.6084
v -3.4389 0.3891 0.4879
v -3.4389 0.3891 -0.4879
v -3.4389 0.5622 0.2708
v -3.4389 0.5622 -0.2707
v -3.4389 0.624 0
v -3.3054 -0.4994 -0.0007
v -3.3054 -0.4331 -0.2486
v -3.3054 -0.433 0.2472
v -3.3054 -0.2519 0.4284
v -3.3054 -0.2519 -0.4298
v -3.3054 -0.0044 0.4947
v -3.3054 -0.0044 -0.4961
v -3.3054 0.2431 -0.4298
v -3.3054 0.2432 0.4284
v -3.3054 0.4243 0.2472
v -3.3054 0.4243 -0.2486
v -3.3054 0.4907 -0.0007
v -3.2834 -0.624 0
v -3.2834 -0.5622 0.2708
v -3.2834 -0.5622 -0.2707
v -3.2834 -0.3891 0.4879
v -3.2834 -0.3891 -0.4879
v -3.2834 -0.1389 0.6084
v -3.2834 -0.1389 -0.6084
v -3.2834 0.1388 0.6084
v -3.2834 0.1388 -0.6084
v -3.2834 0.3891 0.4879
v -3.2834 0.3891 -0.4879
v -3.2834 0.5622 0.2708
v -3.2834 0.5622 -0.2707
v -3.2834 0.624 0
v -3.2468 -0.6118 0.0238
v -3.2468 -0.6118 -0.0222
v -3.2468 -0.572 0.0468
v -3.2468 -0.572 -0.0452
v -3.2468 -0.5427 -0.2822
v -3.2468 -0.5363 0.2915
v -3.2468 -0.5322 0.0238
v -3.2468 -0.5322 -0.0221
v -3.2468 -0.5251 -0.2397
v -3.2468 -0.5189 0.2489
v -3.2468 -0.5147 -0.3187
v -3.2468 -0.508 0.3278
v -3.2468 -0.4795 -0.2337
v -3.2468 -0.4734 0.2426
v -3.2468 -0.4691 -0.3127
v -3.2468 -0.4625 0.3215
v -3.2468 -0.4515 -0.2702
v -3.2468 -0.4452 0.2789
v -3.2468 -0.3418 0.4547
v -3.2468 -0.3388 0.5006
v -3.2468 -0.336 -0.4609
v -3.2468 -0.3325 -0.5068
v -3.2468 -0.3037 0.4291
v -3.2468 -0.2981 -0.435
v -3.2468 -0.2975 0.5209
v -3.2468 -0.291 -0.5267
v -3.2468 -0.2624 0.4494
v -3.2468 -0.2593 0.4952
v -3.2468 -0.2566 -0.4548
v -3.2468 -0.2531 -0.5007
v -3.2468 -0.044 0.5601
v -3.2468 -0.044 -0.5606
v -3.2468 -0.021 0.5999
v -3.2468 -0.021 0.5203
v -3.2468 -0.021 -0.5208
v -3.2468 -0.021 -0.6004
v -3.2468 0.025 0.5999
v -3.2468 0.025 0.5203
v -3.2468 0.025 -0.5208
v -3.2468 0.025 -0.6004
v -3.2468 0.048 0.5601
v -3.2468 0.048 -0.5606
v -3.2468 0.2532 -0.5007
v -3.2468 0.2568 -0.4548
v -3.2468 0.2594 0.4952
v -3.2468 0.2625 0.4494
v -3.2468 0.2912 -0.5267
v -3.2468 0.2976 0.5208
v -3.2468 0.2982 -0.435
v -3.2468 0.3038 0.4291
v -3.2468 0.3326 -0.5068
v -3.2468 0.3362 -0.4609
v -3.2468 0.3389 0.5006
v -3.2468 0.342 0.4547
v -3.2468 0.4453 0.2789
v -3.2468 0.4517 -0.2702
v -3.2468 0.4626 0.3215
v -3.2468 0.4693 -0.3127
v -3.2468 0.4735 0.2426
v -3.2468 0.4796 -0.2337
v -3.2468 0.5082 0.3278
v -3.2468 0.5149 -0.3187
v -3.2468 0.5191 0.2489
v -3.2468 0.5252 -0.2397
v -3.2468 0.5323 0.0238
v -3.2468 0.5323 -0.0221
v -3.2468 0.5364 0.2915
v -3.2468 0.5428 -0.2822
v -3.2468 0.5721 -0.0452
v -3.2468 0.5722 0.0468
v -3.2468 0.6119 -0.0222
v -3.2468 0.612 0.0238
v 3.4717 -0.4994 -0.0007
v 3.4717 -0.4331 -0.2486
v 3.4717 -0.433 0.2472
v 3.4717 -0.2519 0.4284
v 3.4717 -0.2519 -0.4298
v 3.4717 -0.0044 -0.4961
v 3.4717 -0.0043 0.4947
v 3.4717 0.2431 -0.4298
v 3.4717 0.2432 0.4284
v 3.4717 0.4243 0.2472
v 3.4717 0.4243 -0.2486
v 3.4717 0.4907 -0.0007
vt 0.036496 0.000299998
vt 0.036496 0.1652
vt 0.036496 0.3302
vt 0.036496 0.4952
vt 0.036496 0.6601
vt 0.036496 0.8251
vt 0.036496 0.9901
vt 0.1144 0.7
vt 0.1144 0.8183
vt 0.1776 0.7
vt 0.1776 0.8183
vt 0.2401 0.7
vt 0.2401 0.8183
vt 0.3014 0.7
vt 0.3014 0.8183
vt 0.3617 0.7
vt 0.3617 0.8183
vt 0.3628 0.4365
vt 0.3628 0.6006
vt 0.3997 0.2888
vt 0.3997 0.7484
vt 0.422 0.7
vt 0.422 0.8183
vt 0.4662 0.1865
vt 0.4662 0.8507
vt 0.4833 0.7
vt 0.4833 0.8183
vt 0.5459 0.7
vt 0.5459 0.8183
vt 0.5491 0.15
vt 0.5491 0.8872
vt 0.6091 0.7
vt 0.6091 0.8183
vt 0.6321 0.1865
vt 0.6321 0.8507
vt 0.6717 0.7
vt 0.6717 0.8183
vt 0.6986 0.2888
vt 0.6986 0.7484
vt 0.733 0.7
vt 0.733 0.8183
vt 0.7355 0.4365
vt 0.7355 0.6006
vt 0.7933 0.7
vt 0.7933 0.8183
vt 0.8088 0.8963
vt 0.8296 0.8197
vt 0.8296 0.973
vt 0.8536 0.7
vt 0.8536 0.8183
vt 0.8711 0.8197
vt 0.8711 0.973
vt 0.8919 0.8963
vt 0.9149 0.7
vt 0.9149 0.8183
vt 0.9775 0.7
vt 0.9775 0.8183
vt 1.00606 0.000299998
vt 1.00606 0.1652
vt 1.00606 0.3302
vt 1.00606 0.4952
vt 1.00606 0.6601
vt 1.00606 0.8251
vt 1.00606 0.9901
vt 1.8671 0.7445
vt 1.8671 0.99
vt 1.884 0.7445
vt 1.884 0.99
vt 1.901 0.7445
vt 1.901 0.99
vt 1.9179 0.7445
vt 1.9179 0.99
vt 1.9349 0.7445
vt 1.9349 0.99
vt 1.9519 0.7445
vt 1.9519 0.99
vt 1.9688 0.7445
vt 1.9688 0.99
vn -0.898389 -0.40903 0.159974
vn -0.862533 -0.0748529 -0.500434
vn -0.862533 0.504545 0.0383679
vn -0.80642 0.332534 0.488986
vn -0.750294 0.63952 0.16755
vn -0.750219 -0.125938 -0.649085
vn -0.750219 0.125938 -0.649085
vn -0.750189 0.464698 0.470396
vn -0.750145 0.133419 -0.647674
vn -0.750144 0.625206 0.21541
vn -0.750121 -0.609313 0.257014
vn -0.750104 0.0811425 -0.656323
vn -0.750103 0.608789 0.258305
vn -0.750098 0.174777 -0.637813
vn -0.750087 -0.660401 -0.0352196
vn -0.750075 -0.174053 -0.638039
vn -0.750066 0.649424 0.125099
vn -0.750066 0.649424 0.125099
vn -0.750062 -0.527826 0.398505
vn -0.750058 0.360591 -0.554425
vn -0.750055 -0.499741 0.433215
vn -0.750045 -0.300076 0.589396
vn -0.750034 -0.360654 -0.554417
vn -0.750021 0.300213 0.589356
vn -0.750018 -0.639622 0.168395
vn -0.750013 -0.494577 0.439175
vn -0.750005 -0.0813836 -0.656406
vn -0.750004 -0.133132 -0.647896
vn -0.749989 0.494633 0.439152
vn -0.749983 0.627679 0.208673
vn -0.749967 -0.216446 -0.62506
vn -0.749967 0.500153 0.432893
vn -0.749967 -0.62506 0.216446
vn -0.749967 -0.432893 0.500153
vn -0.749967 -0.216446 -0.62506
vn -0.749952 -0.627842 0.208297
vn -0.749937 -0.464923 0.470575
vn -0.749921 0.660613 -0.0347543
vn -0.749916 0.528472 0.397924
vn -0.715034 0.476171 -0.511848
vn -0.715019 -0.206838 0.667807
vn -0.715005 -0.605126 -0.350129
vn -0.353696 -0.11461 0.928312
vn -0.353693 -0.904945 -0.236594
vn -0.35366 -0.188177 0.91625
vn -0.353651 -0.509503 0.784434
vn -0.353615 -0.918505 -0.176932
vn -0.353615 -0.918505 -0.176931
vn -0.353615 -0.176932 0.918505
vn -0.353601 0.7465 -0.563652
vn -0.353596 0.424396 -0.833581
vn -0.353585 0.510064 0.7841
vn -0.353581 -0.65832 -0.664527
vn -0.353573 -0.424578 -0.833499
vn -0.353565 -0.699449 -0.621097
vn -0.353565 0.699449 -0.621097
vn -0.353558 0.188277 0.916269
vn -0.353537 -0.887652 -0.295102
vn -0.353532 0.177223 0.918481
vn -0.353522 0.612176 -0.707292
vn -0.353522 -0.707292 -0.612176
vn -0.353522 0.306088 0.88393
vn -0.353522 0.612176 -0.707292
vn -0.35349 -0.861297 -0.364982
vn -0.35349 0.861297 -0.364982
vn -0.353479 0.934151 0.0491451
vn -0.353479 -0.934151 0.0491446
vn -0.353433 0.904756 -0.237701
vn -0.353409 0.113807 0.92852
vn -0.353405 0.888063 -0.294022
vn -0.353379 0.884146 -0.30563
vn -0.353379 -0.884146 -0.30563
vn -0.353359 -0.246581 0.902405
vn -0.353356 0.706959 -0.612656
vn -0.353344 0.658418 -0.664555
vn -0.353342 -0.746717 -0.563527
vn -0.353337 0.245551 0.902695
vn -0.322692 -0.532394 -0.782577
vn -0.322685 -0.644624 0.693062
vn -0.322684 -0.943776 -0.0718452
vn -0.322682 0.819195 0.474127
vn -0.32268 0.13997 0.936102
vn -0.32268 0.279939 -0.904164
vn -0.322673 0.881497 -0.344739
vn -1.31193e-006 0.420983 0.907068
vn 0 -0.99606 -0.0886756
vn 0 -0.996027 0.0890506
vn 0 -0.907206 -0.420686
vn 0 -0.907137 0.420836
vn 0 -0.818235 0.574884
vn 0 -0.818198 -0.574937
vn 0 -0.575197 0.818015
vn 0 -0.575044 -0.818123
vn 0 -0.420934 -0.907091
vn 0 -0.0889391 -0.996037
vn 0 0.0889391 -0.996037
vn 0 0.420934 -0.907091
vn 0 0.575044 -0.818123
vn 0 0.575197 0.818015
vn 0 0.818128 -0.575037
vn 0 0.818235 0.574884
vn 0 0.907099 -0.420917
vn 0 0.907137 0.420836
vn 0 0.996038 0.0889296
vn 0 0.996038 -0.0889296
vn 1.56302e-013 -0.0889375 0.996037
vn 1.56302e-013 0.0889375 0.996037
vn 1.31193e-006 -0.420983 0.907068
vn 0.322673 -0.881497 -0.344739
vn 0.322682 -0.819195 0.474127
vn 0.322684 0.943776 -0.0718452
vn 0.322684 -0.280034 -0.904133
vn 0.322684 -0.140017 0.936093
vn 0.32269 0.644587 0.693093
vn 0.322696 0.53231 -0.782632
vn 0.353337 -0.105898 0.929483
vn 0.353342 -0.902243 -0.247196
vn 0.353344 0.857602 -0.37372
vn 0.353356 0.883513 -0.307481
vn 0.353359 0.104948 0.929582
vn 0.353369 -0.703289 -0.61686
vn 0.353379 -0.708156 -0.61126
vn 0.353379 0.708155 -0.611261
vn 0.353405 0.933804 0.0558122
vn 0.353409 -0.238214 0.90463
vn 0.353433 0.752282 -0.556018
vn 0.353477 -0.181809 0.917605
vn 0.353479 -0.885791 -0.300711
vn 0.353479 0.885791 -0.300711
vn 0.35349 0.664545 -0.65835
vn 0.35349 -0.664545 -0.65835
vn 0.353522 -0.88393 -0.306088
vn 0.353522 0.306088 -0.88393
vn 0.353522 0.612176 0.707292
vn 0.353522 0.306088 -0.88393
vn 0.353532 -0.176224 0.918673
vn 0.353533 -0.515411 0.780619
vn 0.353537 -0.933782 0.0553482
vn 0.353558 0.514924 0.780929
vn 0.353565 0.418911 -0.836364
vn 0.353565 -0.418911 -0.836364
vn 0.353581 -0.857997 -0.372588
vn 0.353585 0.182446 0.917437
vn 0.353596 0.703615 -0.616357
vn 0.353601 0.902446 -0.246085
vn 0.353615 -0.918505 0.176932
vn 0.353615 0.176931 0.918505
vn 0.353615 -0.918505 0.176932
vn 0.353693 -0.752059 -0.556155
vn 0.353696 0.238847 0.904351
vn 0.715016 0.651083 0.254642
vn 0.71502 -0.393193 0.578053
vn 0.715028 -0.476201 -0.511828
vn 0.749843 -0.660437 -0.0394735
vn 0.749916 0.638338 0.173641
vn 0.749921 0.626414 0.212657
vn 0.749937 -0.606282 0.264607
vn 0.749967 -0.500153 0.432893
vn 0.749967 -0.432893 -0.500153
vn 0.749967 -0.216446 0.62506
vn 0.749967 -0.432893 -0.500153
vn 0.749967 0.62506 0.216446
vn 0.749983 0.660298 -0.0391381
vn 0.750004 -0.364104 -0.552197
vn 0.750005 0.168074 -0.639722
vn 0.750007 0.296273 0.591364
vn 0.750013 -0.29621 0.591389
vn 0.750018 -0.531397 0.393815
vn 0.750021 0.497559 0.43578
vn 0.750034 -0.129003 -0.648697
vn 0.750045 -0.497501 0.435804
vn 0.750055 -0.624898 0.216608
vn 0.750058 0.128859 -0.648697
vn 0.750062 -0.638088 0.173927
vn 0.750066 0.649424 -0.125099
vn 0.750066 0.649424 -0.125098
vn 0.750071 -0.626246 0.212626
vn 0.750075 0.07545 -0.657035
vn 0.750098 -0.0747745 -0.657085
vn 0.750103 0.46918 0.466064
vn 0.750104 -0.1686 -0.639467
vn 0.750121 -0.470103 0.465104
vn 0.750144 0.50027 0.432451
vn 0.750145 0.364698 -0.551614
vn 0.750189 0.606358 0.263717
vn 0.750219 -0.124717 -0.649321
vn 0.750219 0.124717 -0.649321
vn 0.750294 0.531044 0.393766
vn 0.806411 0.0874497 -0.584854
vn 0.862524 0.437985 -0.25342
vn 0.86253 0.149657 0.483369
vn 0.89839 -0.437933 0.0333025
usemtl 01___Default
s 1
f 192/5/97 190/4/95 93/61/96
f 93/61/96 94/62/98 192/5/97
f 195/6/100 192/5/97 94/62/98
f 94/62/98 97/63/102 195/6/100
f 196/7/105 195/6/100 97/63/102
f 97/63/102 98/64/104 196/7/105
f 186/2/88 185/1/87 87/58/86
f 87/58/86 88/59/91 186/2/88
f 189/3/93 186/2/88 88/59/91
f 88/59/91 91/60/94 189/3/93
f 190/4/95 189/3/93 91/60/94
f 91/60/94 93/61/96 190/4/95
f 95/62/85 92/61/106 191/4/107
f 191/4/107 193/5/99 95/62/85
f 96/63/101 95/62/85 193/5/99
f 193/5/99 194/6/103 96/63/101
f 98/64/104 96/63/101 194/6/103
f 194/6/103 196/7/105 98/64/104
f 89/59/89 87/58/86 185/1/87
f 185/1/87 187/2/90 89/59/89
f 90/60/92 89/59/89 187/2/90
f 187/2/90 188/3/108 90/60/92
f 92/61/106 90/60/92 188/3/108
f 188/3/108 191/4/107 92/61/106
f 147/51/160 144/53/148 148/52/159
f 148/52/159 152/48/133 154/46/175
f 147/51/160 148/52/159 154/46/175
f 151/47/134 147/51/160 154/46/175
f 154/75/175 152/77/133 40/78/63
f 40/78/63 42/76/17 154/75/175
f 152/65/133 148/67/159 36/68/35
f 36/68/35 40/66/63 152/65/133
f 148/67/159 144/69/148 32/70/47
f 32/70/47 36/68/35 148/67/159
f 144/69/148 147/71/160 35/72/34
f 35/72/34 32/70/47 144/69/148
f 147/71/160 151/73/134 39/74/62
f 39/74/62 35/72/34 147/71/160
f 151/73/134 154/75/175 42/76/17
f 42/76/17 39/74/62 151/73/134
f 42/53/17 40/52/63 36/48/35
f 36/48/35 32/46/47 35/47/34
f 42/53/17 36/48/35 35/47/34
f 39/51/62 42/53/17 35/47/34
f 156/46/157 155/48/149 159/52/178
f 159/52/178 163/53/118 164/51/188
f 156/46/157 159/52/178 164/51/188
f 161/47/116 156/46/157 164/51/188
f 156/75/157 44/76/37 43/78/44
f 43/78/44 155/77/149 156/75/157
f 155/65/149 43/66/44 47/68/16
f 47/68/16 159/67/178 155/65/149
f 159/67/178 47/68/16 51/70/75
f 51/70/75 163/69/118 159/67/178
f 163/69/118 51/70/75 52/72/5
f 52/72/5 164/71/188 163/69/118
f 164/71/188 52/72/5 49/74/77
f 49/74/77 161/73/116 164/71/188
f 161/73/116 49/74/77 44/76/37
f 44/76/37 156/75/157 161/73/116
f 52/47/5 51/46/75 47/48/16
f 47/48/16 43/52/44 44/53/37
f 52/47/5 47/48/16 44/53/37
f 49/51/77 52/47/5 44/53/37
f 168/46/154 170/48/141 174/52/184
f 174/52/184 180/53/124 176/51/166
f 168/46/154 174/52/184 176/51/166
f 172/47/137 168/46/154 176/51/166
f 168/75/154 56/76/36 58/78/55
f 58/78/55 170/77/141 168/75/154
f 170/65/141 58/66/55 62/68/9
f 62/68/9 174/67/184 170/65/141
f 174/67/184 62/68/9 68/70/70
f 68/70/70 180/69/124 174/67/184
f 180/69/124 68/70/70 64/72/29
f 64/72/29 176/71/166 180/69/124
f 176/71/166 64/72/29 60/74/45
f 60/74/45 172/73/137 176/71/166
f 172/73/137 60/74/45 56/76/36
f 56/76/36 168/75/154 172/73/137
f 64/47/29 68/46/70 62/48/9
f 62/48/9 58/52/55 56/53/36
f 64/47/29 62/48/9 56/53/36
f 60/51/45 64/47/29 56/53/36
f 177/46/172 178/48/122 181/52/187
f 181/52/187 183/53/119 184/51/183
f 177/46/172 181/52/187 184/51/183
f 182/47/136 177/46/172 184/51/183
f 177/75/172 65/76/21 66/78/72
f 66/78/72 178/77/122 177/75/172
f 178/65/122 66/66/72 69/68/6
f 69/68/6 181/67/187 178/65/122
f 181/67/187 69/68/6 71/70/74
f 71/70/74 183/69/119 181/67/187
f 183/69/119 71/70/74 72/72/10
f 72/72/10 184/71/183 183/69/119
f 184/71/183 72/72/10 70/74/59
f 70/74/59 182/73/136 184/71/183
f 182/73/136 70/74/59 65/76/21
f 65/76/21 177/75/172 182/73/136
f 72/47/10 71/46/74 69/48/6
f 69/48/6 66/52/72 65/53/21
f 72/47/10 69/48/6 65/53/21
f 70/51/59 72/47/10 65/53/21
f 169/46/171 167/48/128 171/52/170
f 171/52/170 175/53/144 179/51/156
f 169/46/171 171/52/170 179/51/156
f 173/47/143 169/46/171 179/51/156
f 169/75/171 57/76/22 55/78/67
f 55/78/67 167/77/128 169/75/171
f 167/65/128 55/66/67 59/68/23
f 59/68/23 171/67/170 167/65/128
f 171/67/170 59/68/23 63/70/51
f 63/70/51 175/69/144 171/67/170
f 175/69/144 63/70/51 67/72/38
f 67/72/38 179/71/156 175/69/144
f 179/71/156 67/72/38 61/74/52
f 61/74/52 173/73/143 179/71/156
f 173/73/143 61/74/52 57/76/22
f 57/76/22 169/75/171 173/73/143
f 67/47/38 63/46/51 59/48/23
f 59/48/23 55/52/67 57/53/22
f 67/47/38 59/48/23 57/53/22
f 61/51/52 67/47/38 57/53/22
f 165/46/180 160/48/125 157/52/174
f 157/52/174 158/53/131 162/51/165
f 165/46/180 157/52/174 162/51/165
f 166/47/145 165/46/180 162/51/165
f 165/75/180 53/76/13 48/78/69
f 48/78/69 160/77/125 165/75/180
f 160/65/125 48/66/69 45/68/19
f 45/68/19 157/67/174 160/65/125
f 157/67/174 45/68/19 46/70/64
f 46/70/64 158/69/131 157/67/174
f 158/69/131 46/70/64 50/72/27
f 50/72/27 162/71/165 158/69/131
f 162/71/165 50/72/27 54/74/50
f 54/74/50 166/73/145 162/71/165
f 166/73/145 54/74/50 53/76/13
f 53/76/13 165/75/180 166/73/145
f 50/47/27 46/46/64 45/48/19
f 45/48/19 48/52/69 53/53/13
f 50/47/27 45/48/19 53/53/13
f 54/51/50 50/47/27 53/53/13
f 133/51/168 134/53/142 138/52/179
f 138/52/179 142/48/126 141/46/185
f 133/51/168 138/52/179 141/46/185
f 136/47/120 133/51/168 141/46/185
f 141/75/185 142/77/126 30/78/68
f 30/78/68 29/76/8 141/75/185
f 142/65/126 138/67/179 26/68/14
f 26/68/14 30/66/68 142/65/126
f 138/67/179 134/69/142 22/70/53
f 22/70/53 26/68/14 138/67/179
f 134/69/142 133/71/168 21/72/25
f 21/72/25 22/70/53 134/69/142
f 133/71/168 136/73/120 24/74/73
f 24/74/73 21/72/25 133/71/168
f 136/73/120 141/75/185 29/76/8
f 29/76/8 24/74/73 136/73/120
f 29/53/8 30/52/68 26/48/14
f 26/48/14 22/46/53 21/47/25
f 29/53/8 26/48/14 21/47/25
f 24/51/73 29/53/8 21/47/25
f 121/51/167 117/53/138 123/52/164
f 123/52/164 127/48/140 129/46/163
f 121/51/167 123/52/164 129/46/163
f 125/47/139 121/51/167 129/46/163
f 129/75/163 127/77/140 15/78/56
f 15/78/56 17/76/30 129/75/163
f 127/65/140 123/67/164 11/68/28
f 11/68/28 15/66/56 127/65/140
f 123/67/164 117/69/138 5/70/58
f 5/70/58 11/68/28 123/67/164
f 117/69/138 121/71/167 9/72/26
f 9/72/26 5/70/58 117/69/138
f 121/71/167 125/73/139 13/74/57
f 13/74/57 9/72/26 121/71/167
f 125/73/139 129/75/163 17/76/30
f 17/76/30 13/74/57 125/73/139
f 17/53/30 15/52/56 11/48/28
f 11/48/28 5/46/58 9/47/26
f 17/53/30 11/48/28 9/47/26
f 13/51/57 17/53/30 9/47/26
f 113/51/158 114/53/132 116/52/186
f 116/52/186 120/48/123 119/46/162
f 113/51/158 116/52/186 119/46/162
f 115/47/147 113/51/158 119/46/162
f 119/75/162 120/77/123 8/78/71
f 8/78/71 7/76/32 119/75/162
f 120/65/123 116/67/186 4/68/7
f 4/68/7 8/66/71 120/65/123
f 116/67/186 114/69/132 2/70/61
f 2/70/61 4/68/7 116/67/186
f 114/69/132 113/71/158 1/72/33
f 1/72/33 2/70/61 114/69/132
f 113/71/158 115/73/147 3/74/49
f 3/74/49 1/72/33 113/71/158
f 115/73/147 119/75/162 7/76/32
f 7/76/32 3/74/49 115/73/147
f 7/53/32 8/52/71 4/48/7
f 4/48/7 2/46/61 1/47/33
f 7/53/32 4/48/7 1/47/33
f 3/51/49 7/53/32 1/47/33
f 118/51/177 122/53/121 126/52/173
f 126/52/173 130/48/129 128/46/169
f 118/51/177 126/52/173 128/46/169
f 124/47/127 118/51/177 128/46/169
f 128/75/169 130/77/129 18/78/66
f 18/78/66 16/76/24 128/75/169
f 130/65/129 126/67/173 14/68/20
f 14/68/20 18/66/66 130/65/129
f 126/67/173 122/69/121 10/70/54
f 10/70/54 14/68/20 126/67/173
f 122/69/121 118/71/177 6/72/15
f 6/72/15 10/70/54 122/69/121
f 118/71/177 124/73/127 12/74/46
f 12/74/46 6/72/15 118/71/177
f 124/73/127 128/75/169 16/76/24
f 16/76/24 12/74/46 124/73/127
f 16/53/24 18/52/66 14/48/20
f 14/48/20 10/46/54 6/47/15
f 16/53/24 14/48/20 6/47/15
f 12/51/46 16/53/24 6/47/15
f 135/51/181 139/53/130 140/52/155
f 140/52/155 137/48/150 132/46/182
f 135/51/181 140/52/155 132/46/182
f 131/47/117 135/51/181 132/46/182
f 132/75/182 137/77/150 25/78/43
f 25/78/43 20/76/11 132/75/182
f 137/65/150 140/67/155 28/68/39
f 28/68/39 25/66/43 137/65/150
f 140/67/155 139/69/130 27/70/65
f 27/70/65 28/68/39 140/67/155
f 139/69/130 135/71/181 23/72/12
f 23/72/12 27/70/65 139/69/130
f 135/71/181 131/73/117 19/74/76
f 19/74/76 23/72/12 135/71/181
f 131/73/117 132/75/182 20/76/11
f 20/76/11 19/74/76 131/73/117
f 20/53/11 25/52/43 28/48/39
f 28/48/39 27/46/65 23/47/12
f 20/53/11 28/48/39 23/47/12
f 19/51/76 20/53/11 23/47/12
f 145/51/160 143/53/146 146/52/161
f 146/52/161 150/48/135 153/46/176
f 145/51/160 146/52/161 153/46/176
f 149/47/134 145/51/160 153/46/176
f 153/75/176 150/77/135 38/78/60
f 38/78/60 41/76/18 153/75/176
f 150/65/135 146/67/161 34/68/31
f 34/68/31 38/66/60 150/65/135
f 146/67/161 143/69/146 31/70/48
f 31/70/48 34/68/31 146/67/161
f 143/69/146 145/71/160 33/72/34
f 33/72/34 31/70/48 143/69/146
f 145/71/160 149/73/134 37/74/62
f 37/74/62 33/72/34 145/71/160
f 149/73/134 153/75/176 41/76/18
f 41/76/18 37/74/62 149/73/134
f 41/53/18 38/52/60 34/48/31
f 34/48/31 31/46/48 33/47/34
f 41/53/18 34/48/31 33/47/34
f 37/51/62 41/53/18 33/47/34
f 112/17/111 111/15/190 85/14/84
f 85/14/84 86/16/3 112/17/111
f 111/15/190 109/13/115 83/12/40
f 83/12/40 85/14/84 111/15/190
f 109/13/115 107/11/189 81/10/83
f 81/10/83 83/12/40 109/13/115
f 107/11/189 105/9/112 79/8/2
f 79/8/2 81/10/83 107/11/189
f 105/57/112 103/55/153 77/54/78
f 77/54/78 79/56/2 105/57/112
f 103/55/153 101/50/109 75/49/42
f 75/49/42 77/54/78 103/55/153
f 101/50/109 99/45/192 73/44/80
f 73/44/80 75/49/42 101/50/109
f 99/45/192 100/41/110 74/40/1
f 74/40/1 73/44/80 99/45/192
f 100/41/110 102/37/152 76/36/79
f 76/36/79 74/40/1 100/41/110
f 102/37/152 104/33/113 78/32/41
f 78/32/41 76/36/79 102/37/152
f 104/33/113 106/29/191 80/28/82
f 80/28/82 78/32/41 104/33/113
f 106/29/191 108/27/114 82/26/4
f 82/26/4 80/28/82 106/29/191
f 108/27/114 110/23/151 84/22/81
f 84/22/81 82/26/4 108/27/114
f 110/23/151 112/17/111 86/16/3
f 86/16/3 84/22/81 110/23/151
f 112/30/111 110/34/151 111/24/190
f 85/24/84 83/20/40 86/30/3
f 110/34/151 108/38/114 106/42/191
f 106/42/191 104/43/113 102/39/152
f 102/39/152 100/35/110 99/31/192
f 106/42/191 102/39/152 99/31/192
f 99/31/192 101/25/109 103/21/153
f 103/21/153 105/19/112 107/18/189
f 99/31/192 103/21/153 107/18/189
f 107/18/189 109/20/115 111/24/190
f 99/31/192 107/18/189 111/24/190
f 106/42/191 99/31/192 111/24/190
f 110/34/151 106/42/191 111/24/190
f 83/20/40 81/18/83 79/19/2
f 79/19/2 77/21/78 75/25/42
f 75/25/42 73/31/80 74/35/1
f 79/19/2 75/25/42 74/35/1
f 74/35/1 76/39/79 78/43/41
f 78/43/41 80/42/82 82/38/4
f 74/35/1 78/43/41 82/38/4
f 82/38/4 84/34/81 86/30/3
f 74/35/1 82/38/4 86/30/3
f 79/19/2 74/35/1 86/30/3
f 83/20/40 79/19/2 86/30/3
