####
#
#	OBJ File Generated by LightWave3D
#	LightWave3D OBJ Export v2.3
#
####
o wall_mount.obj
mtllib wall_mount.mtl
g default
v -0.4093 -0.3415 1.2659
v -0.4093 -0.3415 -1.105
v -0.4093 -0.3415 -1.2659
v -0.4093 -0.2593 1.2659
v -0.4093 -0.2593 -1.105
v -0.4093 -0.2593 -1.2659
v -0.3752 0.3415 -1.105
v -0.3752 0.3415 -1.2659
v -0.2465 0.3415 -1.105
v -0.2465 0.3415 -1.2659
v -0.2124 -0.3415 1.2659
v -0.2124 -0.3415 -1.105
v -0.2124 -0.3415 -1.2659
v -0.2124 -0.2593 1.2659
v -0.2124 -0.2593 -1.105
v -0.2124 -0.2593 -1.2659
v 0.2112 -0.3415 -1.105
v 0.2112 -0.3415 -1.2659
v 0.2112 -0.2593 -1.105
v 0.2112 -0.2593 -1.2659
v 0.2123 -0.3415 1.2659
v 0.2123 -0.2593 1.2659
v 0.2439 0.3415 -1.105
v 0.2439 0.3415 -1.2659
v 0.3777 0.3415 -1.105
v 0.3777 0.3415 -1.2659
v 0.4093 -0.3415 1.2659
v 0.4093 -0.3415 -1.105
v 0.4093 -0.3415 -1.2659
v 0.4093 -0.2593 1.2659
v 0.4093 -0.2593 -1.105
v 0.4093 -0.2593 -1.2659
vt 0.4796 0.8361
vt 0.4796 0.9695
vt 0.4796 0.9878
vt 0.5012 0.8361
vt 0.5012 0.9695
vt 0.5012 0.9878
vt 0.5949 0.9695
vt 0.5949 0.9878
vt 0.5991 0.8361
vt 0.5995 0.8361
vt 0.6168 0.8361
vt 0.6171 0.8361
vt 0.6214 0.9695
vt 0.6214 0.9878
vt 0.6215 0.9695
vt 0.6215 0.9878
vt 0.6784 0.9695
vt 0.6784 0.9878
vt 0.6785 0.9695
vt 0.6785 0.9878
vt 0.6828 0.8361
vt 0.6831 0.8361
vt 0.7005 0.8361
vt 0.7008 0.8361
vt 0.7051 0.9695
vt 0.7051 0.9878
vt 0.7987 0.8361
vt 0.7987 0.9695
vt 0.7987 0.9878
vt 0.8204 0.8361
vt 0.8204 0.9695
vt 0.8204 0.9878
vt 0.8365 0.9561
vt 0.8365 0.9918
vt 0.8408 0.9561
vt 0.8408 0.9918
vt 0.8588 0.9561
vt 0.8588 0.9918
vt 0.863 0.9561
vt 0.863 0.9918
vt 0.8632 0.9561
vt 0.8632 0.9918
vt 0.92 0.9561
vt 0.92 0.9918
vt 0.9202 0.9561
vt 0.9202 0.9918
vt 0.9248 0.9561
vt 0.9248 0.9918
vt 0.9421 0.9561
vt 0.9421 0.9918
vt 0.9467 0.9561
vt 0.9467 0.9918
vt 1.0446 0.4617
vt 1.0446 0.9883
vt 1.0711 0.4617
vt 1.0711 0.9883
vt 1.0713 0.9883
vt 1.6223 0.9651
vt 1.6225 0.4385
vt 1.6225 0.9651
vt 1.649 0.4385
vt 1.649 0.9651
vn -0.831365 0.0314407 -0.554837
vn -0.812503 0.41793 0.406415
vn -0.80091 0.444639 0.401048
vn -0.80021 0.446167 0.400749
vn -0.707107 -0.707107 -0
vn -0.666667 -0.333333 -0.666667
vn -0.666667 0.333333 0.666667
vn -0.666529 0.333265 0.666838
vn -0.433552 0.240694 -0.868388
vn -0.408248 -0.816497 0.408248
vn -0.408217 -0.816433 0.408406
vn -0.368366 0.747295 0.553043
vn -0.328892 0.676659 -0.658758
vn -0.328685 0.677082 -0.658427
vn 0 -0.707107 -0.707107
vn 0.181596 0.374084 -0.909442
vn 0.328685 0.677082 0.658427
vn 0.329055 0.676326 0.659019
vn 0.365148 -0.912871 0.182574
vn 0.408248 -0.408248 0.816497
vn 0.446936 0.0117455 -0.894489
vn 0.632525 0.446056 0.633203
vn 0.666667 -0.666667 -0.333333
vn 0.666667 0.666667 0.333333
vn 0.666667 0.666667 0.333333
vn 0.707107 -0.707107 -0
vn 0.80021 0.446167 -0.400749
vn 0.801458 0.443437 -0.401283
vn 0.958291 0.211908 0.191764
usemtl 01___Default
s off
f 12/29/19 15/28/22 14/2/24
f 14/2/24 11/3/20 12/29/19
f 3/3/6 2/6/5 5/5/2
f 5/5/2 6/2/1 3/3/6
f 2/6/5 1/32/10 4/31/7
f 4/31/7 5/5/2 2/6/5
f 13/40/15 12/39/19 2/33/5
f 2/33/5 3/34/6 13/40/15
f 12/56/19 11/55/20 1/53/10
f 1/53/10 2/54/5 12/56/19
f 11/14/20 14/13/24 4/7/7
f 4/7/7 1/8/10 11/14/20
f 14/59/24 15/60/22 5/62/2
f 5/62/2 4/61/7 14/59/24
f 9/47/17 10/48/27 8/50/14
f 8/50/14 7/49/4 9/47/17
f 16/19/16 13/20/15 3/26/6
f 3/26/6 6/25/1 16/19/16
f 15/28/22 16/31/16 10/30/27
f 10/30/27 9/27/17 15/28/22
f 16/19/16 6/25/1 8/23/14
f 8/23/14 10/22/27 16/19/16
f 6/2/1 5/5/2 7/4/4
f 7/4/4 8/1/14 6/2/1
f 5/7/2 15/13/22 9/11/17
f 9/11/17 7/10/4 5/7/2
f 13/20/15 16/19/16 20/15/9
f 20/15/9 18/16/15 13/20/15
f 16/46/16 15/45/22 19/41/12
f 19/41/12 20/42/9 16/46/16
f 15/13/22 12/14/19 17/18/11
f 17/18/11 19/17/12 15/13/22
f 12/39/19 13/40/15 18/44/15
f 18/44/15 17/43/11 12/39/19
f 29/32/23 32/31/21 31/28/29
f 31/28/29 28/29/26 29/32/23
f 28/29/26 31/28/29 30/2/25
f 30/2/25 27/3/20 28/29/26
f 17/6/11 21/32/11 22/31/8
f 22/31/8 19/5/12 17/6/11
f 29/52/23 28/51/26 17/43/11
f 17/43/11 18/44/15 29/52/23
f 28/62/26 27/61/20 21/59/11
f 21/59/11 17/58/11 28/62/26
f 27/26/20 30/25/25 22/19/8
f 22/19/8 21/20/11 27/26/20
f 30/53/25 31/54/29 19/57/12
f 19/57/12 22/55/8 30/53/25
f 25/35/18 26/36/28 24/38/13
f 24/38/13 23/37/3 25/35/18
f 32/7/21 29/8/23 18/16/15
f 18/16/15 20/15/9 32/7/21
f 31/28/29 32/31/21 26/30/28
f 26/30/28 25/27/18 31/28/29
f 32/7/21 20/15/9 24/12/13
f 24/12/13 26/9/28 32/7/21
f 20/2/9 19/5/12 23/4/3
f 23/4/3 24/1/13 20/2/9
f 19/17/12 31/25/29 25/24/18
f 25/24/18 23/21/3 19/17/12
